<?xml version="1.0" standalone="no"?>
<!DOCTYPE svg PUBLIC "-//W3C//DTD SVG 1.1//EN" "http://www.w3.org/Graphics/SVG/1.1/DTD/svg11.dtd" >
<svg xmlns="http://www.w3.org/2000/svg">
<metadata>Generated by IcoMoon</metadata>
<defs>
<font id="icon-theme-CSO" horiz-adv-x="1024">
<font-face units-per-em="1024" ascent="960" descent="-64" />
<missing-glyph horiz-adv-x="1024" />
<glyph unicode="&#x20;" horiz-adv-x="512" d="" />
<glyph unicode="&#xf000;" glyph-name="t-inventory" horiz-adv-x="1200" d="M495.244 945.209c-23.214 0.131-38.342-15.423-47.49-28.83-9.148-13.41-15.095-28.138-19.954-42.4-3.803-11.181-6.793-22.13-9.049-31.383h61.081c1.171 4.072 2.426 8.214 3.836 12.361 3.885 11.41 8.872 22.348 12.839 28.164 1.632 2.393 2.138 2.774 2.334 3.049l202.217-1.105c0.206-0.275 0.819-0.738 2.505-3.181 3.961-5.754 8.918-16.525 12.801-27.761 1.335-3.868 2.518-7.725 3.64-11.528h61.168c-2.262 9.092-5.236 19.82-9.017 30.777-4.866 14.099-10.833 28.689-19.987 41.981-9.154 13.295-24.122 28.591-47.092 28.711l-209.837 1.147zM75.406 783.578c-16.394 0-36.229-9.106-51.269-24.14-15.035-15.040-24.14-34.875-24.14-51.269v-69.755l196.119-294.181h41.831v52.458h163.935v-52.458h378.448v52.458h163.935v-52.458h59.62l196.119 294.181v69.755c0 16.394-9.106 36.229-24.14 51.269-15.040 15.035-34.875 24.14-51.269 24.14h-1049.187zM-0.005 532.020v-505.822c0-16.394 9.106-36.229 24.14-51.269 15.040-15.035 34.875-24.14 51.269-24.14h1049.187c16.394 0 36.229 9.106 51.269 24.14 15.035 15.040 24.14 34.875 24.14 51.269v505.822l-164.539-246.804h-91.2v-135.043h-163.935v135.043h-378.448v-135.043h-163.935v135.043h-73.409l-164.539 246.804zM296.96 337.675v-128.486h45.902v128.486h-45.902zM839.342 337.675v-128.486h45.902v128.486h-45.902z" />
<glyph unicode="&#xf001;" glyph-name="t-weapon1" horiz-adv-x="1316" d="M1201.842 904.32c0.006 0.3 0.009 0.653 0.009 1.007 0 27.555-20.322 50.364-46.796 54.257l-0.298 0.036c-1.691 0.189-3.652 0.296-5.638 0.296-29.701 0-53.779-24.078-53.779-53.779 0-0.345 0.003-0.689 0.010-1.032l-0.001 0.051v-18.332h-1022.174c-40.387 0-73.132-32.718-73.175-73.095v-256.879c0-40.414 32.762-73.175 73.175-73.175v0h22.82c40.295-0.045 72.944-32.722 72.944-73.023 0-6.322-0.803-12.456-2.314-18.306l0.111 0.507-91.279-366.029c-1.371-5.314-2.159-11.414-2.159-17.699 0-17.047 5.793-32.741 15.518-45.22l-0.123 0.164c13.358-17.146 34.009-28.069 57.211-28.069 0.104 0 0.207 0 0.311 0.001h218.902c0.042 0 0.092 0 0.141 0 33.625 0 61.87 23.039 69.808 54.193l0.108 0.499 58.647 234.359h238.467c55.823 0.054 103.36 35.472 121.419 85.055l0.286 0.899 61.842 172.67h68.459c20.986 0.048 39.968 8.587 53.701 22.361l0.002 0.002 53.931 53.703h151.143c40.283 0.173 72.871 32.868 72.871 73.175 0 0 0 0 0 0.001v0 180.809c-0.043 40.381-32.788 73.099-73.175 73.099 0 0 0 0 0 0h-40.923zM732.287 339.15h-208.649l36.131 144.525h237.174l-47.465-132.203c-2.565-7.038-9.181-11.98-16.958-12.018h-0.005z" />
<glyph unicode="&#xf002;" glyph-name="t-weapon2" d="M845.047 960c-0.021 0-0.046 0-0.071 0-26.157 0-49.831-10.63-66.938-27.807l-319.934-319.934c-20.796-20.733-39.353-43.691-55.29-68.492l-0.972-1.617-148.456-235.391c-15.608-24.407-32.699-45.621-51.83-64.8l0.008 0.008-75.951-75.542 104.17-104.17 75.951 75.951c19.148 19.172 40.367 36.268 63.294 50.926l1.498 0.896 235.216 148.456c26.412 16.926 49.368 35.482 70.103 56.256l319.878 319.703c17.211 17.133 27.862 40.843 27.862 67.042s-10.651 49.909-27.859 67.038l-83.609 83.667c-17.128 17.18-40.817 27.81-66.99 27.81-0.029 0-0.057 0-0.086 0h0.004zM14.314 149.19c-8.852-8.797-14.331-20.979-14.331-34.441s5.479-25.644 14.329-34.439l129.996-129.996c8.821-8.799 20.996-14.24 34.441-14.24 26.934 0 48.769 21.835 48.769 48.769 0 13.489-5.476 25.699-14.327 34.528l-129.819 129.819c-8.787 8.849-20.96 14.326-34.412 14.326s-25.624-5.477-34.409-14.323l-0.003-0.003z" />
<glyph unicode="&#xf003;" glyph-name="t-weapon3" horiz-adv-x="923" d="M911.246 839.649l-198.4-198.244c1.684-6.008 2.651-12.908 2.651-20.033 0-21.277-8.629-40.539-22.579-54.477l-186.329-186.277 36.423-18.263 95.48 95.48c6.995 6.941 16.629 11.23 27.265 11.23s20.271-4.289 27.267-11.233l27.263-27.263c6.944-7.003 11.235-16.646 11.235-27.291s-4.291-20.288-11.238-27.294l-144.023-144.023c-6.904-6.963-16.474-11.275-27.050-11.275-6.307 0-12.255 1.533-17.493 4.246l0.212-0.1-120.611 60.306-45.528-45.476 81.691-81.847c6.941-6.995 11.23-16.629 11.23-27.265s-4.289-20.271-11.233-27.267l0.002 0.002-27.317-27.265c-6.983-6.966-16.621-11.273-27.265-11.273s-20.282 4.307-27.266 11.274l0.001-0.001-74.823 74.979-117.802-196.215c-6.853-11.327-19.105-18.781-33.099-18.781-10.645 0-20.282 4.314-27.259 11.289l-101.411 101.411c-6.944 7.003-11.235 16.646-11.235 27.291s4.291 20.288 11.238 27.294l163.639 163.639-27.265 27.057c-14.044 13.954-22.737 33.279-22.737 54.634s8.693 40.681 22.733 54.63l245.441 245.493c13.959 14.032 33.283 22.715 54.634 22.715s40.675-8.684 54.631-22.712l0.003-0.003 54.426 54.53c13.909 13.964 33.153 22.604 54.415 22.604 7.149 0 14.069-0.977 20.635-2.804l-0.54 0.128 170.927 170.979c-6.978 6.978-11.294 16.617-11.294 27.265 0 21.295 17.263 38.559 38.559 38.559 10.648 0 20.287-4.316 27.265-11.294l54.53-54.53c6.966-6.983 11.273-16.621 11.273-27.265s-4.307-20.282-11.274-27.266l0.001 0.001z" />
<glyph unicode="&#xf004;" glyph-name="t-weapon4" horiz-adv-x="1517" d="M927.168 663.765v-42.117c0-41.819 0-83.563 0-125.307 0.080-0.475 0.125-1.023 0.125-1.581 0-4.917-3.526-9.010-8.188-9.889l-0.063-0.010c-51.36-17.741-102.497-36.228-154.006-53.522-4.323-1.059-9.286-1.666-14.391-1.666-3.791 0-7.504 0.335-11.11 0.977l0.381-0.056q-70.816 6.709-141.632 14.238c-6.485 0.671-8.722-1.864-10.883-7.454-18.785-47.633-37.942-95.117-56.951-142.676-12.225-30.488-31.159-43.384-64.033-43.384-67.685 0-135.445 0-203.13 0-0.432 0.055-0.931 0.087-1.438 0.087-5.231 0-9.676-3.368-11.284-8.054l-0.025-0.084c-28.028-58.815-56.355-117.48-84.532-176.146-14.909-30.786-43.906-41.371-75.289-27.134-18.71 8.498-37.272 17.294-55.833 26.090-33.395 15.729-43.757 44.726-27.73 78.643q52.478 110.324 105.106 220.275c22.363 47.335 7.454 91.763-39.135 115.766-22.363 11.331-31.085 30.935-32.128 54.342-1.044 22.363 0 44.279 0 66.418v235.407c-0.298 39.657 24.077 65.151 63.362 63.436 19.232-0.82 30.414 4.324 36.303 22.959 5.007 12.026 9.827 21.826 15.155 31.303l-0.768-1.486c1.407 4.069 5.205 6.939 9.674 6.939 0.453 0 0.899-0.029 1.336-0.087l-0.052 0.005q81.998 0 163.25 0c0.309 0.036 0.668 0.056 1.031 0.056 4.169 0 7.713-2.674 9.012-6.4l0.020-0.067c7.454-14.909 14.909-29.817 22.363-44.726 1.656-4.435 5.856-7.536 10.781-7.536 0.483 0 0.958 0.030 1.425 0.088l-0.056-0.006q478.94 0 957.806 0h8.796v57.92h117.927v-117.182h59.113v-117.704h-58.367v-59.635h-11.48c-33.246 0-66.418 0-99.664 0-6.94-0.175-13.452-1.834-19.287-4.669l0.278 0.122c-16.698-7.827-21.767-21.319-14.909-38.464 5.516-13.79 13.79-26.761 17.219-40.999 4.563-18.035 7.758-39.113 8.91-60.733l0.036-0.84c1.491-28.774 0.522-57.622 0-86.396 0-38.539-25.27-63.138-63.958-63.213-17.443 0-34.812 0-52.18 0-0.472-0.013-1.027-0.021-1.585-0.021-32.935 0-59.635 26.699-59.635 59.635 0 0.532 0.007 1.062 0.021 1.59l-0.002-0.078c0 37.272 0 74.021 1.193 111.069 1.197 22.772 7.291 43.87 17.24 62.609l-0.394-0.813c2.534 5.069 5.069 10.138 7.454 15.356 10.138 23.556-3.056 45.62-28.774 45.844-76.258 0.522-152.515 0-228.773 0-1.396-0.266-2.62-0.627-3.792-1.092l0.14 0.049zM789.189 349.417l166.306 58.442c10.511-31.83 4.994-10.809 16.027-41.297 41.426-112.581 94.837-210.022 160.372-297.89l-2.191 3.072c22.363-29.817 19.903-48.9-8.871-73.201-20.574-17.369-40.999-34.812-61.796-52.18-7.385-6.649-17.209-10.716-27.983-10.716-14.014 0-26.421 6.881-34.027 17.45l-0.085 0.124c-101.602 134.178-161.162 230.040-207.305 392.172-0.261 1.199-0.422 2.586-0.447 4.006v0.019z" />
<glyph unicode="&#xf005;" glyph-name="t-weapon5" horiz-adv-x="1134" d="M523.938 530.863c89.027-89.027 176.883-176.336 264.115-264.115 21.925-22.081 21.613-34.019-0.702-57.036-79.351-81.77-167.208-152.929-268.796-204.972-81.28-43.311-177.75-68.746-280.16-68.746-24.673 0-49.001 1.476-72.9 4.345l2.885-0.282c-52.375 6.534-98.862 15.998-144.023 28.635l6.855-1.638c-35.735 9.363-40.417 32.224-14.279 58.519q249.68 250.85 500.14 501.077c1.993 1.526 4.244 2.928 6.626 4.106l0.24 0.108zM568.568 585.090c17.087 14.669 32.614 26.138 46.035 39.637q150.666 150.822 300.708 302.269c43.616 43.85 76.855 43.928 120.315 0.78 24.968-24.812 50.248-49.468 74.67-74.904 31.21-32.927 31.756-72.485 0-105.1-58.363-59.455-117.037-118.598-176.883-176.727-17.634-17.087-26.763-35.189-23.407-59.377 0-2.107 0-4.291 0-6.398 4.838-100.964-33.005-109.235-95.425-143.956-12.094-6.788-19.428-2.263-27.777 6.086-70.769 70.379-141.069 140.523-218.236 217.69zM990.917 767.59c17.898 0.371 32.265 14.968 32.265 32.92 0 18.185-14.742 32.927-32.927 32.927-17.634 0-32.030-13.862-32.886-31.283l-0.003-0.077c-0.041-0.613-0.065-1.328-0.065-2.049 0-17.926 14.532-32.458 32.458-32.458 0.407 0 0.812 0.007 1.215 0.022l-0.058-0.002zM864.517 705.17c-0.56 0.034-1.214 0.053-1.873 0.053-18.15 0-32.863-14.713-32.863-32.863 0-17.491 13.665-31.79 30.901-32.805l0.090-0.004c1.175-0.149 2.536-0.234 3.915-0.234 18.185 0 32.927 14.742 32.927 32.927s-14.742 32.927-32.927 32.927c-0.060 0-0.12 0-0.179 0h0.009z" />
<glyph unicode="&#xf006;" glyph-name="t-weapon6" horiz-adv-x="1473" d="M867.238 563.974c-90.912-89.314-133.887-130.187-217.398-213.193q-188.216-187.122-375.506-375.254c-45.246-45.246-74.512-50.46-129.598-21.109-60.302 31.342-107.234 81.398-133.833 142.361l-0.727 1.87c-15.558 36.583-14.97 68.71 16.82 99.911 212.352 210.25 382.234 380.804 593.913 591.979 1.261 1.261 3.784 1.346 8.41 3.028 35.070-113.871 106.807-193.009 237.919-229.593zM1166.465 776.242c-58.87 78.465-131.869 51.806-205.372 31.033l-49.955 61.141c87.8 46.928 174.675 49.535 266.26 30.444 1.354-0.289 2.91-0.455 4.505-0.455 11.153 0 20.414 8.101 22.22 18.74l0.019 0.133 3.869 23.716c1.673 10.94 11.016 19.223 22.294 19.223 5.48 0 10.504-1.956 14.41-5.208l-0.036 0.030 39.191-31.369c3.848-3.068 8.782-4.923 14.148-4.923 4.551 0 8.79 1.334 12.349 3.632l-0.090-0.054 46.423 30.108c3.465 2.281 7.713 3.638 12.279 3.638 12.448 0 22.539-10.091 22.539-22.539 0-0.008 0-0.015 0-0.023v0.001-52.478c0.018-9.999 6.544-18.469 15.567-21.401l0.159-0.045 49.787-15.895c9.185-2.987 15.706-11.471 15.706-21.478 0-7.070-3.255-13.379-8.348-17.511l-0.042-0.033-41.041-33.64c-5.147-4.181-8.408-10.509-8.408-17.599 0-3.085 0.617-6.026 1.736-8.705l-0.055 0.15 20.604-49.619c1-2.461 1.58-5.315 1.58-8.305 0-12.494-10.129-22.623-22.623-22.623-1.33 0-2.634 0.115-3.901 0.335l0.135-0.019c-18.586 3.028-36.583 11.185-56.683 14.129-0.852 0.115-1.836 0.181-2.836 0.181-8.498 0-15.885-4.756-19.645-11.752l-0.058-0.119-23.968-44.321c-3.886-7.108-11.311-11.849-19.843-11.849-8.864 0-16.533 5.117-20.214 12.558l-0.059 0.132-22.371 45.834c-3.561 7.854-11.333 13.219-20.358 13.219-1.006 0-1.996-0.067-2.967-0.196l0.114 0.012-52.899-6.896c-0.899-0.127-1.937-0.2-2.993-0.2-12.448 0-22.539 10.091-22.539 22.539 0 3.56 0.825 6.926 2.295 9.92l-0.059-0.133 21.698 44.741c1.397 2.879 2.213 6.261 2.213 9.835 0 5.278-1.781 10.141-4.776 14.019l0.040-0.053zM889.777 627.469c-10.116 2.447-18.345 4.957-26.382 7.868l1.741-0.551c-80.484 30.865-135.653 87.212-167.695 166.686-9.671 23.884-12.531 48.105 5.13 69.13s45.414 19.763 68.037 11.69c80.516-28.187 143.225-89.383 172.846-166.929l0.652-1.943c3.234-9.186 5.103-19.778 5.103-30.806 0-1.825-0.051-3.639-0.152-5.439l0.011 0.25c-0.505-33.976-20.268-51.469-59.29-49.955z" />
<glyph unicode="&#xf007;" glyph-name="t-armor1" horiz-adv-x="1490" d="M91.701 119.403h1306.746c50.645 0 91.701-41.056 91.701-91.701s-41.056-91.701-91.701-91.701h-1306.746c-50.645 0-91.701 41.056-91.701 91.701s41.056 91.701 91.701 91.701zM502.448 960h489.075c115.007 0 208.239-93.232 208.239-208.239v0-525.373h-905.552v525.373c0 115.007 93.232 208.239 208.239 208.239v0z" />
<glyph unicode="&#xf008;" glyph-name="t-armor2" horiz-adv-x="1147" d="M487.363 946.243l-53.464 12.506c-3.682 0.886-7.91 1.394-12.256 1.394-30.149 0-54.589-24.44-54.589-54.589 0-0.050 0-0.101 0-0.151v0.008-25.012c0-0.015 0-0.034 0-0.052 0-20.091-10.879-37.642-27.067-47.082l-0.259-0.139-161.329-92.795c-11.289-6.618-19.854-16.844-24.205-29.069l-0.119-0.383-151.074-437.026c-1.869-5.277-2.949-11.363-2.949-17.701 0-23.232 14.513-43.075 34.967-50.956l0.373-0.126 50.712-18.759c5.675-2.182 12.24-3.447 19.101-3.447 22.699 0 42.166 13.838 50.424 33.539l0.134 0.36 60.592 148.197c3.556 8.441 11.76 14.258 21.323 14.258 12.7 0 23.003-10.26 23.073-22.943v-365.498c0-30.114 24.412-54.527 54.527-54.527 0.022 0 0.044 0 0.066 0h159.887c30.053 0.036 54.402 24.406 54.402 54.464 0 0.022 0 0.044 0 0.066v-0.003 902.316c0 0.006 0 0.013 0 0.020 0 25.768-17.874 47.361-41.9 53.057l-0.37 0.074zM1143.871 273.852l-151.074 437.026c-4.47 12.608-13.035 22.833-24.067 29.312l-0.258 0.14-161.391 92.858c-16.435 9.616-27.304 27.173-27.326 47.27v25.015c-0.008 30.108-24.417 54.513-54.527 54.513-4.391 0-8.662-0.519-12.752-1.499l0.371 0.075-53.464-12.506c-24.417-5.768-42.311-27.367-42.333-53.149v-902.13c0-30.114 24.412-54.527 54.527-54.527 0.022 0 0.044 0 0.066 0h160.012c30.053 0.036 54.402 24.406 54.402 54.464 0 0.022 0 0.044 0 0.066v-0.003 365.491c0.070 12.69 10.374 22.95 23.073 22.95 9.563 0 17.767-5.817 21.266-14.106l0.057-0.152 60.655-148.573c8.392-20.061 27.859-33.899 50.558-33.899 6.861 0 13.426 1.264 19.476 3.572l-0.375-0.126 50.712 18.759c20.882 8.002 35.439 27.883 35.439 51.163 0 6.448-1.116 12.634-3.167 18.377l0.119-0.382z" />
<glyph unicode="&#xf009;" glyph-name="t-armor3" horiz-adv-x="893" d="M615.784 960h-556.973c-32.464-0.039-58.771-26.346-58.811-58.807v-906.382c0.039-32.464 26.346-58.771 58.807-58.811h269.842c32.464 0.039 58.771 26.346 58.811 58.807v491.247c0.039 32.464 26.346 58.771 58.807 58.811h0.004c32.464-0.039 58.771-26.346 58.811-58.807v-491.247c0.039-32.464 26.346-58.771 58.807-58.811h269.842c32.464 0.039 58.771 26.346 58.811 58.807v906.382c-0.039 32.464-26.346 58.771-58.807 58.811h-0.004z" />
<glyph unicode="&#xf010;" glyph-name="t-armor4" horiz-adv-x="861" d="M808.615 850.697c-27.821-0.984-50.001-23.774-50.001-51.745 0-0.334 0.003-0.668 0.009-1.001l-0.001 0.050v-214.58h-37.796c0.506 2.781 0.799 5.985 0.805 9.256v290.926c0 27.197-22.047 49.244-49.244 49.244v0c-0.034 0-0.075 0-0.115 0-31.327 0-56.723-25.396-56.723-56.723 0 0 0 0 0 0v0-283.498c0.038-3.3 0.33-6.502 0.856-9.624l-0.050 0.362h-35.322c0 1.323 0 2.704 0 4.027v315.887c0 0.017 0 0.037 0 0.058 0 31.295-25.37 56.665-56.665 56.665h-2.359c-28.118 0-50.912-22.794-50.912-50.912 0-0.020 0-0.040 0-0.061v0.003-321.64c0-1.323 0-2.704 0-4.027h-37.163c0 1.323 0 2.704 0 4.027v282.866c0 0.068 0.001 0.149 0.001 0.23 0 27.136-21.949 49.146-49.063 49.244h-0.009c-31.295 0-56.665-25.37-56.665-56.665 0-0.020 0-0.040 0-0.061v0.003-275.617c0-1.323 0-2.704 0-4.027v0l-3.624-97.395c-0.894-21.532-18.567-38.649-40.237-38.649-5.641 0-11.011 1.16-15.885 3.254l0.262-0.1-151.932 64.547c-9.668 4.207-20.93 6.654-32.764 6.654-46.387 0-83.991-37.604-83.991-83.991 0-25.372 11.25-48.117 29.034-63.518l0.105-0.089 205.836-177.187c39.838-34.372 89.057-58.958 143.299-69.465l1.959-0.316v-130.129c0-33.654 19.157-60.98 42.743-60.98h340.164c23.644 0 42.801 27.326 42.801 60.98v129.381c31.381 11.42 53.405 40.95 53.501 75.638v362.439c0.659 3.229 1.036 6.94 1.036 10.74 0 0.047 0 0.093 0 0.14v-0.007 218.607c0 31.64-20.020 57.24-51.89 56.78z" />
<glyph unicode="&#xf011;" glyph-name="t-armor5" horiz-adv-x="1371" d="M1290.54 138.227l-831.369 67.629c-0.689 0.044-1.494 0.070-2.305 0.070-12.964 0-24.41-6.495-31.264-16.408l-0.083-0.127-30.109-41.195c-6.884-9.853-18.081-16.282-30.792-16.53l-0.038-0.001h-324.243c-22.303 0-40.342 20.925-40.342 46.704v118.664c0 27.223 20.007 48.673 43.491 46.573l1327.474-118.599c0-50.444-36.93-90.392-80.421-86.784zM1340.983 420.947l-253.334 78.191c-47 14.654-86.984 31.186-125.138 50.78l4.375-2.041-39.751-50.116c-5.886-8.060-15.302-13.237-25.927-13.237-9.501 0-18.035 4.139-23.898 10.713l-0.028 0.031c-7.083 7.987-11.408 18.559-11.408 30.141 0 10.419 3.5 20.020 9.388 27.692l-0.079-0.108 25.452 32.077-41.785 25.713-52.477-66.384c-5.888-8.039-15.291-13.201-25.902-13.201-9.515 0-18.060 4.151-23.923 10.741l-0.029 0.032c-7.126 7.981-11.481 18.57-11.481 30.174 0 10.409 3.503 19.999 9.396 27.657l-0.079-0.107 40.276 50.771-44.736 27.485-65.006-81.995c-5.901-8.039-15.314-13.198-25.933-13.198-9.492 0-18.021 4.123-23.893 10.675l-0.026 0.030c-7.103 7.993-11.443 18.58-11.443 30.181 0 10.401 3.488 19.987 9.358 27.653l-0.080-0.11 52.477 66.384-67.040 41.326c-5.392 3.413-11.955 5.438-18.992 5.438-9.866 0-18.801-3.981-25.288-10.425l0.002 0.002c-51.676-49.395-117.757-84.127-191.319-97.273l-2.257-0.334h-0.591c-16.919-2.911-36.406-4.575-56.281-4.575-51.911 0-101.169 11.351-145.43 31.707l2.167-0.894-59.037 26.239c-21.975 9.774-46.508-4.198-53.199-30.371l-53.92-211.352c-7.281-28.469 9.971-57.528 35.619-59.824l1321.178-118.073v86.652c0.029 0.612 0.046 1.329 0.046 2.051 0 19.653-12.347 36.423-29.708 42.974l-0.316 0.105z" />
<glyph unicode="&#xf012;" glyph-name="t-armor6" horiz-adv-x="960" d="M925.63 555.421l-21.603 78.485c-16.988 59.275-26.757 127.356-26.757 197.72 0 7.81 0.12 15.591 0.359 23.343l-0.028-1.133c1.916 58.071-40.498 106.166-93.349 106.166h-64.677c-0.183 0.001-0.399 0.002-0.616 0.002-11.959 0-23.351-2.43-33.709-6.822l0.566 0.213-77.031-33.032c-37.935-16.509-82.127-26.113-128.562-26.113s-90.626 9.604-130.697 26.935l2.135-0.822-77.097 33.032c-9.759 4.179-21.115 6.609-33.038 6.609-0.23 0-0.46-0.001-0.69-0.003h-64.642c-52.852 0-95.265-48.095-93.481-106.166v0c0.211-6.617 0.332-14.399 0.332-22.209 0-70.363-9.769-138.444-28.025-202.961l1.268 5.241-21.471-78.485c-22.1-77.244-34.811-165.963-34.816-257.649v-202.556c0-56.749 49.416-88.593 93.547-102.73l277.009-49.35c24.293-4.539 52.243-7.135 80.799-7.135 0.022 0 0.045 0 0.067 0h57.605c0.019 0 0.041 0 0.064 0 28.556 0 56.505 2.596 83.625 7.565l-2.826-0.43 277.009 49.35c51.2 14.138 93.547 46.245 93.547 102.73v202.29c0 0.063 0 0.138 0 0.213 0 91.705-12.711 180.442-36.467 264.543l1.651-6.84zM681.191 487.176h-395.198c-40.825 1.751-73.259 35.273-73.259 76.371s32.434 74.619 73.102 76.365l0.158 0.005h395.528c40.825-1.751 73.259-35.273 73.259-76.371s-32.434-74.619-73.102-76.365l-0.158-0.005z" />
<glyph unicode="&#xf013;" glyph-name="t-magic1" horiz-adv-x="1022" d="M830.435 162.199c116.774 82.209 191.634 208.2 191.634 349.762 0 247.437-228.753 448.039-511.066 448.039s-511.004-200.602-511.004-448.039c0-141.375 74.735-267.802 191.634-349.762v-130.164c0-53.004 42.968-95.973 95.973-95.973v0h92.298v94.976c-0.004 0.191-0.006 0.417-0.006 0.643 0 16.142 11.787 29.53 27.223 32.029l0.186 0.025c1.103 0.136 2.38 0.214 3.676 0.214 17.508 0 31.7-14.193 31.7-31.7 0-0.097 0-0.194-0.001-0.291v0.015-95.973h130.787v95.039c-0.003 0.175-0.005 0.382-0.005 0.59 0 16.154 11.781 29.555 27.22 32.082l0.188 0.025c1.103 0.136 2.38 0.213 3.675 0.213 17.542 0 31.763-14.221 31.763-31.763 0-0.075 0-0.15-0.001-0.225v0.012-95.973h97.717c0.129-0.001 0.283-0.001 0.436-0.001 53.004 0 95.973 42.968 95.973 95.973 0 0.022 0 0.045 0 0.067v-0.004 130.164zM189.33 446.318c0 0.074 0 0.161 0 0.249 0 70.718 57.328 128.047 128.047 128.047s128.047-57.328 128.047-128.047c0-70.631-57.186-127.905-127.784-128.046h-0.014c-0.074 0-0.162 0-0.249 0-70.631 0-127.905 57.187-128.046 127.784v0.014zM701.392 574.303c70.718 0 128.047-57.328 128.047-128.047s-57.328-128.047-128.047-128.047c-70.718 0-128.047 57.328-128.047 128.047 0 0.022 0 0.044 0 0.066v-0.003c0 70.684 57.301 127.984 127.984 127.984 0.022 0 0.044 0 0.066 0h-0.003z" />
<glyph unicode="&#xf014;" glyph-name="t-magic2" horiz-adv-x="900" d="M877.985 153.379l-235.394 377.679v302.522h14.791c26.644 0.036 48.229 21.643 48.229 48.292 0 0 0 0 0 0v0 29.835c0 26.649-21.585 48.256-48.226 48.292h-415.292c-26.671 0-48.292-21.621-48.292-48.292v-29.835c0-26.671 21.621-48.292 48.292-48.292v0h14.918v-302.522l-235.33-377.679c-13.449-21.331-21.43-47.28-21.43-75.093 0-78.516 63.596-142.178 142.087-142.285h614.916c78.528 0.071 142.16 63.747 142.16 142.285 0 27.813-7.98 53.763-21.776 75.683l0.347-0.59zM276.796 321.58l95.194 155.18c7.159 10.167 11.442 22.808 11.442 36.45 0 0.119 0 0.238-0.001 0.357v-0.018 320.032h126.42v-320.032c0.015-13.761 4.317-26.514 11.643-36.998l-0.139 0.21 95.194-155.18z" />
<glyph unicode="&#xf015;" glyph-name="t-magic3" horiz-adv-x="897" d="M0 768.305c0 105.87 85.825 191.695 191.695 191.695v0h639.184c0.016 0 0.036 0 0.055 0 35.28 0 63.88-28.6 63.88-63.88v0-639.074c0.004-0.262 0.006-0.572 0.006-0.883 0-34.527-27.774-62.567-62.199-62.997h-0.041v-129.187c0.022 0 0.047 0 0.073 0 35.371 0 64.045-28.674 64.045-64.045 0-3.996-0.366-7.906-1.066-11.699l0.060 0.394c-5.928-30.211-32.196-52.689-63.714-52.689-0.27 0-0.541 0.002-0.81 0.005h-639.472c-105.87 0-191.695 85.825-191.695 191.695 0 0.019 0 0.039 0 0.058v-0.003zM187.414 65.187h515.869v129.187h-516.692c-35.497-0.233-64.183-29.063-64.183-64.593 0-35.675 28.92-64.595 64.595-64.595 0.145 0 0.289 0 0.434 0.001h-0.022zM642.915 736.969c0 70.466-71.344 127.815-159.535 127.815s-159.59-57.349-159.59-127.815c0-41.763 25.135-78.807 63.825-102.241v-25.574c0.062-17.615 14.325-31.878 31.934-31.94h127.492c17.615 0.062 31.878 14.325 31.94 31.934v25.58c38.69 23.434 63.825 60.477 63.825 102.241zM417.909 767.043c17.616-0.031 31.885-14.319 31.885-31.94 0-17.64-14.3-31.94-31.94-31.94-17.601 0-31.877 14.237-31.94 31.824v0.006c0 0.033 0 0.071 0 0.11 0 17.64 14.3 31.94 31.94 31.94 0 0 0 0 0 0v0zM513.674 734.993c0 0.016 0 0.036 0 0.055 0 17.67 14.325 31.995 31.995 31.995s31.995-14.325 31.995-31.995c0-17.67-14.325-31.995-31.995-31.995v0c-0.016 0-0.036 0-0.055 0-17.64 0-31.94 14.3-31.94 31.94 0 0 0 0 0 0v0zM270.667 540.774c-3.706 1.63-8.026 2.579-12.567 2.579-17.625 0-31.912-14.287-31.912-31.912 0-13.083 7.873-24.327 19.139-29.253l0.205-0.080 155.090-66.514-155.090-66.514c-10.565-5.357-17.679-16.137-17.679-28.58 0-17.64 14.3-31.94 31.94-31.94 3.901 0 7.639 0.699 11.095 1.98l-0.221-0.072 211.067 90.497 211.122-90.497c3.81-1.733 8.263-2.744 12.952-2.744 17.64 0 31.94 14.3 31.94 31.94 0 13.245-8.062 24.607-19.547 29.447l-0.21 0.079-155.145 66.404 155.145 66.514c11.472 5.006 19.345 16.25 19.345 29.333 0 17.625-14.287 31.912-31.912 31.912-4.542 0-8.862-0.949-12.773-2.659l0.205 0.080-211.122-90.442z" />
<glyph unicode="&#xf016;" glyph-name="t-mount1" horiz-adv-x="1454" d="M638.676 953.312c-0.275 0.005-0.599 0.008-0.924 0.008-29.961 0-54.25-24.289-54.25-54.25 0-0.874 0.021-1.743 0.062-2.607l-0.005 0.122c2.408-28.469 26.109-50.663 54.994-50.663 0.261 0 0.522 0.002 0.782 0.005h131.932l37.715-67.751-225.484-182.691-104.165 101.316c-26.837 25.867-63.402 41.803-103.689 41.803-0.167 0-0.335 0-0.502-0.001h-233.571c-0.074 0-0.161 0-0.248 0-40.427 0-73.2-32.773-73.2-73.2 0 0 0 0 0 0v0-74.315h211.674c205.543 0 375.291-167.581 369.903-373.062-0.567-22.677-3.133-44.402-7.532-65.453l0.41 2.347h161.883c-4.643 21.85-7.302 46.955-7.302 72.681 0 118.743 56.642 224.256 144.381 290.994l0.898 0.655 35.114-65.211c-65.815-53.97-107.479-135.288-107.479-226.337 0-161.299 130.759-292.058 292.058-292.058s292.058 130.759 292.058 292.058c0 161.299-130.759 292.058-292.058 292.058-31.578 0-61.985-5.012-90.47-14.283l2.066 0.582-125.593 232.544h140.951c0 0 0 0 0 0 40.213 0 72.82 32.564 72.891 72.76v74.818s-30.221 73.2-70.661 73.82h-46.695c-17.903-0.543-34.184-7.068-47.014-17.633l0.133 0.107-108.376-90.355-32.017 59.452c-16.040 29.478-46.88 47.995-80.508 41.74zM1051.744 320.89l64.468-119.4c9.464-17.259 27.51-28.765 48.243-28.765 30.286 0 54.837 24.552 54.837 54.837 0 9.553-2.443 18.535-6.738 26.357l0.143-0.285-64.468 119.4c4.475 0.556 9.655 0.874 14.909 0.874 0.463 0 0.925-0.002 1.386-0.007l-0.070 0.001c0.002 0 0.004 0 0.005 0 80.821 0 146.339-65.518 146.339-146.339s-65.518-146.339-146.339-146.339c-80.821 0-146.339 65.518-146.339 146.339 0 35.583 12.7 68.199 33.814 93.564l-0.192-0.237zM418.889 175.047c-21.811-52.9-72.975-89.457-132.678-89.457-79.042 0-143.118 64.076-143.118 143.118s64.076 143.118 143.118 143.118c59.702 0 110.867-36.556 132.33-88.506l0.348-0.95h148.63c-26.122 133.105-141.855 232.142-280.721 232.142-157.845 0-285.803-127.959-285.803-285.803s127.959-285.803 285.803-285.803c138.865 0 254.599 99.036 280.424 230.33l0.297 1.811zM286.299 154.363c0.018 0 0.040 0 0.062 0 40.427 0 73.2 32.773 73.2 73.2s-32.773 73.2-73.2 73.2c-40.427 0-73.2-32.773-73.2-73.2v0c0-40.406 32.738-73.165 73.135-73.2h0.003z" />
<glyph unicode="&#xf017;" glyph-name="t-mount2" horiz-adv-x="1168" d="M309.279 761.947l-59.393-169.932h669.188l-59.45 169.932c-10.267 28.612-37.147 48.714-68.725 48.74h-412.891c-31.582-0.026-58.462-20.128-68.569-48.232l-0.16-0.508zM90.321 583.31l80.183 229.726c30.732 86.271 111.685 146.924 206.811 146.965h413.351c95.085-0.092 175.982-60.73 206.225-145.434l0.477-1.53 80.183-229.726c53.473-22.628 90.311-74.651 90.321-135.28v-438.776c0-40.33-32.694-73.024-73.024-73.024v0h-72.509c-40.33 0-73.024 32.694-73.024 73.024v0 108.076h-730.643v-108.076c0-40.33-32.694-73.024-73.024-73.024v0h-72.623c-40.33 0-73.024 32.694-73.024 73.024v0 438.775c0.010 60.63 36.848 112.653 89.361 134.919l0.96 0.362zM292.441 374.088c0 0.085 0.001 0.186 0.001 0.286 0 40.33-32.694 73.024-73.024 73.024s-73.024-32.694-73.024-73.024c0-40.33 32.694-73.024 73.024-73.024v0c0 0 0 0 0.001 0 40.23 0 72.861 32.531 73.024 72.722v0.015zM949.544 301.35c40.231 0.131 72.795 32.774 72.795 73.024 0 40.33-32.694 73.024-73.024 73.024s-73.024-32.694-73.024-73.024c0-0.101 0-0.201 0.001-0.302v0.016c0.13-40.2 32.748-72.738 72.967-72.738 0.101 0 0.202 0 0.302 0.001h-0.016z" />
<glyph unicode="&#xf018;" glyph-name="t-mount3" horiz-adv-x="1517" d="M583.343 542.58c0.506 0.043 0.899 0.464 0.899 0.977 0 0.202-0.061 0.39-0.166 0.546l0.002-0.004c-16.422 24.167-31.226 45.932-46.079 67.648-21.226 31.079-42.648 62.059-63.726 93.139-26.079 38.628-9.804 75.050 36.716 79.511 92.795 8.97 185.738 16.667 278.631 24.854 55.981 4.902 112.011 9.314 167.894 15 2.271 0.311 4.896 0.488 7.562 0.488 17.875 0 33.888-7.972 44.677-20.556l0.066-0.079c62.059-65.883 124.756-131.276 186.718-197.11 5.599-6.868 14.058-11.218 23.535-11.218 1.468 0 2.912 0.104 4.324 0.306l-0.162-0.019c78.432 7.157 156.865 13.383 235.297 20.049 25.294 2.157 44.461-7.304 53.285-26.863s3.726-40.099-15.588-57.256c-26.079-23.137-52.158-46.226-79.021-68.628-6.49-5.354-14.649-8.907-23.592-9.789l-0.182-0.015c-92.55-5.638-185.149-10.539-277.7-15.54q-217.993-11.863-436.28-23.628c-25.589-1.422-41.52-18.137-39.952-40.589s19.608-36.324 46.716-34.903q302.209 16.079 604.37 32.059v0c0.082 0.003 0.179 0.005 0.275 0.005 4.196 0 7.598-3.402 7.598-7.598 0-2.314-1.035-4.387-2.667-5.78l-0.010-0.009c-18.039-15.294-34.853-29.020-49.951-44.412-25.981-26.52-50.54-38.873-91.815-29.412-69.069 16.177-137.747 3.137-201.865-29.412-32.985-17.003-71.986-26.971-113.315-26.971-40.401 0-78.578 9.525-112.406 26.453l1.453-0.659c-99.119 49.020-199.12 49.314-298.141 0.49-80.295-39.559-158.727-36.030-236.669 6.128-4.279 2.359-7.974 4.992-11.334 7.993l0.059-0.052q-81.373 72.354-162.747 144.462c-14.167 12.451-22.598 27.059-19.363 44.952 4.387 21.305 22.137 37.389 43.941 39.205l0.178 0.012c47.157 4.412 94.364 8.432 141.521 12.451q173.825 14.706 347.651 29.412zM592.412 698.758c-0.483-0.038-0.86-0.439-0.86-0.929 0-0.203 0.065-0.391 0.176-0.545l-0.002 0.003c31.373-46.177 60.932-89.217 89.854-132.649 3.997-7.451 11.732-12.433 20.631-12.433 1.37 0 2.713 0.118 4.019 0.344l-0.139-0.020c101.864 8.872 203.777 17.157 305.69 25.637 24.902 2.059 49.756 4.314 76.324 6.667-1.565 2.781-3.187 5.169-4.984 7.41l0.082-0.106c-41.765 44.118-83.334 88.236-125.737 131.766-4.454 3.461-10.125 5.549-16.283 5.549-1.016 0-2.019-0.057-3.005-0.168l0.121 0.011c-83.334-6.863-166.669-14.265-250.003-21.667-30.834-2.696-61.569-5.686-96.031-8.872zM1361.686 121.055v0c-0.021-25.65-20.819-46.435-46.471-46.435-2.631 0-5.211 0.219-7.723 0.639l0.272-0.038c-16.654 2.749-31.303 6.532-45.419 11.456l1.889-0.574c-21.716 7.402-42.549 17.304-63.726 26.667-66.373 29.412-133.482 31.471-198.728-0.49-63.726-31.226-129.511-46.716-200.395-38.775-38.695 3.897-74.053 14.876-105.891 31.639l1.576-0.756c-55.050 29.412-113.384 38.481-174.953 22.942-19.116-5.025-35.742-11.475-51.406-19.529l1.406 0.656c-61.030-30.245-125.001-43.53-192.453-34.314-31.359 3.988-59.825 11.611-86.591 22.538l2.277-0.822c-33.039 13.726-65.050 30-100.394 36.128-20.946 3.981-36.569 22.146-36.569 43.96 0 0.056 0 0.111 0 0.167v-0.009 2.353c0.171 24.723 20.252 44.699 45 44.699 2.545 0 5.041-0.211 7.47-0.617l-0.263 0.036c29.127-4.913 55.157-12.805 79.658-23.539l-2.158 0.843c28.383-11.814 56.766-25.441 86.521-31.716 47.991-10.098 96.423-6.568 141.227 16.373 58.187 29.853 119.070 45.638 184.953 41.373 42.802-1.973 82.62-12.89 118.233-30.911l-1.663 0.763c46.030-23.873 94.217-37.843 145.933-30.49 29.141 3.707 55.614 11.447 80.132 22.71l-1.699-0.7c58.040 27.893 118.041 44.755 182.257 37.697 36.232-3.673 69.457-11.514 100.859-23.118l-2.818 0.912c33.726-12.696 65.687-30.392 101.717-36.52 21.689-3.935 37.924-22.667 37.942-45.195v-0.002z" />
<glyph unicode="&#xf019;" glyph-name="t-misc1" horiz-adv-x="1025" d="M117.261 898.054l-115.891-232.036h475.744v292.614h-261.532c-42.728-0.057-79.756-24.398-98.031-59.958l-0.289-0.62zM548.602 666.018h475.744l-115.891 232.036c-18.569 36.221-55.652 60.578-98.424 60.578-0.053 0-0.106 0-0.159 0h-261.271zM1026.376 594.339h-1021.264v-511.076c0-80.575 65.319-145.895 145.895-145.895v0h729.157c0.094 0 0.205 0 0.317 0 80.575 0 145.895 65.319 145.895 145.895 0 0 0 0 0 0v0z" />
<glyph unicode="&#xf020;" glyph-name="t-misc2" horiz-adv-x="1150" d="M262.056 937.978c10.832 13.472 27.312 22.022 45.79 22.022 0.001 0 0.002 0 0.002 0h536.353c17.671-0.031 33.326-8.634 43.032-21.872l0.105-0.15 251.499-341.269c6.541-8.851 10.47-19.979 10.47-32.024 0-13.926-5.251-26.626-13.882-36.228l0.044 0.050-520.679-574.761c-9.91-10.915-24.155-17.741-39.995-17.741s-30.085 6.826-39.955 17.696l-0.040 0.045-520.873 574.761c-8.63 9.528-13.912 22.228-13.912 36.161 0 12.062 3.958 23.199 10.646 32.184l-0.102-0.144 251.499 341.269zM348.458 848.662c-4.393-3.307-7.203-8.512-7.203-14.373 0-3.398 0.944-6.575 2.585-9.283l-0.045 0.080 129.020-214.839-330.323-27.397c-9.266-0.812-16.48-8.534-16.48-17.941s7.214-17.129 16.412-17.936l0.068-0.005 433.953-35.947 431.103 35.947c8.941 1.073 15.805 8.613 15.805 17.756 0 0.065 0 0.13-0.001 0.195v-0.010c0 0.002 0 0.005 0 0.008 0 9.374-7.164 17.075-16.315 17.928l-0.071 0.005-330.323 27.397 128.826 214.645c1.609 2.63 2.561 5.814 2.561 9.22 0 5.861-2.82 11.063-7.178 14.323l-0.047 0.033c-2.97 2.176-6.696 3.482-10.727 3.482-5.239 0-9.963-2.206-13.294-5.74l-0.009-0.009-202.015-218.855-202.274 219.114c-3.319 3.544-8.027 5.753-13.25 5.753-4.058 0-7.805-1.333-10.827-3.585l0.048 0.034z" />
<glyph unicode="&#xf021;" glyph-name="t-misc3" horiz-adv-x="827" d="M222.65 829.458c-57.754 16.734-70.067 32.653-64.489 80.815 3.741 32.244 19.251 48.911 52.312 49.115q203.059 1.224 406.253 0c32.176 0 49.047-17.619 51.224-46.598 4.014-52.448-4.762-69.183-43.537-77.006-15.034-2.993-20.408-8.503-20.408-24.217 0.816-57.006 1.020-114.080 0-171.086 0-17.755 9.66-24.285 22.177-32.381 132.787-85.577 204.555-205.916 200.337-365.777-1.46-100.54-39.76-191.862-101.967-261.33l0.335 0.381c-23.781-27.862-58.933-45.414-98.184-45.414-1.14 0-2.278 0.015-3.411 0.044l0.168-0.003q-210.882 0.544-422.307 0c-0.958-0.027-2.086-0.042-3.217-0.042-39.228 0-74.171 18.345-96.719 46.923l-0.198 0.261c-168.025 204.895-121.427 488.429 103.060 629.379 7.483 4.762 17.619 13.605 17.755 20.408 1.361 65.781 0.816 131.563 0.816 196.528zM127.413 288.376c18.095 6.803 29.727 10.816 40.816 15.306 112.924 44.081 223.534 43.741 332.785-13.061 21.767-11.385 47.008-20.341 73.59-25.558l1.783-0.292c41.292-7.891 83.468-11.36 129.25-17.279-2.993 75.645-16.054 140.678-66.802 188.025-39.863 37.278-86.802 67.346-132.583 97.754-16.462 10.816-25.646 18.571-25.238 40.272 1.633 75.713-0.816 151.495 1.429 227.14 0.816 28.435-8.707 36.734-34.829 33.061-4.395-0.309-9.524-0.485-14.694-0.485s-10.299 0.176-15.381 0.523l0.687-0.038c-68.775 0-68.775 0-68.775-67.482 0-65.033-0.476-130.066 0.34-195.099 0-17.279-6.19-25.306-21.36-34.557-43.741-26.802-88.434-54.013-126.665-87.482-45.782-40.136-63.877-96.189-74.625-160.746z" />
<glyph unicode="&#xf022;" glyph-name="t-misc4" horiz-adv-x="1094" d="M544.764 523.307h-410.746c-7.31 0-14.686 0-21.996 0-58.217 1.185-87.391 39.514-69.939 95.887 19.425 65.474 51.42 122.046 93.46 169.519l-0.405-0.466c90.948 100.299 202.508 156.475 339.028 168.131 98.784 8.495 195.988 3.622 288.253-31.743 142.711-54.463 240.046-156.343 288.121-302.346 19.757-59.798-9.878-98.784-72.969-98.784-144.291-0.395-288.517-0.198-432.808-0.198zM547.661 853.51c-23.445 0.395-39.909-15.213-39.909-37.604s16.596-37.933 40.041-37.472c20.732 0 37.538 16.806 37.538 37.538s-16.806 37.538-37.538 37.538v0zM252.361 705.070c0.935-0.083 2.022-0.13 3.12-0.13 20.732 0 37.538 16.806 37.538 37.538 0 20.601-16.596 37.327-37.148 37.536h-0.020c-23.511 1.251-40.699-13.501-41.687-35.694-0.062-0.8-0.098-1.732-0.098-2.673 0-20.223 16.394-36.616 36.616-36.616 0.59 0 1.177 0.014 1.761 0.042l-0.082-0.003zM839.932 780.081c-0.572 0.032-1.242 0.050-1.915 0.050-20.259 0-36.682-16.423-36.682-36.682 0-0.805 0.026-1.605 0.077-2.397l-0.006 0.108c0.79-22.259 17.781-37.143 41.292-36.089 20.456 0.358 36.902 17.025 36.902 37.533 0 20.732-16.806 37.538-37.538 37.538-0.749 0-1.493-0.022-2.232-0.065l0.102 0.005zM547.793 154.38h443.411c3.069 0.141 6.667 0.222 10.284 0.222 7.974 0 15.856-0.392 23.628-1.157l-0.984 0.078c20.613-2.898 31.018-13.171 32.928-32.928 12.315-119.727-63.156-183.871-154.104-184.068q-355.624-0.724-710.919 0c-88.906 0-169.185 59.271-155.289 186.044 2.107 18.901 13.896 28.121 30.887 31.084 6.805 0.843 14.681 1.324 22.67 1.324 3.608 0 7.194-0.098 10.754-0.292l-0.496 0.022zM544.5 229.719c-138.298 0-276.597 0-414.434 0-0.334-0.002-0.73-0.003-1.126-0.003-18.829 0-37.063 2.549-54.375 7.321l1.433-0.337c-44.433 13.377-76.242 53.927-76.242 101.907 0 48.413 32.387 89.262 76.677 102.062l0.75 0.186c14.007 4.073 30.112 6.47 46.759 6.585h0.065c102.67 0.527 205.34 0 308.010 0.461 0.477 0.007 1.041 0.011 1.606 0.011 24.998 0 48.183-7.764 67.275-21.012l-0.39 0.256c46.099-30.623 92.594-59.863 137.706-91.277 37.999-26.343 73.627-26.343 111.495 0.461 44.058 30.821 89.696 59.271 134.281 89.301 48.602 32.928 99.641 29.438 150.35 8.43 35.461-16.571 59.59-51.939 59.59-92.942 0-2.844-0.116-5.662-0.344-8.448l0.024 0.366c-4.544-44.848-25.882-79.423-70.071-94.175-17.39-5.571-37.394-8.781-58.147-8.781-1.043 0-2.085 0.008-3.124 0.024l0.157-0.002c-139.22-0.724-278.572-0.395-417.924-0.395z" />
<glyph unicode="&#xf023;" glyph-name="t-misc5" horiz-adv-x="1277" d="M747.78 527.469l239.754-166.629c74.534-51.783 149.838-102.541 223.347-155.606 84.981-61.396 88.954-177.46 5.832-236.742-26.53-18.544-59.225-30-94.536-31.013l-0.25-0.006c-322.427-2.243-644.919-1.602-967.346-1.218-71.266 0.192-128.945 42.17-148.172 105.874s3.589 125.292 63.704 167.078q304.931 212.068 610.76 422.982c35.313 24.289 55.949 54.988 55.885 98.247 0 53.706-33.646 94.915-83.315 102.541-53.385 8.139-96.581-18.586-114.013-70.497-1.41-4.038-2.115-8.331-3.653-12.305-12.177-31.467-44.862-49.925-73.509-41.273-34.608 10.51-51.911 41.465-43.58 77.867 24.225 102.733 127.151 180.729 229.243 172.653 114.718-9.036 201.685-92.864 210.85-204.121 7.114-85.942-19.931-157.593-90.172-210.658-5.96-4.422-11.408-9.421-20.829-17.176zM638.318 62.766c157.977 0 315.954 0 474.252 0.641 12.818 0 25.635 8.78 38.837 13.523-8.011 12.113-13.394 28.007-24.418 35.761-153.811 107.988-308.456 214.439-462.075 322.427-19.995 14.035-33.39 13.715-53.129 0-153.811-107.924-308.392-214.503-462.139-322.299-10.831-7.562-16.919-21.854-25.251-33.005 13.394-5.64 26.789-16.022 40.247-16.086 157.657-1.474 315.634-0.961 473.675-0.961z" />
<glyph unicode="&#xf024;" glyph-name="t-misc6" horiz-adv-x="896" d="M192 960c-106.039 0-192-85.961-192-192v0-640c0-106.039 85.961-192 192-192v0h638.080c0.318-0.006 0.692-0.009 1.068-0.009 33.566 0 61.209 25.354 64.826 57.955l0.026 0.294c0.165 1.726 0.26 3.732 0.26 5.761 0 35.346-28.654 64-64 64-0.091 0-0.183 0-0.274-0.001h0.014v128c35.346 0 64 28.654 64 64v0 640c0 35.346-28.654 64-64 64v0h-640zM193.92 192h510.080v-128h-512c-35.343 0.004-63.993 28.656-63.993 64 0 2.028 0.094 4.034 0.279 6.014l-0.019-0.254c3.645 32.893 31.288 58.245 64.852 58.245 0.282 0 0.563-0.002 0.844-0.005h-0.043zM291.307 704h381.867c0.156 0.003 0.34 0.004 0.525 0.004 15.226 0 28.025-10.392 31.692-24.47l0.050-0.228c0.537-2.195 0.845-4.715 0.845-7.307 0-17.673-14.327-32-32-32-0.016 0-0.032 0-0.048 0h-383.998c-0.013 0-0.029 0-0.045 0-17.673 0-32 14.327-32 32 0 2.592 0.308 5.112 0.89 7.525l-0.044-0.218c3.717 14.306 16.516 24.698 31.742 24.698 0.184 0 0.369-0.002 0.552-0.005h-0.028zM290.24 576h382.933c0.156 0.003 0.34 0.004 0.525 0.004 15.226 0 28.025-10.392 31.692-24.47l0.050-0.228c0.537-2.195 0.845-4.715 0.845-7.307 0-17.673-14.327-32-32-32-0.016 0-0.032 0-0.048 0h-382.931c-0.077-0.001-0.168-0.001-0.259-0.001-15.225 0-28.023 10.39-31.691 24.467l-0.050 0.228c-0.537 2.195-0.846 4.715-0.846 7.307 0 17.595 14.201 31.874 31.767 31.999h0.012z" />
<glyph unicode="&#xf025;" glyph-name="t-misc7" d="M310.91-64c-163.003 1.552-310 148.496-310.91 310.963-0.017 0.97-0.027 2.114-0.027 3.26 0 105.049 82.091 190.924 185.621 196.975l0.534 0.025c38.007 2.623 67.985 22.215 75.319 57.814 22.269 107.009 134.685 168.516 264.177 112.737 48.606-20.931 48.66-20.77 86.935 17.719 17.665 17.719 34.26 36.615 53.264 52.675 43.267 35.924 75.503 83.748 91.773 138.448l0.515 2.018c3.961 13.436 15.738 25.32 25.909 36.027 25.16 26.498 51.069 52.514 77.46 77.674 23.928 23.018 47.429 23.607 70.661 1.445 25.213-23.982 49.891-48.553 73.713-73.82s24.196-48.553-1.017-74.944c-27.729-28.96-54.87-58.884-85.65-84.526-17.826-14.828-41.38-23.982-63.702-31.798-28.855-9.872-53.392-25.957-72.987-46.751l-0.083-0.089c-34.26-36.294-69.591-71.464-105.885-105.938-13.811-13.169-17.023-24.25-6.798-41.38 20.003-33.543 31.829-73.975 31.829-117.169 0-3.75-0.089-7.48-0.265-11.187l0.020 0.524c-1.713-71.946-46.037-133.079-114.503-153.956-55.191-16.862-69.591-34.421-75.854-92.234-10.653-100.371-96.785-175.476-200.046-174.512zM414.118 254.511c55.94-0.589 99.729 41.754 99.729 96.356-0.332 54.413-44.353 98.433-98.733 98.765h-0.032c-53.176-0.784-95.982-44.075-95.982-97.363 0-0.135 0-0.27 0.001-0.405v0.021c-0.268-55.673 40.041-96.838 95.018-97.373z" />
<glyph unicode="&#xf026;" glyph-name="t-misc8" horiz-adv-x="794" d="M506.228 550.714v95.008h-175.995v-63.46c40.946-4.513 72.514-38.91 72.526-80.683v-443.011h167.534v421.011c0 0.007 0 0.016 0 0.025 0 36.869-27.906 67.22-63.749 71.083l-0.316 0.028zM330.233 697.881h175.27c-6.406 76.514-52.883 262.119-109.332 262.119v0c-33.18 0-66.482-67.63-86.608-136.046 10.939-46.9 20.67-86.547 20.67-110.178zM402.94 5.927h167.353v-69.927h-167.353v69.927zM281.943 550.714v95.008h-220.175v-95.371c-35.072-4.927-61.764-34.732-61.768-70.773v0-421.252h346.007v421.252c-0.016 36.869-27.911 67.217-63.747 71.107l-0.318 0.028zM171.825 960v0c-56.449 0-102.744-185.605-109.332-262.119h218.664c-6.406 76.514-52.883 262.119-109.332 262.119zM0 5.927h346.007v-69.927h-346.007v69.927zM729.909 550.714v95.008h-175.995v-63.46c40.946-4.513 72.514-38.91 72.526-80.683v-443.011h167.353v421.011c0 0.013 0 0.029 0 0.044 0 36.805-27.809 67.114-63.562 71.063l-0.321 0.029zM553.914 697.881h175.27c-6.406 76.514-52.944 262.119-109.332 262.119-33.18 0-66.482-67.63-86.608-136.046 10.939-46.9 20.67-86.547 20.67-110.178zM626.621 5.927h167.353v-69.927h-167.353v69.927z" />
</font>
</defs>
</svg>
