<svg xmlns="http://www.w3.org/2000/svg" viewBox="0 0 1225.06 492.12"><defs><style>.cls-1{fill:#3c3c3c;}.cls-2{fill:#fcfcfb;}.cls-3{fill:#fdfcfb;}.cls-4{fill:#fbfbfb;}.cls-5{fill:#f69422;}.cls-6{fill:#f69523;}.cls-7{fill:#676767;}.cls-8{fill:#f69421;}.cls-9{fill:#f69420;}.cls-10{fill:#686868;}.cls-11{fill:#3f3f3f;}.cls-12{fill:#454545;}.cls-13{fill:#fe9802;}.cls-14{fill:#fe9803;}.cls-15{fill:#fe9904;}.cls-16{fill:#cacaca;}.cls-17{fill:#fe9c0b;}.cls-18{fill:#6d6d6d;}.cls-19{fill:#6a6a6a;}.cls-20{fill:#696969;}.cls-21{fill:#f6f6f6;}.cls-22{fill:#efefef;}</style></defs><title>CSO_logo</title><g id="Calque_2" data-name="Calque 2"><g id="Calque_1-2" data-name="Calque 1"><path class="cls-1" d="M1173.4,377.18c-9.13,0-18.28.27-27.4-.12-4.08-.17-8.15-1.47-12.12-2.63a9,9,0,0,0-5.71.16c-9.76,3.23-19.71,4.52-29.94,2.51a8,8,0,0,0-3,0,57.56,57.56,0,0,1-20.32,0,16.45,16.45,0,0,0-3-.1c-11.48.2-23,.47-34.43.59a117,117,0,0,1-13.9-.49,62.06,62.06,0,0,1-11.64-2.56,9.33,9.33,0,0,0-6.17.13c-12.66,4.11-25.43,4.72-38.17.34a11.08,11.08,0,0,0-6.74-.09,68.38,68.38,0,0,1-10.72,2.18c-13.7,1.26-26.32-2.23-38-9.38-1.85-1.13-2.81-1.7-4.88.11-8.25,7.27-18.32,9.71-29.07,9.86-4.5.06-9,.12-13.49,0a48.88,48.88,0,0,1-21.1-5.11,3.47,3.47,0,0,0-3.61.06,52.07,52.07,0,0,1-22.15,5.06c-15.49.05-31,.14-46.48-.07-4.43-.07-8.86-1.62-13.29-1.62s-8.85,1.55-13.29,1.62c-15.49.21-31,.14-46.48,0a47,47,0,0,1-9.87-1.17,16.53,16.53,0,0,0-7.34-.1,50.93,50.93,0,0,1-10.35,1.25c-7.48,0-15.15.64-22.38-.79-8.17-1.63-15.75-1.19-23.91,0-12.1,1.8-24.54,2.17-36.59-1.55a17.07,17.07,0,0,0-10.13,0,115.18,115.18,0,0,1-16.5,3.65c-17,2.29-33-2.23-48.45-8.65-7.54-3.13-13.81-8.21-17.42-15.73-3.84-8-6.32-16.18-3.89-25.42A106.45,106.45,0,0,1,499,309.67a6.55,6.55,0,0,0-.48-7.31c-2.05-3.18-3.45-6.77-5.19-10.15-.19-.37-.77-.54-1.17-.8a7.13,7.13,0,0,0-.23.91c-1.05,7.91-2,15.83-3.16,23.73-1.33,9.36-2.38,18.75-4.84,27.94-2.07,7.68-6.65,13.59-11.72,19.38a95.69,95.69,0,0,0-7.5,10.43c-.39.59,0,1.89.33,2.73,7.57,18.59,15.29,37.11,22.7,55.77a66.17,66.17,0,0,1,3.8,14.4c.49,3.17-.16,6.6-.74,9.83-1.22,6.74-3.16,13.18-7.58,18.72-5.78,7.24-12.71,12.53-21.87,14.73-5,1.2-10,2.87-15.22,1.78a96.58,96.58,0,0,1-15.34-4.2c-16.23-6.33-32.32-13-48.48-19.54-8.21-3.31-14.88-8.68-20.88-15-1.67-1.77-3.47-4.31-5.5-4.61-1.74-.27-3.91,2.11-5.86,3.38q-14.64,9.52-29.25,19.08c-7,4.6-15,6.22-23.11,6.95-2.08.18-3.82.44-5.46,1.8-7.46,6.19-16.42,8.63-25.78,9.51-3.53.33-7.19-.56-10.76-1.1a40.91,40.91,0,0,1-20.56-9.46,5,5,0,0,0-3-1.26,45.84,45.84,0,0,1-26.84-7.51c-10.34-6.68-20.62-13.45-30.93-20.18-3.5-2.28-3.42-2.19-6.52.66-4.9,4.49-9.81,9-14.94,13.18a27,27,0,0,1-7,3.78C129.18,474,112.45,480.92,95.6,487.5a112.43,112.43,0,0,1-15.32,4.28,16.62,16.62,0,0,1-6,.14c-10.09-1.32-19.42-4.65-26.94-11.71a33.09,33.09,0,0,1-6.58-8.74c-4.65-9-7.4-18.29-5-28.72,2.68-11.94,8.09-22.81,12.45-34.08s9.36-22.32,14-33.5a3.13,3.13,0,0,0-.18-2.62c-2.84-3.62-4.84-7.73-8.22-11.13-5.26-5.28-9.41-11.67-10.74-19.33-1.75-10.14-3.5-20.28-5-30.46-2-13.47-3.82-27-5.67-40.48s-3.62-27-5.45-40.51q-2.67-19.51-5.39-39c-.8-5.76-1.79-11.5-2.42-17.28-1.07-9.89,1.23-19.09,6.1-27.72a18,18,0,0,0,1.59-4.12c1.52-5.59,2.75-11.27,4.55-16.77a3.1,3.1,0,0,0-.89-3.82q-8.88-8.79-17.68-17.65A41.86,41.86,0,0,1,.05,71.82c.5-11.13,5.19-20.9,13-28.91,9.43-9.65,19.1-19.06,28.58-28.66,8-8.13,17.79-13.17,29-14C83.47-.65,94.84,3.75,104.08,13l39.23,39.22a21.2,21.2,0,0,1,2.1,2.14c1.46,2,3,1.88,5.17,1,12.45-5.06,25-9.9,37.49-14.81,14.36-5.65,28.67-11.44,43.1-16.88A103.69,103.69,0,0,1,247,19.22a27.31,27.31,0,0,1,13.81,1.07,9.55,9.55,0,0,0,6.29.13c5.87-2,11.7-1.36,17.68.07,12.35,3,23.76,8.37,35.52,12.87,18.59,7.11,37.09,14.45,55.56,21.88,2.48,1,3.83.55,5.58-1.21C394.07,41.24,407,28.72,419.49,15.76A50.34,50.34,0,0,1,448.35.31,19.17,19.17,0,0,1,452.82,0c10.69.82,20.69,3.68,28.57,11.34,11.23,10.91,22.15,22.13,33.27,33.16,7.48,7.41,10.74,16.83,11.85,26.83.91,8.2-1.55,16.19-5.68,23.33a62.62,62.62,0,0,1-8.54,11c-4.86,5.25-10,10.23-15.17,15.21-1.67,1.61-2.06,3-1.11,5.24,1.22,2.88,1.88,6,2.84,9,.3.94.77,1.82,1.16,2.72a22.14,22.14,0,0,0,1.86-2c1.57-2.15,3-4.43,4.61-6.52,10.4-13.29,23.94-21.68,40.15-26.22,15.07-4.22,30.06-5,45.23-.74,1.61.46,3.55,0,5.27-.31a82.42,82.42,0,0,1,35.1.22,19,19,0,0,0,8.26-.06c13.71-2.77,27.44-2.92,40.89,1.35,3.37,1.07,6.38,3.42,9.42,5.39,1.58,1,2.6,1.32,4.23-.1a35.8,35.8,0,0,1,16.45-7.8,32.12,32.12,0,0,1,14.27.07,38,38,0,0,1,16.48,7.79c1.5,1.26,2.72,1.27,4.25,0,7.58-6.27,16.63-7.95,26.11-8,10.66-.08,21.33-.29,32,.11,15.29.57,28.88,5.7,40,16.58a13.86,13.86,0,0,0,1.81,1.71,1.52,1.52,0,0,0,1.41,0,12.79,12.79,0,0,0,1.77-2.41c6.22-10.47,16.11-15.54,27.57-16.46,12.34-1,23.18,3.4,31.11,13.55,1,1.26,1.85,3.09,3.14,3.49.84.27,2.35-1.55,3.55-2.44,14.92-10.92,32-15.06,50.11-15.51,5.4-.14,10.87,1.15,16.25,2.14a19.09,19.09,0,0,0,8.83.05,24.54,24.54,0,0,1,6.41-.72c19-.05,38-.42,57,.19,6.31.2,12.46-.59,18.69-.61,12.5,0,25-.46,37.48.09,17.46.77,34.92-.4,52.36.33,16.43.7,30.91,6.37,42.12,18.68,6.4,7,11.45,15,13.53,24.63,1.27,5.84,3.13,11.56,2.91,17.64a74.26,74.26,0,0,1-6.06,26c-1,2.31-1,4,.25,6a53.37,53.37,0,0,1,8.23,20.66c.32,1.95.86,4,.49,5.91-1.27,6.48-2.46,12.91-6.32,18.69-4,6-9.42,9.68-15.56,12.79-.48.24-.79.8-1.18,1.2a6.82,6.82,0,0,0,1.18.77,37.16,37.16,0,0,1,15.79,11.66c4.88,6.35,6.6,13.79,7.16,21.41s.71,15.66-2.08,23.19c-1.3,3.5-.6,6.89.34,10.26a55.18,55.18,0,0,1-.84,33.85,32.16,32.16,0,0,1-21.87,20.81C1191.3,377.79,1182.37,377.55,1173.4,377.18Zm-379-30.05h0c9,0,18-.18,27,0,9.43.24,17.21-6.77,17.12-17.35,0-5.66-.08-11.33,0-17,.09-5.18-1.11-9.84-4.56-13.87a5.74,5.74,0,0,1-1.18-3.49c0-6.33.11-12.66.22-19,0-2-.56-4.59.46-5.72s3.65-.46,5.58-.56c.83,0,1.66,0,2.5,0,3.72.09,3.78.09,3.79,4,0,14.33,0,28.65,0,43,0,4.83-.14,9.67.12,14.49.5,9.08,6.72,15.18,15.71,15.39,7.32.17,14.66.23,22-.08a17.93,17.93,0,0,0,8-2.31C896.68,341.5,899,336.4,899,330c-.09-17.5,0-35,0-52.48,0-2.3-.64-5.65.56-6.64,1.54-1.27,4.64-.66,7.07-.85a2.78,2.78,0,0,1,.5,0c8.66.6,16.95-6.91,16.64-16.65-.18-6,.13-12-.1-18a38.37,38.37,0,0,0-1.5-8.74c-.46-1.65-.58-2.15,1.34-2.65,2.67-.69,5.56-1.55,7.63-3.23,2.24-1.81,3.77-1.66,6.16-.57,15.7,7.18,31.76,7.57,48,2.12,3.83-1.28,7.43-3,9.93-6.32a57.64,57.64,0,0,0,3.32-5.52l.66-1.15c.23.43.49.84.69,1.28a6.2,6.2,0,0,1,.31.95c2.54,8.78,7.46,12.59,16.6,12.73,5,.07,10,.1,15,0a26.46,26.46,0,0,0,6.89-.88c6.61-2,10.83-8.1,10.88-15.64.09-12.83,0-25.66,0-38.49,0-2.5-.07-5,.06-7.49,0-.59.76-1.15,1.17-1.72.5.52,1.26,1,1.42,1.58a12.31,12.31,0,0,1,.08,3c0,9.5,0,19,0,28.49,0,5.67-.06,11.33.15,17,.18,4.78,2.55,8.4,6.44,11.24,3.46,2.52,7.29,3,11.34,3,14.16,0,28.32,0,42.48,0,2.82,0,5.64-.49,8.45-.41,7.14.2,14.27.7,21.4.85,3.85.08,7.68-.53,10.86-3,1.65-1.29,2.8-.62,4.45.13,2.81,1.29,5.87,2.59,8.89,2.77,6.81.41,13.66.3,20.48.07,7.49-.25,12.89-4.38,15.26-10.84,1.69-4.61.78-8.88-1.38-13q-4.67-8.81-9.71-17.42c-1.36-2.33-1.64-3.87.24-6.45,9-12.41,11.42-26.18,5.78-40.59-5.9-15-17.16-24.44-33.45-25.19-14.23-.66-28.6-1.42-42.85.66a8.77,8.77,0,0,1-2-.15c-2.63-.27-5.26-.77-7.89-.78q-18.74-.13-37.48,0c-3.63,0-7.25.65-10.88.93a20,20,0,0,1-3.46,0c-2.63-.24-5.25-.81-7.87-.82-17.66-.08-35.32-.12-53,0-3.43,0-6.84,1-10.28,1.43a10.64,10.64,0,0,1-4.31.08,65.48,65.48,0,0,0-23.67-2.69c-22.59,1.32-40,11.21-50.9,31.48a28.54,28.54,0,0,1-1.92,2.77c-.74-1-1.51-2-2.21-3a18.54,18.54,0,0,1-.9-1.78c-3.35-6.68-6.6-13.41-10.07-20-4-7.65-12.07-11-19.79-8.24-4.63,1.64-7.66,5.06-9.82,9.41q-11,22.08-22.1,44.1a31.82,31.82,0,0,1-1.87,3.51c-.26.38-1,.43-1.54.63a5.36,5.36,0,0,1,.23-1.14,41.22,41.22,0,0,0,3.2-18c-.69-20.94-17.76-38.86-39.12-38.64-11,.11-22,0-33,0-11.21.06-17.69,6.53-17.75,17.64,0,7.67,0,15.33,0,23a54.78,54.78,0,0,1-.55,5.56c-.86-1.57-1.77-3.13-2.58-4.73-5.52-11-10.95-22-16.56-32.94-4-7.84-11.65-11.09-19.63-8.47a16.5,16.5,0,0,0-9.69,8.83q-8.35,16.72-16.78,33.4a36.43,36.43,0,0,1-2.07,3.26c-.16-1.26-.37-2.52-.49-3.78-.07-.83,0-1.67,0-2.5-.18-8.31-.5-16.62-.5-24.93,0-7.63-8-14.79-16.13-14.43-6.15.27-12.32.1-18.49,0-4.16,0-7.95,1-11,3.88-1.54,1.46-2.57,1.56-4.12.12-3.35-3.12-7.43-4.13-12-4-5.66.13-11.34-.13-17,.1a21.73,21.73,0,0,0-7.72,1.6,7.74,7.74,0,0,1-6.08.33,66.63,66.63,0,0,0-34-2c-44.16,8.38-60.39,56.85-36.74,90.54a53.77,53.77,0,0,0,17.64,15.93,9.16,9.16,0,0,1,1.35,1.23,12.34,12.34,0,0,1-1.54,1.18c-.73.39-1.53.62-2.29,1-14.35,6.23-23.32,16.83-25.68,32.44-1.57,10.49-.54,20.68,5.95,29.54a106,106,0,0,0,9,10c1.13,1.19,2.15,1.91.18,3.29-3.23,2.25-5.21,5.49-6.73,9.1-1.87,4.43-3.79,8.86-6,13.15-4.68,9.29-.44,19.68,8.72,23.73a75.28,75.28,0,0,0,20.9,6.29c14.19,1.84,27.9,1,40.35-7,1.37-.88,2.25-1.37,3.65.3,3.29,3.92,7.71,5.56,12.84,5.49,6.83-.08,13.67-.18,20.49,0,6.47.22,11.78-1.76,15.6-7.1,1-1.47,1.69-1.71,2.82,0,3.45,5.15,8.44,7.2,14.54,7.11,7.16-.11,14.33,0,21.49,0a15.9,15.9,0,0,0,8.62-2c1.17-.72,2.16-1.19,3.58-.19,2.83,2,6.18,2.22,9.55,2.21,17.33,0,34.65-.06,52,0,3.75,0,7.21-2,10.6-1.94s6.88,2,10.62,1.93C777.46,347.06,786,347.13,794.45,347.13Zm-739.71,92c.54,8.57,3.51,14.61,9.73,18.85,7.12,4.85,14.55,4.71,22.3,1.52q24.41-10,48.93-19.76a34.85,34.85,0,0,0,12.3-8.28c5.58-5.73,11.28-11.33,16.94-17,3.08-3.07,3.1-3.06,6.91-.57,14.62,9.54,29.29,19,43.83,28.67,6.86,4.55,14,5.94,21.75,2.94a2.79,2.79,0,0,1,3.48.71c2.5,2.43,5,4.91,7.67,7.13a24.68,24.68,0,0,0,31.67,0,84.62,84.62,0,0,0,6.56-6.14,3.49,3.49,0,0,1,4-1.08c7.91,2.62,14.87.71,21.67-3.85,14.49-9.73,29.25-19.07,43.81-28.71,2.07-1.38,3.21-1.31,4.94.49,6,6.24,12.25,12.25,18.31,18.44a27.93,27.93,0,0,0,9.87,6.57c5.26,2.06,10.45,4.27,15.68,6.38,12.16,4.9,24.36,9.7,36.48,14.69a21.84,21.84,0,0,0,29.87-17.4c.71-4.63-.64-8.87-2.33-13.07-6.21-15.39-12.52-30.74-18.54-46.2a43.3,43.3,0,0,0-10.94-16.42c-4.88-4.54-4.81-4.76.72-8.29s9.92-8.23,12.34-14.58a9.21,9.21,0,0,1,3.11-3.6,25.18,25.18,0,0,0,10.14-17.09c2.21-16,4.55-31.91,6.74-47.88,2.51-18.28,4.88-36.57,7.36-54.85,2.61-19.27,5.22-38.53,8-57.78,1.09-7.64-.87-14.14-6.4-19.49a4.12,4.12,0,0,1-1.43-4.35,20,20,0,0,0,.06-6.41,24.48,24.48,0,0,0-11.77-18.21c-1.89-1.2-1.8-2-.34-3.25.75-.66,1.42-1.41,2.13-2.11,9.53-9.55,18.9-19.27,28.66-28.59,9.25-8.83,10.38-23.07.49-32.81-10.56-10.4-20.88-21-31.53-31.36C459.28,8.09,447,8.1,438.13,16c-1.36,1.22-2.66,2.52-4,3.81-15.91,15.9-31.86,31.75-47.65,47.77-2,2-3.56,2.28-6,1.21-5.17-2.24-10.45-4.25-15.7-6.32q-39.13-15.39-78.28-30.79c-6.62-2.62-13.23-3.36-19.85-.53-2.3,1-4.11.55-6.12-.29a21.58,21.58,0,0,0-13.66-1.35,72.56,72.56,0,0,0-9.42,3.2q-45.63,17.93-91.21,36c-3,1.17-4.62.55-6.77-1.63-16.39-16.6-33-32.95-49.4-49.56-8.38-8.51-21.73-10.75-32-.75C47.18,27.37,36.37,38,26,49,19.6,55.73,18,64,22,72.59a30.76,30.76,0,0,0,6.14,8.34c9.9,10.13,20,20.07,30,30.1,2,2,2,2.07-.34,3.81-7.57,5.74-11.5,13.23-10.79,22.83a7.79,7.79,0,0,1-2.31,6.62,21,21,0,0,0-5.6,17.46c.33,3,.81,5.93,1.21,8.89q2.86,20.75,5.72,41.48,2.17,15.81,4.34,31.61c1.85,13.33,3.74,26.66,5.56,40,1.78,13,3.36,26,5.29,39A26.23,26.23,0,0,0,72,340.65a9,9,0,0,1,2.93,3.75,28.2,28.2,0,0,0,11.78,13.78c1.68,1.06,3.29,2.24,4.93,3.37a56.71,56.71,0,0,1-4,4.85c-4.18,4.08-8.12,8.25-10.34,13.87-6.71,17-13.65,33.86-20.36,50.83A61.87,61.87,0,0,0,54.74,439.14Zm1118.49-91.76V347c5.33,0,10.66.14,16,0a15.53,15.53,0,0,0,15.26-15.3c.12-3.83.17-7.67,0-11.49a19.82,19.82,0,0,0-1.18-6.32,24.25,24.25,0,0,1,.18-19.64,10.53,10.53,0,0,0,1-3.84c.12-4.66.3-9.34,0-14a15.11,15.11,0,0,0-7.23-12.42,17,17,0,0,0-9-2.6c-9.65-.16-19.31-.1-29,0-2.31,0-4.63.62-6.93.56-4.47-.12-8.92-.63-13.39-.79-7.47-.28-13.83,1.78-17.46,9-.72,1.43-1.62,1.43-2.72.51-2.16-1.82-4.25-3.74-6.48-5.48-4-3.09-8.35-4.63-13.47-3.43a15,15,0,0,1-4,.11c-4.15-.16-8.3-.48-12.45-.57-8.15-.18-14.69,2.46-17.88,10.67a5.52,5.52,0,0,1-.83,1.14c-.38-.41-.93-.74-1.14-1.23-3-7.08-8.42-10.24-16.09-10.24-9.79,0-19.57-.24-29.36-.54-7.92-.25-14.48,2-18.2,9.53-.75,1.51-1.31.95-2.11.26-2.15-1.84-4.29-3.69-6.46-5.51-6.14-5.14-14.67-5.71-20.85.11-1.81,1.71-3.13,1.68-5.18.61a40.42,40.42,0,0,0-26.68-3.77,42.62,42.62,0,0,0-33.88,52.24c4.42,18.58,21.55,32.08,39.41,32.57,7.47.21,14.57-.95,21.2-4.43,1.92-1,3.41-1.56,5.24.39,3,3.19,7,4.3,11.29,4.51a79.67,79.67,0,0,0,10.48,0c4.52-.37,8.93-1.34,12-5.11,1.41-1.7,2.74-3.47,4.11-5.22,1.92,1.59,3.84,3.18,5.77,4.75.78.63,1.58,1.22,2.39,1.8,2.74,2,5.71,3.64,9.2,3.16,4.14-.57,8.22.13,12.33.11,11.82-.05,23.65-.64,35.44-.15,8.31.34,16.55,1,24.84-.06a17,17,0,0,1,3,.3c4,.18,8,.51,12,.45,6.92-.09,12.72-2.46,16-9.07.72-1.47,1.36-1.71,2.53-.62.61.57,1.26,1.1,1.87,1.66,5.54,5.13,11.37,9.42,19.6,6.73a2.92,2.92,0,0,1,1,.05ZM996.7,249.72c-2.93.84-5.78,1.65-8.62,2.48a2.54,2.54,0,0,0-.67.43c.32.08.64.18,1,.25a8.84,8.84,0,0,1,2.4.53c4.38,2.41,8.59,1,12.8-.46a3.86,3.86,0,0,0,.91-.68ZM500,232.83l.07,1.4a6.67,6.67,0,0,0,1.33-1c.63-.76,1.1-1.65,1.71-2.42,3.9-5,3.91-5,0-9.52a5.27,5.27,0,0,0-1.05-.72,5.39,5.39,0,0,0-.32.93C501.15,225.25,500.57,229,500,232.83Z"/><path class="cls-2" d="M794.45,347.13c-8.5,0-17-.07-25.49,0-3.74.05-7.19-1.83-10.62-1.93s-6.85,2-10.6,1.94c-17.33-.1-34.65-.06-52,0-3.37,0-6.72-.22-9.55-2.21-1.42-1-2.41-.53-3.58.19a15.9,15.9,0,0,1-8.62,2c-7.16,0-14.33-.09-21.49,0-6.1.09-11.09-2-14.54-7.11-1.13-1.68-1.78-1.44-2.82,0-3.82,5.34-9.13,7.32-15.6,7.1-6.82-.22-13.66-.12-20.49,0-5.13.07-9.55-1.57-12.84-5.49-1.4-1.67-2.28-1.18-3.65-.3-12.45,8-26.16,8.87-40.35,7a75.28,75.28,0,0,1-20.9-6.29c-9.16-4-13.4-14.44-8.72-23.73,2.17-4.29,4.09-8.72,6-13.15,1.52-3.61,3.5-6.85,6.73-9.1,2-1.38,1-2.1-.18-3.29a106,106,0,0,1-9-10c-6.49-8.86-7.52-19.05-5.95-29.54,2.36-15.61,11.33-26.21,25.68-32.44.76-.33,1.56-.56,2.29-1a12.34,12.34,0,0,0,1.54-1.18,9.16,9.16,0,0,0-1.35-1.23,53.77,53.77,0,0,1-17.64-15.93c-23.65-33.69-7.42-82.16,36.74-90.54a66.63,66.63,0,0,1,34,2,7.74,7.74,0,0,0,6.08-.33,21.73,21.73,0,0,1,7.72-1.6c5.65-.23,11.33,0,17-.1,4.52-.11,8.6.9,12,4,1.55,1.44,2.58,1.34,4.12-.12,3-2.87,6.82-3.92,11-3.88,6.17.06,12.34.23,18.49,0,8.1-.36,16.12,6.8,16.13,14.43,0,8.31.32,16.62.5,24.93,0,.83-.06,1.67,0,2.5.12,1.26.33,2.52.49,3.78a36.43,36.43,0,0,0,2.07-3.26q8.43-16.68,16.78-33.4a16.5,16.5,0,0,1,9.69-8.83c8-2.62,15.6.63,19.63,8.47,5.61,10.93,11,22,16.56,32.94.81,1.6,1.72,3.16,2.58,4.73a54.78,54.78,0,0,0,.55-5.56c.07-7.66,0-15.32,0-23,.06-11.11,6.54-17.58,17.75-17.64,11-.06,22,.09,33,0,21.36-.22,38.43,17.7,39.12,38.64a41.22,41.22,0,0,1-3.2,18,5.36,5.36,0,0,0-.23,1.14c.52-.2,1.28-.25,1.54-.63a31.82,31.82,0,0,0,1.87-3.51q11.07-22,22.1-44.1c2.16-4.35,5.19-7.77,9.82-9.41,7.72-2.75,15.77.59,19.79,8.24,3.47,6.62,6.72,13.35,10.07,20a18.54,18.54,0,0,0,.9,1.78c.7,1,1.47,2,2.21,3a28.54,28.54,0,0,0,1.92-2.77c10.93-20.27,28.31-30.16,50.9-31.48A65.48,65.48,0,0,1,984,112.63a10.64,10.64,0,0,0,4.31-.08c3.44-.44,6.85-1.4,10.28-1.43,17.66-.15,35.32-.11,53,0,2.62,0,5.24.58,7.87.82a20,20,0,0,0,3.46,0c3.63-.28,7.25-.89,10.88-.93q18.74-.17,37.48,0c2.63,0,5.26.51,7.89.78a8.77,8.77,0,0,0,2,.15c14.25-2.08,28.62-1.32,42.85-.66,16.29.75,27.55,10.14,33.45,25.19,5.64,14.41,3.26,28.18-5.78,40.59-1.88,2.58-1.6,4.12-.24,6.45q5,8.61,9.71,17.42c2.16,4.08,3.07,8.35,1.38,13-2.37,6.46-7.77,10.59-15.26,10.84-6.82.23-13.67.34-20.48-.07-3-.18-6.08-1.48-8.89-2.77-1.65-.75-2.8-1.42-4.45-.13-3.18,2.46-7,3.07-10.86,3-7.13-.15-14.26-.65-21.4-.85-2.81-.08-5.63.4-8.45.41-14.16,0-28.32,0-42.48,0-4,0-7.88-.47-11.34-3-3.89-2.84-6.26-6.46-6.44-11.24-.21-5.66-.14-11.32-.15-17,0-9.49,0-19,0-28.49a12.31,12.31,0,0,0-.08-3c-.16-.61-.92-1.06-1.42-1.58-.41.57-1.14,1.13-1.17,1.72-.13,2.49-.06,5-.06,7.49,0,12.83.06,25.66,0,38.49,0,7.54-4.27,13.63-10.88,15.64a26.46,26.46,0,0,1-6.89.88c-5,.13-10,.1-15,0-9.14-.14-14.06-4-16.6-12.73a6.2,6.2,0,0,0-.31-.95c-.2-.44-.46-.85-.69-1.28l-.66,1.15a57.64,57.64,0,0,1-3.32,5.52c-2.5,3.3-6.1,5-9.93,6.32-16.29,5.45-32.35,5.06-48-2.12-2.39-1.09-3.92-1.24-6.16.57-2.07,1.68-5,2.54-7.63,3.23-1.92.5-1.8,1-1.34,2.65a38.37,38.37,0,0,1,1.5,8.74c.23,6-.08,12,.1,18,.31,9.74-8,17.25-16.64,16.65a2.78,2.78,0,0,0-.5,0c-2.43.19-5.53-.42-7.07.85-1.2,1-.56,4.34-.56,6.64,0,17.49-.08,35,0,52.48,0,6.36-2.27,11.46-7.75,14.64a17.93,17.93,0,0,1-8,2.31c-7.32.31-14.66.25-22,.08-9-.21-15.21-6.31-15.71-15.39-.26-4.82-.12-9.66-.12-14.49,0-14.33,0-28.65,0-43,0-3.91-.07-3.91-3.79-4-.84,0-1.67,0-2.5,0-1.93.1-4.65-.47-5.58.56s-.43,3.75-.46,5.72c-.11,6.32-.25,12.65-.22,19A5.74,5.74,0,0,0,834,299c3.45,4,4.65,8.69,4.56,13.87-.09,5.66-.06,11.33,0,17,.09,10.58-7.69,17.59-17.12,17.35-9-.22-18,0-27,0Zm-118.6-64.9q0-23,0-46c0-4.05-.06-4.08-4.14-4.1-5,0-10,0-15,0-6.68,0-6.82-1-6.77,6.74.06,9.32,0,18.64,0,28,0,4.46.31,4.26-4.42,4.25h-6c-4.5,0-9,0-13.49,0-3.15,0-3.15-.09-3.23-3.41,0-1,0-2,0-3,0-9.5,0-19,0-28.48,0-4-.06-4-4.18-4.05q-8.49,0-17,0c-4.61,0-4.71.1-4.72,4.77q0,24.72,0,49.45,0,20.73,0,41.46c0,4.17,0,4.22,4,4.24q9,.06,18,0c3.83,0,3.88-.06,3.89-3.77,0-10.48,0-21,0-31.46,0-3.58.14-3.7,3.62-3.73,6.49-.06,13,0,19.48,0,3.95,0,4,.05,4,4.18,0,10.16,0,20.32,0,30.47,0,4.17.16,4.29,4.12,4.32q9,.06,18,0c3.7,0,3.76-.07,3.76-3.91Q675.89,305.2,675.85,282.23Zm17.06.28q0,23,0,46c0,3.47.08,3.59,3.13,3.6,17.16,0,34.31,0,51.46.06,2.35,0,3.25-.69,3.18-3.13-.15-5.5,0-11-.06-16.49,0-3.42-.09-3.47-3.72-3.49-6,0-12,0-18,0-3.64,0-7.27-.24-10.9-.37-.19-3.76-.48-7.52-.54-11.28-.06-3.23.06-3.24,3.24-3.36,1,0,2,0,3,0,6.16,0,12.32-.05,18.48,0,1.95,0,3.3-.48,3.31-2.7,0-6.16.05-12.32-.08-18.48,0-.66-1-1.64-1.75-1.86a12.14,12.14,0,0,0-3.47-.1c-6.66,0-13.32,0-20,.05-1.78,0-2.83-.38-2.77-2.45.09-3.49,0-7,0-10.49,0-1.45.62-2.13,2.07-2.1,1.17,0,2.33,0,3.5,0q12,0,24,0c2,0,3.66-.22,3.64-2.87-.06-6,0-12,0-18,0-1.88-.85-2.77-2.67-2.8-.84,0-1.67,0-2.5,0H698c-5.1,0-5.12,0-5.12,5.38Q692.9,260,692.91,282.51Zm72.91,0q0,23,0,46c0,3.44.09,3.56,3.15,3.57,17.16,0,34.32,0,51.48.06,2.36,0,3.24-.72,3.17-3.16-.15-5.49,0-11-.06-16.49,0-3.39-.09-3.44-3.76-3.46-6.16,0-12.33,0-18.49,0-3.64,0-7.27-.23-10.91-.35-.18-3.77-.46-7.54-.53-11.31,0-3.22.06-3.3,3.27-3.33,7.33-.07,14.66-.11,22,0,2.36,0,3.33-.91,3.31-3.23-.05-5.16,0-10.33,0-15.49,0-4.29-.17-4.41-4.55-4.43-6.83,0-13.66.06-20.49,0-3.27,0-3.4-.18-3.48-3.37-.08-3,.05-6,0-9-.06-1.92.64-2.71,2.6-2.67,4.16.08,8.33,0,12.49,0,5.17,0,10.33,0,15.5,0,2,0,3.17-.63,3.16-2.85q-.06-9,0-18c0-1.85-.83-2.78-2.67-2.81-.83,0-1.67,0-2.5,0H770.94c-5.09,0-5.11,0-5.11,5.38Q765.82,260,765.82,282.52ZM669.5,167.65c0-12.5,0-25,0-37.49,0-4.1-.09-4.13-4.25-4.16-4.5,0-9,0-13.49,0-4,0-4,.05-4,4.12,0,8,0,16,0,24,0,4.11,0,4.14-4,4.16-4.83,0-9.66,0-14.49,0s-4.45.22-4.45-4.71c0-8.17-.08-16.33,0-24.49,0-2.4-.71-3.22-3.12-3.14-4.5.16-9,0-13.5,0-5.14,0-4.72-.34-4.72,5q0,36.74,0,73.48c0,.83,0,1.67,0,2.5-.11,1.73.72,2.36,2.38,2.34,4-.05,8,0,12,0,6.92,0,6.92,0,6.92-6.77q0-11.25,0-22.49c0-1.48-.3-3.07,2.09-3,6.33.07,12.66,0,19,.1.61,0,1.49,1,1.73,1.73a9.46,9.46,0,0,1,.08,3c0,7.83,0,15.66,0,23.49,0,4,0,4,4.16,4,4.5,0,9,0,13.49,0,4.09,0,4.13-.06,4.14-4.12Q669.52,186.4,669.5,167.65ZM553,334.06c11.28.56,21.15-2.82,28.79-11.62,9.3-10.72,11.12-28.62-3.52-39.54-6.08-4.53-13-8-19.49-11.92-2.84-1.72-5.75-3.33-8.46-5.24-2.55-1.79-3.82-5.45-3.08-7.85,1-3.33,3.59-4.58,6.76-5,1-.11,2-.06,3-.1,5.75-.24,11.14,1.33,16.49,3.2,3.21,1.12,3.28,1.1,4.43-2.21q2.52-7.27,4.88-14.59c1-3,.93-3.33-2.15-4.14-5-1.29-10-2.31-15-3.27a40.75,40.75,0,0,0-27,4.25c-11.69,6.08-16.05,18.25-13.26,31.43,1.47,6.92,6,11.8,11.61,15.6,5.74,3.92,11.86,7.29,17.79,10.94,3,1.82,6,3.6,8.79,5.64,2.12,1.53,3.44,3.76,2.87,6.49a5.94,5.94,0,0,1-5.18,4.75c-2.76.48-5.64,1.28-8.34.92a132.31,132.31,0,0,1-16-3.39c-2.21-.59-3.43-.36-4.34,1.77-2,4.72-4.21,9.37-6.18,14.11-1.24,3-1.17,3.13,1.8,4.47C536.13,332.33,544.26,334.42,553,334.06Zm214.74-166.4c0,12.81,0,25.62,0,38.43,0,3.45.27,3.69,3.67,3.75,4,.07,8,0,12,0,4.27,0,4.4-.17,4.41-4.57,0-7.82,0-15.64.07-23.46,0-1,.59-2.65,1.17-2.77,1.64-.34,3.7-1,4.71,1.36.4.91.91,1.77,1.35,2.66,3.91,7.87,7.88,15.72,11.69,23.64,1,2.19,2.27,3.31,4.91,3.21,5.48-.21,11,0,16.47-.09,2.43,0,2.63-.43,1.63-2.56-.56-1.2-1.21-2.36-1.85-3.52-4.76-8.55-9.5-17.11-14.29-25.64-.91-1.62-1.31-2.68.9-3.79,11-5.47,15.49-19.16,12-30.83-3.14-10.4-12.69-17.63-22.87-17.5-10.48.13-21,.05-31.45,0-5,0-4.49.07-4.49,4.7Zm357.74,0c0,13,0,25.95,0,38.93,0,2.23.43,3.39,3,3.29,4.49-.18,9,0,13.48-.08,3.4-.06,3.59-.28,3.63-3.8.06-5.49,0-11,0-16.47,0-2.83,0-5.66,0-8.49,0-1.73.74-2.18,2.38-2.31,2.23-.17,3.27.86,4.16,2.71,4,8.36,8.16,16.67,12.24,25,.73,1.49,1.29,3.3,3.3,3.33,6.15.09,12.31.05,18.46,0,1.65,0,1.91-1.1,1.38-2.4a25.59,25.59,0,0,0-1.42-2.62c-4.91-8.84-9.76-17.73-14.78-26.51-1.22-2.12-1-3.25,1.24-4.19,9.14-3.9,15.43-18.36,11.79-30-3.93-12.58-14.07-18.36-24-18.09s-20,.05-30,.06c-5.34,0-4.92-.51-4.92,4.73Q1125.51,149.22,1125.52,167.69Zm-265,125.8c0,11.82,0,23.64,0,35.46,0,2.34.65,3.26,3.11,3.19,5.49-.14,11,0,16.48-.05,3.75,0,3.75-.07,3.82-3.88,0-1,0-2,0-3q0-32.71,0-65.43c0-4.68,0-4.7,4.66-4.72,5.49,0,11,0,16.48,0,3.6,0,3.65-.07,3.67-3.45.05-5.17.06-10.33,0-15.49,0-3.72-.12-3.84-4-3.85-10.65,0-21.31,0-32,0-11,0-22,0-33,0-3.78,0-4,.22-4,4-.05,5,0,10,0,15,0,3.87,0,3.92,3.75,3.95,5.33.05,10.66,0,16,0,5,0,5,0,5,4.86Q860.49,276.76,860.47,293.49Zm206.91-126v21c0,5.82,0,11.65,0,17.47,0,3.21.09,3.29,3.37,3.3q20.48.06,41,0c3.62,0,3.65-.08,3.7-3.51,0-2.83,0-5.66,0-8.49,0-8.3.6-7.12-7.22-7.18-6,0-12-.09-18,0-2.21,0-2.94-.76-2.8-2.88s0-4.33,0-6.49c.07-3.41.09-3.46,3.71-3.49,5.49-.06,11-.15,16.47,0,2.46.06,3.16-.85,3.09-3.19-.15-4.49-.1-9,0-13.48,0-1.92-.66-2.66-2.6-2.6q-5.75.15-11.49,0c-2.94-.06-5.88-.32-8.82-.49-.12-3.12-.18-6.25-.36-9.38-.12-2,.45-3.21,2.75-2.94a20.68,20.68,0,0,0,2.49,0c6,0,12,0,18,0,5.44,0,4.74-.07,4.75-5,0-3.33,0-6.66,0-10,0-4.16,0-4.21-4-4.22q-20,0-40,0c-4.06,0-4.1,0-4.11,4C1067.36,142.52,1067.38,155,1067.38,167.49ZM879.16,195.18c4.33,0,8.66.07,13,0a3.55,3.55,0,0,1,3.85,2.39c1.33,3,3,5.92,4.33,9,.83,1.9,1.91,2.87,4.11,2.81,5-.13,10,0,15-.07,2.56,0,2.79-.54,1.76-3-.19-.46-.42-.9-.64-1.35q-19-38-38.12-76.05a21.32,21.32,0,0,0-2.31-3.1c-.92,1.07-1.88,2.12-2.75,3.24a10.9,10.9,0,0,0-.9,1.77Q864.71,154,853,177.36q-7.25,14.44-14.43,28.93c-1.27,2.57-1.09,2.91,1.54,3,5.15.07,10.31-.07,15.47.06,2,0,3-.9,3.72-2.56,1.38-3,3.05-5.9,4.24-9,.82-2.13,2.08-2.67,4.16-2.6C871.51,195.27,875.34,195.18,879.16,195.18Zm-129,14.3v-.23c2.83,0,5.67,0,8.5,0,2,0,2.31-.86,1.35-2.48-.42-.71-.75-1.47-1.13-2.22q-18.81-37.65-37.64-75.31c-.52-1-1-2.09-1.62-3.09-.77-1.28-1.51-1-2.14.15-.49.88-1,1.74-1.43,2.63q-12.58,24.9-25.16,49.8-6.61,13.11-13.14,26.28c-1.93,3.92-1.76,4.19,2.4,4.23,4.33,0,8.67-.11,13,.06,2.47.09,4-.61,5-3,1.1-2.77,2.71-5.33,3.83-8.1,1-2.39,2.49-3.1,5-3.05,7.5.14,15,.2,22.49,0,2.91-.08,4.77.66,5.63,3.49a11.4,11.4,0,0,0,.84,1.81c1.45,2.79,2.24,6.66,4.54,8.06C743,210,746.9,209.24,750.19,209.48Zm-180,1.63a49.8,49.8,0,0,0,17.6-3.12c3.15-1.15,3.68-2.12,2.87-5.29-1-3.85-2.24-7.62-3.43-11.41-.6-1.92-1.66-2.45-3.78-1.79a42.41,42.41,0,0,1-17.27,1.55c-17.25-1.87-24-17-20.67-29.61,2.72-10.29,11.23-16.9,22.26-17.41a50,50,0,0,1,15.77,1.73c2.84.78,3.39.37,4.25-2.52,1.1-3.65,2.1-7.32,3.05-11,.83-3.22.78-3.29-2.48-4.44a51.27,51.27,0,0,0-36.53.36c-24.84,9.58-34.3,38-21.12,61.15C539.32,204.39,553.46,210.34,570.19,211.11Zm394.69-86.2c-12.55-.32-23.2,2.91-32.09,10.64-10.28,8.93-15,20.4-14.3,34.08.49,10.16,3.77,19.09,10.65,26.67C937,205,947,209.43,958.33,210.82a50.1,50.1,0,0,0,23-2.86c3-1.08,3.51-2.21,2.61-5.29-1-3.49-2.06-7-3.21-10.43s-1.18-3.39-4.47-2.53A43.87,43.87,0,0,1,959,191c-14.83-2.06-21.29-12.17-21-24.1a23,23,0,0,1,23.57-22.78,131.6,131.6,0,0,1,15.28,1.64c3.28.46,3.62.44,4.56-2.81s1.83-6.7,2.74-10.05c1-3.64.79-4.11-3-5.42A43.62,43.62,0,0,0,964.88,124.91ZM1014.63,177c0,9.66,0,19.32,0,29,0,2.24.46,3.38,3,3.29,4.66-.16,9.33-.15,14,0,2.5.08,3.09-1,3-3.25-.12-5.66,0-11.33,0-17,0-13.66.06-27.32,0-41,0-2.39.65-3.19,3.08-3.1,4.82.18,9.66,0,14.49.09,2.31.05,3.38-.69,3.33-3.12-.1-4.17,0-8.33,0-12.5-.06-3.2-.21-3.36-3.45-3.39-7.33-.06-14.66,0-22,0-10.83,0-21.66,0-32.48,0-2.34,0-3.29.62-3.2,3.08.16,4.33.17,8.67,0,13-.1,2.54,1,3.09,3.26,3,4.49-.13,9-.07,13.49,0,3.53,0,3.59.06,3.6,3.47C1014.65,158,1014.63,167.53,1014.63,177Zm-15,3.23c0-5.66,0-11.32,0-17,0-2.49.57-3.33-3.36-3.27-2,0-3.92-.55-5.89-.64a11.06,11.06,0,0,0-4.26.41,21.89,21.89,0,0,1-11.74.72,93.73,93.73,0,0,0-12.84-1.41,7.91,7.91,0,0,0-7.87,5.1c-1.88,4.24-.35,11.53,7.23,11.82a64.6,64.6,0,0,0,14.28-1.51A16.67,16.67,0,0,1,986.29,176a17.15,17.15,0,0,1,8.3,10.17c1.33,3.93,2.46,7.92,3.74,11.86a7.06,7.06,0,0,0,1,1.56,11.14,11.14,0,0,0,.3-1.88C999.65,191.91,999.64,186.09,999.64,180.26ZM588.43,167.49v-2c0-4.17,0-4.14-4.09-4.54-1.14-.11-2.25-.52-3.39-.63-4.59-.45-9.2-1.22-13.79-1.14a7.66,7.66,0,0,0-7.43,7.3c-.44,4.86,1.7,8.25,6.2,9.38a15,15,0,0,0,5.38.36c4.41-.55,8.78-1.48,13.19-2.08,3.87-.53,3.89-.42,3.93-4.18Zm130.27,50c1,0,2,0,3,0,1.8-.05,3.6-.13,5.39-.2a54.71,54.71,0,0,0-2.35-5.76,3.24,3.24,0,0,0-2.33-1.28c-2.29-.17-4.61.05-6.91-.1a3.32,3.32,0,0,0-3.78,2.37,26.15,26.15,0,0,1-1.52,3.1c-.68,1.27-.17,1.84,1.12,1.86C713.76,217.53,716.23,217.5,718.7,217.5Zm161.37-7.3a26.39,26.39,0,0,0-4,.05,3.82,3.82,0,0,0-2.42,1.22,27.8,27.8,0,0,0-2.44,4.88c-.11.29.48,1.25.75,1.25q7.72.1,15.46,0c.35,0,1-.88,1-1.27-.52-3.93-3.19-6.11-7.35-6.12ZM636.5,226.78c1.25-1.78,2.92-3.12,2.85-4.35s-1.81-2.57-3.13-3.2c-.48-.24-2.83,1.73-2.69,2.2C634.06,223.17,635.27,224.7,636.5,226.78ZM833.18,182c.37-.15.83-.18.92-.38,1.21-2.63,2.37-5.28,3.52-7.94,0-.09-.15-.27-.23-.42-1.66,1.94-3.4,3.82-4.94,5.85-.33.45,0,1.45.14,2.18C832.64,181.58,833,181.8,833.18,182Z"/><path class="cls-3" d="M54.74,439.14a61.87,61.87,0,0,1,2.14-8c6.71-17,13.65-33.86,20.36-50.83,2.22-5.62,6.16-9.79,10.34-13.87a56.71,56.71,0,0,0,4-4.85c-1.64-1.13-3.25-2.31-4.93-3.37A28.2,28.2,0,0,1,74.88,344.4,9,9,0,0,0,72,340.65a26.23,26.23,0,0,1-10.77-17.9c-1.93-13-3.51-26-5.29-39-1.82-13.33-3.71-26.66-5.56-40Q48.14,227.94,46,212.12q-2.87-20.73-5.72-41.48c-.4-3-.88-5.92-1.21-8.89a21,21,0,0,1,5.6-17.46A7.79,7.79,0,0,0,47,137.67c-.71-9.6,3.22-17.09,10.79-22.83,2.31-1.74,2.35-1.8.34-3.81-10-10-20.08-20-30-30.1A30.76,30.76,0,0,1,22,72.59C18,64,19.6,55.73,26,49c10.42-11,21.23-21.65,32.1-32.21,10.32-10,23.67-7.76,32.05.75,16.37,16.61,33,33,49.4,49.56,2.15,2.18,3.81,2.8,6.77,1.63q45.55-18.14,91.21-36a72.56,72.56,0,0,1,9.42-3.2,21.58,21.58,0,0,1,13.66,1.35c2,.84,3.82,1.28,6.12.29,6.62-2.83,13.23-2.09,19.85.53q39.11,15.48,78.28,30.79c5.25,2.07,10.53,4.08,15.7,6.32,2.45,1.07,4,.81,6-1.21,15.79-16,31.74-31.87,47.65-47.77,1.3-1.29,2.6-2.59,4-3.81,8.9-7.94,21.15-7.95,29.75.38,10.65,10.31,21,21,31.53,31.36,9.89,9.74,8.76,24-.49,32.81-9.76,9.32-19.13,19-28.66,28.59-.71.7-1.38,1.45-2.13,2.11-1.46,1.28-1.55,2,.34,3.25a24.48,24.48,0,0,1,11.77,18.21,20,20,0,0,1-.06,6.41,4.12,4.12,0,0,0,1.43,4.35c5.53,5.35,7.49,11.85,6.4,19.49-2.75,19.25-5.36,38.51-8,57.78-2.48,18.28-4.85,36.57-7.36,54.85-2.19,16-4.53,31.91-6.74,47.88A25.18,25.18,0,0,1,455.8,340.6a9.21,9.21,0,0,0-3.11,3.6c-2.42,6.35-6.7,11-12.34,14.58s-5.6,3.75-.72,8.29a43.3,43.3,0,0,1,10.94,16.42c6,15.46,12.33,30.81,18.54,46.2,1.69,4.2,3,8.44,2.33,13.07a21.84,21.84,0,0,1-29.87,17.4c-12.12-5-24.32-9.79-36.48-14.69-5.23-2.11-10.42-4.32-15.68-6.38a27.93,27.93,0,0,1-9.87-6.57c-6.06-6.19-12.3-12.2-18.31-18.44-1.73-1.8-2.87-1.87-4.94-.49-14.56,9.64-29.32,19-43.81,28.71-6.8,4.56-13.76,6.47-21.67,3.85a3.49,3.49,0,0,0-4,1.08,84.62,84.62,0,0,1-6.56,6.14,24.68,24.68,0,0,1-31.67,0c-2.69-2.22-5.17-4.7-7.67-7.13a2.79,2.79,0,0,0-3.48-.71c-7.74,3-14.89,1.61-21.75-2.94-14.54-9.66-29.21-19.13-43.83-28.67-3.81-2.49-3.83-2.5-6.91.57-5.66,5.65-11.36,11.25-16.94,17a34.85,34.85,0,0,1-12.3,8.28q-24.51,9.75-48.93,19.76C79,462.7,71.59,462.84,64.47,458,58.25,453.75,55.28,447.71,54.74,439.14ZM445.9,426.65a19.16,19.16,0,0,0-.73-3.81q-6.44-16.06-13-32.08a62.08,62.08,0,0,0-3.16-5.83L384.59,340.3c-.12-.12-.25-.22-.36-.35-1.15-1.42-2.16-1.05-3.27.13-1.83,1.94-3.76,3.78-5.64,5.67-8.37,8.36-16.7,16.75-25.12,25.06-1.49,1.47-1.73,2.5-.09,4,3,2.85,5.91,5.87,8.86,8.81l35.8,35.54a18.75,18.75,0,0,0,3.57,2.48q14.79,6,29.68,11.87c2.73,1.06,5.61,1.69,8.43,2.51,4,1.85,8,3.77,12,5.48a3.18,3.18,0,0,0,2.58-.58c.38-.29.36-1.53.09-2.17C449.47,434.71,447.67,430.69,445.9,426.65ZM90.25,436a19.64,19.64,0,0,0,3.8-.72q18.12-7.19,36.17-14.54c.69-.27,1.16-1.08,1.74-1.63q22.11-22,44.21-44.1c2.58-2.57,2.56-2.67-.23-5.47q-12.67-12.75-25.42-25.45c-1.53-1.54-3.07-3.05-4.59-4.59-1-1-1.94-1.19-3-.15-.71.71-1.43,1.4-2.13,2.11q-20.32,20.31-40.63,40.64c-1.15,1.15-2.08,2.52-3.12,3.79a8.36,8.36,0,0,0-1.42,1.77c-3.23,7.63-6.47,15.25-9.55,22.94C83.92,416,82,421.54,80,427c-1.55,3.8-3.17,7.58-4.6,11.42a3.06,3.06,0,0,0,.24,2.65,2.87,2.87,0,0,0,2.56.25C82.23,439.65,86.23,437.82,90.25,436ZM263.91,301.16h116c1.5,0,3,.08,4.5-.06,3.33-.33,5.11-2.46,4.57-5.78a11,11,0,0,0-1.84-4q-8.14-12.52-16.42-25-32.22-48.62-64.48-97.22-18.48-27.84-37-55.62c-3.34-5-7.08-4.94-10.49,0-2.72,4-5.32,8-8,12.06q-54.49,82-109,164.09a37.42,37.42,0,0,0-2.19,3.33c-2.18,4.15-.18,7.81,4.44,8.12,1.32.09,2.66,0,4,0Zm-.42,11q-56.46,0-112.92,0a20.81,20.81,0,0,0-5.41.55c-4,1.11-5.27,4.74-2.8,8.12a27.84,27.84,0,0,0,3.12,3.22q20.49,20.14,41,40.27,21.53,21.23,43,42.52,14.94,14.73,30,29.35c4.06,4,5.89,3.92,10.05-.1l1.06-1.06,111.3-111.31a28.84,28.84,0,0,0,2.75-2.89c2.5-3.29,1.3-7-2.75-8.09a22.9,22.9,0,0,0-5.91-.58Q319.7,312.18,263.49,312.2Zm20-197.7a42.22,42.22,0,0,0,2.44,4.68q54.21,81.57,108.48,163.1a18.45,18.45,0,0,0,1.69,2.46c3,3.25,6.85,2.72,8.93-1.21a20,20,0,0,0,.9-2.3q17.89-47.18,35.77-94.34,8.89-23.47,17.7-47c2.19-5.85.88-8.19-5.37-9.3-4.73-.84-9.54-1.22-14.3-1.88-11-1.53-22-3.16-33-4.65s-22-2.83-33.05-4.31q-17.49-2.34-35-4.8c-8.38-1.16-16.74-2.36-25.12-3.52-8-1.11-16.09-2.26-24.15-3.25C286,107.78,283.63,110,283.53,114.5Zm-46.59-6.4c-2.5.3-6,.68-9.42,1.16-11.16,1.55-22.31,3.18-33.48,4.68-11,1.49-22,2.81-33,4.31-15.76,2.16-31.49,4.49-47.26,6.62-13.63,1.84-27.29,3.52-40.94,5.26-4.32.55-7.4,3.57-5.24,8.41.47,1.06.82,2.17,1.23,3.26q24.38,64.62,48.74,129.25c1.47,3.88,2.82,7.8,4.44,11.61,1.87,4.39,6.42,5,9.53,1.31a29.73,29.73,0,0,0,2-2.87L216,157q13.25-19.9,26.51-39.81c1.4-2.09,2.08-4.14.86-6.5C242.18,108.52,240.25,107.83,236.94,108.1Zm-142.26,10c1.74-.36,3-.69,4.33-.88q25.58-3.63,51.14-7.24a10.85,10.85,0,0,0,2.26-.84,10.87,10.87,0,0,0-1.35-2.3Q130.81,86.46,110.49,66.2q-17-16.94-33.89-33.87c-2.75-2.73-2.88-2.78-5.15-.52-10,10-20,20-30,30-1.78,1.75-1.59,3,.17,4.48.64.53,1.18,1.17,1.77,1.76L90,114.6a22.92,22.92,0,0,0,2.5,2.43A10.24,10.24,0,0,0,94.68,118.05Zm337.72-.16a18.47,18.47,0,0,0,3.11-2.21q24.06-24,48-48c3.56-3.57,3.54-3.88-.14-7.58q-13.59-13.61-27.2-27.19c-3.4-3.39-3.41-3.37-6.92.1l-.35.35-72.06,72c-.71.71-1.4,1.43-2.12,2.12-1.11,1.07-.71,1.65.61,1.92,1.13.23,2.27.46,3.41.61,5.75.79,11.51,1.49,17.25,2.34C407.82,114.13,419.6,116,432.4,117.89ZM256.86,72.48c0-5.83.07-11.65,0-17.47-.06-3.39-2-5.81-4.83-5.86a11.63,11.63,0,0,0-4.29,1q-25.66,10-51.3,20.17-22.86,9-45.75,17.94c-3.46,1.36-3.56,1.63-1.07,4.15,4.55,4.62,9.11,9.23,13.79,13.73a4.86,4.86,0,0,0,3.34,1.39c4.45-.39,8.88-1,13.31-1.71,12.44-1.87,24.86-3.8,37.3-5.67,11.14-1.67,22.28-3.25,33.41-5,4.92-.75,6.07-2.21,6.11-7.25S256.86,77.63,256.86,72.48ZM361.3,107.94a5.23,5.23,0,0,0,2.17-1c5.24-5.11,10.38-10.33,15.57-15.49,1.14-1.14.35-1.69-.62-2.15-.44-.22-1-.25-1.43-.43Q339.8,74.16,302.63,59.45c-8-3.16-16-6.22-24-9.41-2.18-.86-4.14-.92-6,.57s-1.9,3.35-1.9,5.4c0,10.82,0,21.63,0,32.45,0,5.12,1.14,6.62,6.08,7.36,10.16,1.53,20.35,2.82,30.52,4.26,8.2,1.16,16.39,2.39,24.58,3.58ZM87.44,325a26.41,26.41,0,0,0,3.23-1.58q10.53-6.65,21-13.39c5.76-3.72,6-4.7,3.64-10.95q-26.2-68.73-52.43-137.46c-.55-1.43-.64-4.07-2.62-3.6-2.39.56-1.09,3-.86,4.63,1.13,8.38,2.37,16.74,3.51,25.12,1.16,8.54,2.23,17.1,3.39,25.64,1.19,8.71,2.46,17.4,3.65,26.1,1.12,8.22,2.14,16.45,3.27,24.66,1.55,11.33,3.17,22.65,4.75,34,1,7.23,2,14.46,3,21.68C81.46,323.17,83.64,325.13,87.44,325ZM468.08,161.69c-.15-.75-.22-3.25-.73-3.35-2.28-.42-2,2-2.76,3.3a6.18,6.18,0,0,0-.43.9q-26.25,68.93-52.47,137.85c-1.85,4.87-1.43,6.35,2.84,9.13,6.81,4.45,13.68,8.8,20.51,13.21,7.24,4.66,10.81,2.85,11.78-5.74.94-8.39,2.11-16.77,3.25-25.14,1.21-8.86,2.53-17.7,3.75-26.56,1.13-8.21,2.18-16.43,3.32-24.63,1.19-8.7,2.44-17.39,3.67-26.08s2.48-17.38,3.67-26.07S466.82,171.1,468.08,161.69Zm-34.29,175.6c.15-3.42-1.22-5-3.17-6.15-6.94-4.21-13.82-8.51-20.81-12.63-3.41-2-4.8-1.82-7.57.81-3.86,3.65-7.51,7.52-11.32,11.22-1.3,1.25-1.07,2.1.1,3.25q9.24,9.09,18.35,18.29a2.75,2.75,0,0,0,3.95.49c6.07-4,12.22-7.95,18.2-12.11C432.73,339.62,433.35,337.92,433.79,337.29ZM93,335.68c1.07,1.76,1.58,3.57,2.76,4.39,6.14,4.22,12.47,8.17,18.7,12.27,1.14.76,2,.9,3-.15q9.32-9.37,18.69-18.67c1.14-1.14,1.37-2.19.16-3.39-3.9-3.86-7.7-7.82-11.7-11.56a5,5,0,0,0-6.42-.74c-7.36,4.48-14.79,8.84-22,13.47C94.8,332.16,94.12,334.05,93,335.68Zm138.47,90.05c-1.27-1.46-2.16-2.61-3.18-3.63q-16.74-16.8-33.51-33.55c-2.71-2.7-5.5-5.33-8.08-8.16-1.68-1.84-2.87-1.61-4.45.1-2.37,2.57-4.95,4.93-7.39,7.43-2.3,2.35-2.3,2.42.39,4.19q25.38,16.68,50.8,33.31a10.08,10.08,0,0,0,3.09,1.47C229.64,427,230.37,426.3,231.44,425.73Zm122.9-35.08a25,25,0,0,0-1.62-2.08c-2.45-2.49-4.94-4.94-7.39-7.42s-2.36-2.62-5,0q-20.43,20.46-40.88,40.91c-1.21,1.22-3.76,2.58-2.48,4.31,1.63,2.22,3.58-.24,5.05-1.18,11.44-7.34,22.79-14.81,34.18-22.22,5.27-3.44,10.57-6.84,15.83-10.3A21.27,21.27,0,0,0,354.34,390.65Z"/><path class="cls-4" d="M1173.23,347.38l-19.89-1a2.92,2.92,0,0,0-1-.05c-8.23,2.69-14.06-1.6-19.6-6.73-.61-.56-1.26-1.09-1.87-1.66-1.17-1.09-1.81-.85-2.53.62-3.24,6.61-9,9-16,9.07-4,.06-8-.27-12-.45a17,17,0,0,0-3-.3c-8.29,1.1-16.53.4-24.84.06-11.79-.49-23.62.1-35.44.15-4.11,0-8.19-.68-12.33-.11-3.49.48-6.46-1.16-9.2-3.16-.81-.58-1.61-1.17-2.39-1.8-1.93-1.57-3.85-3.16-5.77-4.75-1.37,1.75-2.7,3.52-4.11,5.22-3.12,3.77-7.53,4.74-12,5.11a79.67,79.67,0,0,1-10.48,0c-4.24-.21-8.3-1.32-11.29-4.51-1.83-1.95-3.32-1.39-5.24-.39-6.63,3.48-13.73,4.64-21.2,4.43-17.86-.49-35-14-39.41-32.57a42.62,42.62,0,0,1,33.88-52.24,40.42,40.42,0,0,1,26.68,3.77c2.05,1.07,3.37,1.1,5.18-.61,6.18-5.82,14.71-5.25,20.85-.11,2.17,1.82,4.31,3.67,6.46,5.51.8.69,1.36,1.25,2.11-.26,3.72-7.57,10.28-9.78,18.2-9.53,9.79.3,19.57.55,29.36.54,7.67,0,13,3.16,16.09,10.24.21.49.76.82,1.14,1.23a5.52,5.52,0,0,0,.83-1.14c3.19-8.21,9.73-10.85,17.88-10.67,4.15.09,8.3.41,12.45.57a15,15,0,0,0,4-.11c5.12-1.2,9.5.34,13.47,3.43,2.23,1.74,4.32,3.66,6.48,5.48,1.1.92,2,.92,2.72-.51,3.63-7.23,10-9.29,17.46-9,4.47.16,8.92.67,13.39.79,2.3.06,4.62-.55,6.93-.56,9.66-.07,19.32-.13,29,0a17,17,0,0,1,9,2.6,15.11,15.11,0,0,1,7.23,12.42c.29,4.64.11,9.32,0,14a10.53,10.53,0,0,1-1,3.84,24.25,24.25,0,0,0-.18,19.64,19.82,19.82,0,0,1,1.18,6.32c.18,3.82.13,7.66,0,11.49a15.53,15.53,0,0,1-15.26,15.3c-5.33.17-10.66,0-16,0ZM972.87,304.62c.86-15.68-13.45-27.9-27-28a28.26,28.26,0,0,0-28.41,27.3c-.4,15.37,13.76,28.38,27.51,28.33C960.66,332.22,973.52,319.09,972.87,304.62Zm174.94-.21c0-8.16,0-16.32,0-24.48,0-3.77-.07-3.87-3.85-3.82-11,.14-9.09-1.63-9.25,9.12-.07,5,0,10,0,15a12.29,12.29,0,0,1-.65,2.66,23.72,23.72,0,0,1-2.1-1.15c-.54-.37-1-.89-1.49-1.32q-13.08-11.19-26.18-22.35a9.21,9.21,0,0,0-2.13-1,10.43,10.43,0,0,0-.51,2.27c0,8.83,0,17.65,0,26.48,0,7.66,0,15.32.09,23,0,3.65.21,3.82,3.48,3.93,2.16.07,4.34-.13,6.49,0,2.5.2,3.16-.88,3.11-3.2-.14-6.66-.12-13.32-.16-20a25.36,25.36,0,0,1,.06-3.49c0-.29,1-.79,1.26-.65a28.19,28.19,0,0,1,2.7,2.2q13.26,11.34,26.54,22.66a16,16,0,0,0,2,1.29,14.39,14.39,0,0,0,.54-2.72C1147.83,320.73,1147.81,312.57,1147.81,304.41ZM1025.67,304c0-8.15,0-16.31,0-24.46,0-3.32-.08-3.35-3.2-3.42-2.16,0-4.33,0-6.49,0-3.27.06-3.35.08-3.37,3.28,0,7.32,0,14.64,0,22,0,.66-.11,1.32-.17,2a8.83,8.83,0,0,1-2-1c-9.36-8-18.67-16-28-24a10,10,0,0,0-2.52-1.14,15.57,15.57,0,0,0-.37,2.42q0,22.22.11,44.43c0,1.83.12,3.67,0,5.49-.17,2.27.92,2.87,2.95,2.78a60.37,60.37,0,0,1,7,0c2.35.16,3.24-.61,3.17-3.08-.18-6.15-.13-12.31-.12-18.47,0-1.8.18-3.6.29-5.4,1.6,1.12,3.22,2.23,4.8,3.37.54.39,1,.89,1.5,1.33q11.7,10.1,23.42,20.16a15.69,15.69,0,0,0,2.54,1.43,14.24,14.24,0,0,0,.52-2.71C1025.68,320.62,1025.67,312.3,1025.67,304ZM1173.54,332c2.16,0,4.33.08,6.49,0,3.09-.14,6.17-.41,9.26-.63.09-3.14.1-6.29.28-9.43.12-2.12-.63-3-2.83-2.89-4.16.14-8.33.08-12.49,0-3.45,0-3.49-.09-3.49-3.67,0-4.83-.44-4.55,4.62-4.53.5,0,1,0,1.5,0l9.3-.6.39-9.89c0-.17,0-.34,0-.5.11-1.53-.7-2-2.11-2-3.17.05-6.33,0-9.5,0-4.7,0-4.18.12-4.21-4.42,0-.5,0-1,0-1.5-.11-1.87.73-2.8,2.63-2.79,2.49,0,5,.08,7.49,0,2.77-.11,5.53-.37,8.29-.57.13-2.8.37-5.59.38-8.38,0-3.85-.12-4-3.85-4-6.5-.06-13-.1-19.49,0-2.77.05-5.53.49-8.29.76-.13,2.64-.35,5.29-.35,7.93,0,14.66,0,29.32-.06,44,0,2.35.58,3.25,3.06,3.15C1164.87,331.91,1169.21,332,1173.54,332Zm-121.59,0c2.66,0,5.33.08,8,0,3.1-.13,6.19-.42,9.28-.65.1-3.13.15-6.27.33-9.41.11-2.06-.53-3.06-2.79-3-3.16.14-6.33.1-9.5,0-2.77-.08-5.53-.33-8.3-.51-.12-2.63-.34-5.26-.35-7.89,0-10.16,0-20.32-.06-30.49,0-3.29-.09-3.32-3.27-3.39-2.5-.06-5,.11-7.49,0s-3.09,1-3,3.28c.12,7,0,14,.06,21,0,9.33.09,18.66,0,28,0,2.45.81,3.2,3.18,3.14C1042.62,332,1047.28,332.08,1052,332.08Zm40.45-27.47h0c0-8.32,0-16.63,0-24.94,0-3.16-.31-3.37-3.43-3.47-2.16-.08-4.32,0-6.49,0-3.77.05-3.82.06-3.83,3.83,0,10.65,0,21.29,0,31.93,0,5.65,0,11.31,0,17,0,3.6.17,3.72,3.56,3.84,2.16.07,4.32.06,6.48,0,3.43-.09,3.7-.3,3.72-3.7C1092.43,320.9,1092.4,312.76,1092.4,304.61Z"/><path class="cls-5" d="M675.85,282.23q0,23,0,45.95c0,3.84-.06,3.89-3.76,3.91q-9,.06-18,0c-4,0-4.1-.15-4.12-4.32,0-10.15,0-20.31,0-30.47,0-4.13-.05-4.16-4-4.18-6.49,0-13-.05-19.48,0-3.48,0-3.61.15-3.62,3.73-.05,10.49,0,21,0,31.46,0,3.71-.06,3.75-3.89,3.77q-9,.06-18,0c-4,0-4-.07-4-4.24q0-20.73,0-41.46,0-24.72,0-49.45c0-4.67.11-4.75,4.72-4.77q8.49,0,17,0c4.12,0,4.17.05,4.18,4.05,0,9.49,0,19,0,28.48,0,1,0,2,0,3,.08,3.32.08,3.37,3.23,3.41,4.49,0,9,0,13.49,0h6c4.73,0,4.42.21,4.42-4.25,0-9.33,0-18.65,0-28-.05-7.77.09-6.72,6.77-6.74,5,0,10,0,15,0,4.08,0,4.14.05,4.14,4.1Q675.89,259.25,675.85,282.23Z"/><path class="cls-6" d="M692.91,282.51q0-22.49,0-45c0-5.35,0-5.37,5.12-5.38H745.5c.83,0,1.66,0,2.5,0,1.82,0,2.68.92,2.67,2.8,0,6,0,12,0,18,0,2.65-1.62,2.88-3.64,2.87q-12,0-24,0c-1.17,0-2.33,0-3.5,0-1.45,0-2.09.65-2.07,2.1,0,3.5.06,7,0,10.49-.06,2.07,1,2.47,2.77,2.45,6.67-.07,13.33-.05,20-.05a12.14,12.14,0,0,1,3.47.1c.73.22,1.73,1.2,1.75,1.86.13,6.16.09,12.32.08,18.48,0,2.22-1.36,2.72-3.31,2.7-6.16,0-12.32,0-18.48,0-1,0-2,0-3,0-3.18.12-3.3.13-3.24,3.36.06,3.76.35,7.52.54,11.28,3.63.13,7.26.33,10.9.37,6,.06,12,0,18,0,3.63,0,3.69.07,3.72,3.49,0,5.5-.09,11,.06,16.49.07,2.44-.83,3.14-3.18,3.13-17.15-.07-34.3,0-51.46-.06-3,0-3.12-.13-3.13-3.6Q692.88,305.5,692.91,282.51Z"/><path class="cls-5" d="M765.82,282.52q0-22.49,0-45c0-5.35,0-5.37,5.11-5.38h47.48c.83,0,1.67,0,2.5,0,1.84,0,2.68,1,2.67,2.81q0,9,0,18c0,2.22-1.2,2.86-3.16,2.85-5.17,0-10.33,0-15.5,0-4.16,0-8.33.06-12.49,0-2,0-2.66.75-2.6,2.67.1,3,0,6,0,9,.08,3.19.21,3.35,3.48,3.37,6.83.05,13.66,0,20.49,0,4.38,0,4.51.14,4.55,4.43.05,5.16,0,10.33,0,15.49,0,2.32-1,3.26-3.31,3.23-7.33-.07-14.66,0-22,0-3.21,0-3.32.11-3.27,3.33.07,3.77.35,7.54.53,11.31,3.64.12,7.27.31,10.91.35,6.16.06,12.33,0,18.49,0,3.67,0,3.73.07,3.76,3.46,0,5.5-.09,11,.06,16.49.07,2.44-.81,3.17-3.17,3.16-17.16-.07-34.32,0-51.48-.06-3.06,0-3.14-.13-3.15-3.57Q765.78,305.52,765.82,282.52Z"/><path class="cls-7" d="M669.5,167.65q0,18.73,0,37.48c0,4.06,0,4.09-4.14,4.12-4.49,0-9,0-13.49,0-4.11,0-4.14,0-4.16-4,0-7.83,0-15.66,0-23.49a9.46,9.46,0,0,0-.08-3c-.24-.72-1.12-1.72-1.73-1.73-6.33-.13-12.66,0-19-.1-2.39,0-2.09,1.56-2.09,3q0,11.24,0,22.49c0,6.77,0,6.77-6.92,6.77-4,0-8,0-12,0-1.66,0-2.49-.61-2.38-2.34,0-.83,0-1.67,0-2.5q0-36.74,0-73.48c0-5.3-.42-5,4.72-5,4.5,0,9,.11,13.5,0,2.41-.08,3.16.74,3.12,3.14-.12,8.16,0,16.32,0,24.49,0,4.93-.42,4.72,4.45,4.71s9.66,0,14.49,0c3.92,0,4-.05,4-4.16,0-8,0-16,0-24,0-4.07,0-4.09,4-4.12,4.49,0,9,0,13.49,0,4.16,0,4.24.06,4.25,4.16C669.52,142.65,669.5,155.15,669.5,167.65Z"/><path class="cls-8" d="M553,334.06c-8.78.36-16.91-1.73-24.71-5.26-3-1.34-3-1.51-1.8-4.47,2-4.74,4.17-9.39,6.18-14.11.91-2.13,2.13-2.36,4.34-1.77a132.31,132.31,0,0,0,16,3.39c2.7.36,5.58-.44,8.34-.92a5.94,5.94,0,0,0,5.18-4.75c.57-2.73-.75-5-2.87-6.49-2.81-2-5.82-3.82-8.79-5.64-5.93-3.65-12.05-7-17.79-10.94-5.57-3.8-10.14-8.68-11.61-15.6-2.79-13.18,1.57-25.35,13.26-31.43a40.75,40.75,0,0,1,27-4.25c5,1,10,2,15,3.27,3.08.81,3.11,1.16,2.15,4.14q-2.36,7.32-4.88,14.59c-1.15,3.31-1.22,3.33-4.43,2.21-5.35-1.87-10.74-3.44-16.49-3.2-1,0-2,0-3,.1-3.17.38-5.74,1.63-6.76,5-.74,2.4.53,6.06,3.08,7.85,2.71,1.91,5.62,3.52,8.46,5.24,6.52,3.95,13.41,7.39,19.49,11.92,14.64,10.92,12.82,28.82,3.52,39.54C574.19,331.24,564.32,334.62,553,334.06Z"/><path class="cls-7" d="M767.78,167.66V130.71c0-4.63-.56-4.72,4.49-4.7,10.49,0,21,.11,31.45,0,10.18-.13,19.73,7.1,22.87,17.5,3.52,11.67-1,25.36-12,30.83-2.21,1.11-1.81,2.17-.9,3.79,4.79,8.53,9.53,17.09,14.29,25.64.64,1.16,1.29,2.32,1.85,3.52,1,2.13.8,2.53-1.63,2.56-5.49.07-11-.12-16.47.09-2.64.1-3.86-1-4.91-3.21-3.81-7.92-7.78-15.77-11.69-23.64-.44-.89-.95-1.75-1.35-2.66-1-2.36-3.07-1.7-4.71-1.36-.58.12-1.16,1.79-1.17,2.77-.1,7.82,0,15.64-.07,23.46,0,4.4-.14,4.52-4.41,4.57-4,0-8,.06-12,0-3.4-.06-3.66-.3-3.67-3.75C767.76,193.28,767.78,180.47,767.78,167.66Zm20.07-15.25h-.16q.25,3.95.5,7.89c2.77.21,5.53.46,8.29.6a36.27,36.27,0,0,0,5,0c4.76-.43,7.35-3.73,7.21-9-.12-4.44-2.94-7.48-7.46-7.7-3.66-.17-7.33,0-11-.05-1.64,0-2.48.52-2.4,2.29C787.92,148.41,787.85,150.41,787.85,152.41Z"/><path class="cls-7" d="M1125.52,167.69q0-18.48,0-36.94c0-5.24-.42-4.72,4.92-4.73,10,0,20,.21,30-.06s20,5.51,24,18.09c3.64,11.68-2.65,26.14-11.79,30-2.21.94-2.46,2.07-1.24,4.19,5,8.78,9.87,17.67,14.78,26.51a25.59,25.59,0,0,1,1.42,2.62c.53,1.3.27,2.39-1.38,2.4-6.15.05-12.31.09-18.46,0-2,0-2.57-1.84-3.3-3.33-4.08-8.34-8.21-16.65-12.24-25-.89-1.85-1.93-2.88-4.16-2.71-1.64.13-2.42.58-2.38,2.31.06,2.83,0,5.66,0,8.49,0,5.49,0,11,0,16.47,0,3.52-.23,3.74-3.63,3.8-4.49.09-9-.1-13.48.08-2.58.1-3-1.06-3-3.29C1125.55,193.64,1125.52,180.67,1125.52,167.69Zm28.36-23.53h0c-2,0-4,.07-6,0-1.77-.08-2.31.75-2.28,2.39q.08,6,0,12c0,1.59.42,2.48,2.23,2.44,3.83-.08,7.67.15,11.49-.09,4.51-.29,7.07-3.54,7.17-8.6a7.58,7.58,0,0,0-7.12-8.07C1157.55,144,1155.71,144.16,1153.88,144.16Z"/><path class="cls-9" d="M860.47,293.49q0-16.73,0-33.47c0-4.84,0-4.85-5-4.86-5.32,0-10.65,0-16,0-3.7,0-3.73-.08-3.75-3.95,0-5-.05-10,0-15,0-3.73.21-3.94,4-4,11,0,22,0,33,0,10.65,0,21.31,0,32,0,3.92,0,4,.13,4,3.85.06,5.16.05,10.32,0,15.49,0,3.38-.07,3.42-3.67,3.45-5.5,0-11,0-16.48,0-4.62,0-4.66,0-4.66,4.72q0,32.72,0,65.43c0,1,0,2,0,3-.07,3.81-.07,3.85-3.82,3.88-5.5,0-11-.09-16.48.05-2.46.07-3.13-.85-3.11-3.19C860.52,317.13,860.47,305.31,860.47,293.49Z"/><path class="cls-7" d="M1067.38,167.49c0-12.48,0-25,0-37.45,0-4,0-4,4.11-4q20,0,40,0c3.93,0,4,.06,4,4.22,0,3.33,0,6.66,0,10,0,4.92.69,5-4.75,5-6,0-12,0-18,0a20.68,20.68,0,0,1-2.49,0c-2.3-.27-2.87.92-2.75,2.94.18,3.13.24,6.26.36,9.38,2.94.17,5.88.43,8.82.49q5.74.12,11.49,0c1.94-.06,2.64.68,2.6,2.6-.08,4.49-.13,9,0,13.48.07,2.34-.63,3.25-3.09,3.19-5.49-.14-11,0-16.47,0-3.62,0-3.64.08-3.71,3.49,0,2.16.1,4.33,0,6.49s.59,2.92,2.8,2.88c6-.13,12-.08,18,0,7.82.06,7.21-1.12,7.22,7.18,0,2.83,0,5.66,0,8.49-.05,3.43-.08,3.5-3.7,3.51q-20.48.06-41,0c-3.28,0-3.34-.09-3.37-3.3-.06-5.82,0-11.65,0-17.47Z"/><path class="cls-7" d="M879.16,195.18c-3.82,0-7.65.09-11.47,0-2.08-.07-3.34.47-4.16,2.6-1.19,3.09-2.86,6-4.24,9-.75,1.66-1.69,2.61-3.72,2.56-5.16-.13-10.32,0-15.47-.06-2.63,0-2.81-.38-1.54-3q7.16-14.49,14.43-28.93Q864.71,154,876.44,130.7a10.9,10.9,0,0,1,.9-1.77c.87-1.12,1.83-2.17,2.75-3.24a21.32,21.32,0,0,1,2.31,3.1q19.11,38,38.12,76.05c.22.45.45.89.64,1.35,1,2.5.8,3-1.76,3-5,.08-10-.06-15,.07-2.2.06-3.28-.91-4.11-2.81-1.33-3-3-5.92-4.33-9a3.55,3.55,0,0,0-3.85-2.39C887.82,195.25,883.49,195.18,879.16,195.18Zm0-20.27h0c1.66,0,3.32,0,5,0,1.43,0,1.71-1,1.22-2-1.42-3-2.94-5.93-4.46-8.87-.64-1.23-1.45-1.28-2.11,0-1.08,2.05-2.06,4.15-3.11,6.22-2.85,5.57-2.27,4.64,3,4.71Z"/><path class="cls-7" d="M750.19,209.48c-3.29-.24-7.19.52-9.69-1-2.3-1.4-3.09-5.27-4.54-8.06a11.4,11.4,0,0,1-.84-1.81c-.86-2.83-2.72-3.57-5.63-3.49-7.49.22-15,.16-22.49,0-2.49,0-4,.66-5,3.05-1.12,2.77-2.73,5.33-3.83,8.1-1,2.42-2.53,3.12-5,3-4.33-.17-8.67,0-13-.06-4.16,0-4.33-.31-2.4-4.23q6.53-13.17,13.14-26.28,12.55-24.92,25.16-49.8c.45-.89.94-1.75,1.43-2.63.63-1.14,1.37-1.43,2.14-.15.59,1,1.1,2.05,1.62,3.09q18.83,37.65,37.64,75.31c.38.75.71,1.51,1.13,2.22,1,1.62.65,2.49-1.35,2.48-2.83,0-5.67,0-8.5,0ZM718.54,174.9c1.49,0,3,0,4.47,0s1.66-.67,1-1.88c-1.48-3-2.89-5.94-4.38-8.89-.92-1.81-1.74-1-2.38.23-.86,1.59-1.66,3.23-2.48,4.85C711.54,175.67,711.92,174.9,718.54,174.9Z"/><path class="cls-10" d="M570.19,211.11c-16.73-.77-30.87-6.72-39.48-21.81-13.18-23.1-3.72-51.57,21.12-61.15a51.27,51.27,0,0,1,36.53-.36c3.26,1.15,3.31,1.22,2.48,4.44-1,3.69-2,7.36-3.05,11-.86,2.89-1.41,3.3-4.25,2.52A50,50,0,0,0,567.77,144c-11,.51-19.54,7.12-22.26,17.41-3.32,12.57,3.42,27.74,20.67,29.61a42.41,42.41,0,0,0,17.27-1.55c2.12-.66,3.18-.13,3.78,1.79,1.19,3.79,2.45,7.56,3.43,11.41.81,3.17.28,4.14-2.87,5.29A49.8,49.8,0,0,1,570.19,211.11Z"/><path class="cls-7" d="M964.88,124.91a43.62,43.62,0,0,1,16.32,2.55c3.76,1.31,3.95,1.78,3,5.42-.91,3.35-1.78,6.72-2.74,10.05s-1.28,3.27-4.56,2.81a131.6,131.6,0,0,0-15.28-1.64A23,23,0,0,0,938,166.88c-.33,11.93,6.13,22,21,24.1a43.87,43.87,0,0,0,17.3-1.27c3.29-.86,3.37-.8,4.47,2.53s2.19,6.94,3.21,10.43c.9,3.08.42,4.21-2.61,5.29a50.1,50.1,0,0,1-23,2.86C947,209.43,937,205,929.14,196.3c-6.88-7.58-10.16-16.51-10.65-26.67-.66-13.68,4-25.15,14.3-34.08C941.68,127.82,952.33,124.59,964.88,124.91Z"/><path class="cls-7" d="M1014.63,177c0-9.5,0-19,0-28.49,0-3.41-.07-3.44-3.6-3.47-4.5,0-9-.1-13.49,0-2.27.06-3.36-.49-3.26-3,.17-4.32.16-8.66,0-13-.09-2.46.86-3.1,3.2-3.08,10.82.1,21.65,0,32.48,0,7.33,0,14.66,0,22,0,3.24,0,3.39.19,3.45,3.39.08,4.17-.05,8.33,0,12.5,0,2.43-1,3.17-3.33,3.12-4.83-.12-9.67.09-14.49-.09-2.43-.09-3.1.71-3.08,3.1.11,13.66,0,27.32,0,41,0,5.66-.08,11.33,0,17,0,2.29-.54,3.33-3,3.25-4.66-.15-9.33-.16-14,0-2.55.09-3-1.05-3-3.29C1014.68,196.35,1014.63,186.69,1014.63,177Z"/><path class="cls-1" d="M999.64,180.26c0,5.83,0,11.65,0,17.48a11.14,11.14,0,0,1-.3,1.88,7.06,7.06,0,0,1-1-1.56c-1.28-3.94-2.41-7.93-3.74-11.86a17.15,17.15,0,0,0-8.3-10.17,16.67,16.67,0,0,0-11.09-1.53A64.6,64.6,0,0,1,960.92,176c-7.58-.29-9.11-7.58-7.23-11.82a7.91,7.91,0,0,1,7.87-5.1,93.73,93.73,0,0,1,12.84,1.41,21.89,21.89,0,0,0,11.74-.72,11.06,11.06,0,0,1,4.26-.41c2,.09,3.93.67,5.89.64,3.93-.06,3.37.78,3.36,3.27C999.61,168.94,999.64,174.6,999.64,180.26Z"/><path class="cls-11" d="M588.43,167.49V170c0,3.76-.06,3.65-3.93,4.18-4.41.6-8.78,1.53-13.19,2.08a15,15,0,0,1-5.38-.36c-4.5-1.13-6.64-4.52-6.2-9.38a7.66,7.66,0,0,1,7.43-7.3c4.59-.08,9.2.69,13.79,1.14,1.14.11,2.25.52,3.39.63,4.06.4,4.07.37,4.09,4.54Z"/><path class="cls-12" d="M718.7,217.5c-2.47,0-4.94,0-7.41,0-1.29,0-1.8-.59-1.12-1.86a26.15,26.15,0,0,0,1.52-3.1,3.32,3.32,0,0,1,3.78-2.37c2.3.15,4.62-.07,6.91.1a3.24,3.24,0,0,1,2.33,1.28,54.71,54.71,0,0,1,2.35,5.76c-1.79.07-3.59.15-5.39.2C720.68,217.52,719.69,217.5,718.7,217.5Z"/><path class="cls-12" d="M880.07,210.2h1c4.16,0,6.83,2.19,7.35,6.12.05.39-.63,1.26-1,1.27q-7.73.12-15.46,0c-.27,0-.86-1-.75-1.25a27.8,27.8,0,0,1,2.44-4.88,3.82,3.82,0,0,1,2.42-1.22A26.39,26.39,0,0,1,880.07,210.2Z"/><path class="cls-12" d="M636.5,226.78c-1.23-2.08-2.44-3.61-3-5.35-.14-.47,2.21-2.44,2.69-2.2,1.32.63,3,2,3.13,3.2S637.75,225,636.5,226.78Z"/><path class="cls-7" d="M833.18,182c-.19-.22-.54-.44-.59-.71-.13-.73-.47-1.73-.14-2.18,1.54-2,3.28-3.91,4.94-5.85.08.15.27.33.23.42-1.15,2.66-2.31,5.31-3.52,7.94C834,181.84,833.55,181.87,833.18,182Z"/><path class="cls-13" d="M263.91,301.16H148c-1.33,0-2.67.06-4,0-4.62-.31-6.62-4-4.44-8.12a37.42,37.42,0,0,1,2.19-3.33q54.48-82.05,109-164.09c2.66-4,5.26-8.08,8-12.06,3.41-5,7.15-5,10.49,0q18.57,27.78,37,55.62,32.26,48.6,64.48,97.22,8.26,12.46,16.42,25a11,11,0,0,1,1.84,4c.54,3.32-1.24,5.45-4.57,5.78-1.49.14-3,.06-4.5.06Z"/><path class="cls-14" d="M263.49,312.2q56.22,0,112.43,0a22.9,22.9,0,0,1,5.91.58c4.05,1.08,5.25,4.8,2.75,8.09a28.84,28.84,0,0,1-2.75,2.89L270.53,435.1l-1.06,1.06c-4.16,4-6,4.06-10.05.1q-15-14.64-30-29.35-21.52-21.23-43-42.52-20.44-20.16-41-40.27a27.84,27.84,0,0,1-3.12-3.22c-2.47-3.38-1.25-7,2.8-8.12a20.81,20.81,0,0,1,5.41-.55Q207,312.18,263.49,312.2Z"/><path class="cls-13" d="M283.53,114.5c.1-4.52,2.46-6.72,6-6.29,8.06,1,16.11,2.14,24.15,3.25,8.38,1.16,16.74,2.36,25.12,3.52q17.48,2.43,35,4.8c11,1.48,22,2.82,33.05,4.31s22,3.12,33,4.65c4.76.66,9.57,1,14.3,1.88,6.25,1.11,7.56,3.45,5.37,9.3q-8.78,23.51-17.7,47Q423.88,234.07,406,281.23a20,20,0,0,1-.9,2.3c-2.08,3.93-5.91,4.46-8.93,1.21a18.45,18.45,0,0,1-1.69-2.46Q340.19,200.74,286,119.18A42.22,42.22,0,0,1,283.53,114.5Z"/><path class="cls-13" d="M236.94,108.1c3.31-.27,5.24.42,6.38,2.61,1.22,2.36.54,4.41-.86,6.5Q229.14,137.09,216,157L133.46,281.1a29.73,29.73,0,0,1-2,2.87c-3.11,3.66-7.66,3.08-9.53-1.31-1.62-3.81-3-7.73-4.44-11.61Q93.15,206.43,68.78,141.8c-.41-1.09-.76-2.2-1.23-3.26-2.16-4.84.92-7.86,5.24-8.41,13.65-1.74,27.31-3.42,40.94-5.26,15.77-2.13,31.5-4.46,47.26-6.62,11-1.5,22-2.82,33-4.31,11.17-1.5,22.32-3.13,33.48-4.68C231,108.78,234.44,108.4,236.94,108.1Z"/><path class="cls-7" d="M94.68,118.05a10.24,10.24,0,0,1-2.23-1A22.92,22.92,0,0,1,90,114.6L43.36,68c-.59-.59-1.13-1.23-1.77-1.76-1.76-1.45-2-2.73-.17-4.48,10.06-10,20-20,30-30,2.27-2.26,2.4-2.21,5.15.52q17,16.91,33.89,33.87,20.3,20.28,40.57,40.59a10.87,10.87,0,0,1,1.35,2.3,10.85,10.85,0,0,1-2.26.84q-25.56,3.64-51.14,7.24C97.7,117.36,96.42,117.69,94.68,118.05Z"/><path class="cls-7" d="M432.4,117.89c-12.8-1.94-24.58-3.76-36.37-5.51-5.74-.85-11.5-1.55-17.25-2.34-1.14-.15-2.28-.38-3.41-.61-1.32-.27-1.72-.85-.61-1.92.72-.69,1.41-1.41,2.12-2.12l72.06-72,.35-.35c3.51-3.47,3.52-3.49,6.92-.1q13.62,13.59,27.2,27.19c3.68,3.7,3.7,4,.14,7.58q-24,24-48,48A18.47,18.47,0,0,1,432.4,117.89Z"/><path class="cls-14" d="M256.86,72.48c0,5.15,0,10.31,0,15.47s-1.19,6.5-6.11,7.25c-11.13,1.7-22.27,3.28-33.41,5C204.9,102,192.48,104,180,105.82c-4.43.66-8.86,1.32-13.31,1.71a4.86,4.86,0,0,1-3.34-1.39c-4.68-4.5-9.24-9.11-13.79-13.73-2.49-2.52-2.39-2.79,1.07-4.15q22.88-9,45.75-17.94,25.65-10.08,51.3-20.17a11.63,11.63,0,0,1,4.29-1c2.8.05,4.77,2.47,4.83,5.86C256.93,60.83,256.86,66.65,256.86,72.48Z"/><path class="cls-14" d="M361.3,107.94l-29.46-4.28c-8.19-1.19-16.38-2.42-24.58-3.58-10.17-1.44-20.36-2.73-30.52-4.26-4.94-.74-6.06-2.24-6.08-7.36,0-10.82,0-21.63,0-32.45,0-2,.09-4,1.9-5.4s3.87-1.43,6-.57c8,3.19,16,6.25,24,9.41Q339.82,74.15,377,88.88c.46.18,1,.21,1.43.43,1,.46,1.76,1,.62,2.15-5.19,5.16-10.33,10.38-15.57,15.49A5.23,5.23,0,0,1,361.3,107.94Z"/><path class="cls-15" d="M87.44,325c-3.8.13-6-1.83-6.47-5.17-1-7.22-2-14.45-3-21.68-1.58-11.33-3.2-22.65-4.75-34C72.09,256,71.07,247.73,70,239.51c-1.19-8.7-2.46-17.39-3.65-26.1-1.16-8.54-2.23-17.1-3.39-25.64-1.14-8.38-2.38-16.74-3.51-25.12-.23-1.64-1.53-4.07.86-4.63,2-.47,2.07,2.17,2.62,3.6q26.25,68.72,52.43,137.46c2.39,6.25,2.12,7.23-3.64,10.95q-10.47,6.75-21,13.39A26.41,26.41,0,0,1,87.44,325Z"/><path class="cls-15" d="M468.08,161.69c-1.26,9.41-2.4,18.12-3.6,26.82s-2.44,17.38-3.67,26.07-2.48,17.38-3.67,26.08c-1.14,8.2-2.19,16.42-3.32,24.63-1.22,8.86-2.54,17.7-3.75,26.56-1.14,8.37-2.31,16.75-3.25,25.14-1,8.59-4.54,10.4-11.78,5.74-6.83-4.41-13.7-8.76-20.51-13.21-4.27-2.78-4.69-4.26-2.84-9.13q26.22-68.92,52.47-137.85a6.18,6.18,0,0,1,.43-.9c.75-1.3.48-3.72,2.76-3.3C467.86,158.44,467.93,160.94,468.08,161.69Z"/><path class="cls-7" d="M97.06,385.93c1-1.27,2-2.64,3.12-3.79q20.29-20.36,40.63-40.64c.7-.71,1.42-1.4,2.13-2.11,1.05-1,2-.83,3,.15,1.52,1.54,3.06,3,4.59,4.59q12.72,12.72,25.42,25.45c2.79,2.8,2.81,2.9.23,5.47q-22.08,22.08-44.21,44.1a8.16,8.16,0,0,1-1-2,38,38,0,0,0-14.05-23.6C111.14,388.87,104.68,385.81,97.06,385.93Z"/><path class="cls-7" d="M394.77,419.19,359,383.65c-3-2.94-5.82-6-8.86-8.81-1.64-1.53-1.4-2.56.09-4,8.42-8.31,16.75-16.7,25.12-25.06,1.88-1.89,3.81-3.73,5.64-5.67,1.11-1.18,2.12-1.55,3.27-.13.11.13.24.23.36.35L429,384.93a8,8,0,0,1-2.11,1c-15.36,2.25-29.1,15.33-31.14,31.15A8.29,8.29,0,0,1,394.77,419.19Z"/><path class="cls-16" d="M97.06,385.93c7.62-.12,14.08,2.94,19.82,7.58a38,38,0,0,1,14.05,23.6,8.16,8.16,0,0,0,1,2c-.58.55-1.05,1.36-1.74,1.63q-18,7.35-36.17,14.54a19.64,19.64,0,0,1-3.8.72c-2.73-3.81-5-8.11-10.29-9.05,2-5.45,4-10.95,6.13-16.35,3.08-7.69,6.32-15.31,9.55-22.94A8.36,8.36,0,0,1,97.06,385.93Z"/><path class="cls-16" d="M394.77,419.19a8.29,8.29,0,0,0,1-2.14c2-15.82,15.78-28.9,31.14-31.15a8,8,0,0,0,2.11-1,62.08,62.08,0,0,1,3.16,5.83q6.62,16,13,32.08a19.16,19.16,0,0,1,.73,3.81,21.57,21.57,0,0,0-9.45,9.4c-2.82-.82-5.7-1.45-8.43-2.51q-14.89-5.81-29.68-11.87A18.75,18.75,0,0,1,394.77,419.19Z"/><path class="cls-15" d="M433.79,337.29c-.44.63-1.06,2.33-2.27,3.17-6,4.16-12.13,8.08-18.2,12.11a2.75,2.75,0,0,1-3.95-.49q-9.12-9.19-18.35-18.29c-1.17-1.15-1.4-2-.1-3.25,3.81-3.7,7.46-7.57,11.32-11.22,2.77-2.63,4.16-2.81,7.57-.81,7,4.12,13.87,8.42,20.81,12.63C432.57,332.33,433.94,333.87,433.79,337.29Z"/><path class="cls-15" d="M93,335.68c1.15-1.63,1.83-3.52,3.18-4.38,7.26-4.63,14.69-9,22-13.47a5,5,0,0,1,6.42.74c4,3.74,7.8,7.7,11.7,11.56,1.21,1.2,1,2.25-.16,3.39q-9.37,9.3-18.69,18.67c-1,1.05-1.9.91-3,.15-6.23-4.1-12.56-8-18.7-12.27C94.55,339.25,94,337.44,93,335.68Z"/><path class="cls-17" d="M231.44,425.73c-1.07.57-1.8,1.29-2.33,1.16a10.08,10.08,0,0,1-3.09-1.47q-25.41-16.64-50.8-33.31c-2.69-1.77-2.69-1.84-.39-4.19,2.44-2.5,5-4.86,7.39-7.43,1.58-1.71,2.77-1.94,4.45-.1,2.58,2.83,5.37,5.46,8.08,8.16q16.75,16.77,33.51,33.55C229.28,423.12,230.17,424.27,231.44,425.73Z"/><path class="cls-17" d="M354.34,390.65a21.27,21.27,0,0,1-2.29,2c-5.26,3.46-10.56,6.86-15.83,10.3-11.39,7.41-22.74,14.88-34.18,22.22-1.47.94-3.42,3.4-5.05,1.18-1.28-1.73,1.27-3.09,2.48-4.31q20.41-20.49,40.88-40.91c2.62-2.62,2.4-2.62,5,0s4.94,4.93,7.39,7.42A25,25,0,0,1,354.34,390.65Z"/><path class="cls-18" d="M80,427c5.25.94,7.56,5.24,10.29,9.05-4,1.78-8,3.61-12.09,5.27a2.87,2.87,0,0,1-2.56-.25,3.06,3.06,0,0,1-.24-2.65C76.79,434.57,78.41,430.79,80,427Z"/><path class="cls-19" d="M436.45,436.05a21.57,21.57,0,0,1,9.45-9.4c1.77,4,3.57,8.06,5.26,12.13.27.64.29,1.88-.09,2.17a3.18,3.18,0,0,1-2.58.58C444.43,439.82,440.45,437.9,436.45,436.05Z"/><path class="cls-10" d="M972.87,304.62c.65,14.47-12.21,27.6-27.88,27.65-13.75.05-27.91-13-27.51-28.33a28.26,28.26,0,0,1,28.41-27.3C959.42,276.72,973.73,288.94,972.87,304.62Zm-13.12-.43c.25-7-5-14.73-14.76-15-7.76-.2-14.45,7.3-14.39,15.48.07,7.89,6.71,15.19,14.37,15C954.49,319.38,960.08,312.12,959.75,304.19Z"/><path class="cls-20" d="M1147.81,304.41c0,8.16,0,16.32,0,24.48a14.39,14.39,0,0,1-.54,2.72,16,16,0,0,1-2-1.29q-13.29-11.31-26.54-22.66a28.19,28.19,0,0,0-2.7-2.2c-.21-.14-1.22.36-1.26.65a25.36,25.36,0,0,0-.06,3.49c0,6.66,0,13.32.16,20,0,2.32-.61,3.4-3.11,3.2-2.15-.18-4.33,0-6.49,0-3.27-.11-3.45-.28-3.48-3.93-.07-7.66-.07-15.32-.09-23,0-8.83-.06-17.65,0-26.48a10.43,10.43,0,0,1,.51-2.27,9.21,9.21,0,0,1,2.13,1q13.13,11.15,26.18,22.35c.51.43.95,1,1.49,1.32a23.72,23.72,0,0,0,2.1,1.15,12.29,12.29,0,0,0,.65-2.66c.06-5,0-10,0-15,.16-10.75-1.71-9,9.25-9.12,3.78-.05,3.84.05,3.85,3.82C1147.84,288.09,1147.81,296.25,1147.81,304.41Z"/><path class="cls-7" d="M1025.67,304c0,8.32,0,16.64,0,25a14.24,14.24,0,0,1-.52,2.71,15.69,15.69,0,0,1-2.54-1.43q-11.75-10.05-23.42-20.16c-.51-.44-1-.94-1.5-1.33-1.58-1.14-3.2-2.25-4.8-3.37-.11,1.8-.29,3.6-.29,5.4,0,6.16-.06,12.32.12,18.47.07,2.47-.82,3.24-3.17,3.08a60.37,60.37,0,0,0-7,0c-2,.09-3.12-.51-2.95-2.78.13-1.82,0-3.66,0-5.49q-.06-22.21-.11-44.43a15.57,15.57,0,0,1,.37-2.42,10,10,0,0,1,2.52,1.14c9.37,8,18.68,16,28,24a8.83,8.83,0,0,0,2,1c.06-.65.17-1.31.17-2,0-7.33,0-14.65,0-22,0-3.2.1-3.22,3.37-3.28,2.16,0,4.33,0,6.49,0,3.12.07,3.19.1,3.2,3.42C1025.69,287.67,1025.67,295.83,1025.67,304Z"/><path class="cls-10" d="M1173.54,332c-4.33,0-8.67-.13-13,0-2.48.1-3.08-.8-3.06-3.15.09-14.65,0-29.31.06-44,0-2.64.22-5.29.35-7.93,2.76-.27,5.52-.71,8.29-.76,6.49-.12,13-.08,19.49,0,3.73,0,3.86.16,3.85,4,0,2.79-.25,5.58-.38,8.38-2.76.2-5.52.46-8.29.57-2.5.09-5,0-7.49,0-1.9,0-2.74.92-2.63,2.79,0,.5,0,1,0,1.5,0,4.54-.49,4.45,4.21,4.42,3.17,0,6.33,0,9.5,0,1.41,0,2.22.47,2.11,2,0,.16,0,.33,0,.5l-.39,9.89-9.3.6c-.5,0-1,0-1.5,0-5.06,0-4.63-.3-4.62,4.53,0,3.58,0,3.63,3.49,3.67,4.16,0,8.33.11,12.49,0,2.2-.07,3,.77,2.83,2.89-.18,3.14-.19,6.29-.28,9.43-3.09.22-6.17.49-9.26.63C1177.87,332.12,1175.7,332,1173.54,332Z"/><path class="cls-19" d="M1052,332.08c-4.67,0-9.33-.1-14,0-2.37.06-3.21-.69-3.18-3.14.11-9.33,0-18.66,0-28,0-7,.06-14-.06-21,0-2.28.54-3.43,3-3.28s5,0,7.49,0c3.18.07,3.25.1,3.27,3.39,0,10.17,0,20.33.06,30.49,0,2.63.23,5.26.35,7.89,2.77.18,5.53.43,8.3.51,3.17.09,6.34.13,9.5,0,2.26-.1,2.9.9,2.79,3-.18,3.14-.23,6.28-.33,9.41-3.09.23-6.18.52-9.28.65C1057.28,332.16,1054.61,332.08,1052,332.08Z"/><path class="cls-18" d="M1092.4,304.61c0,8.15,0,16.29,0,24.44,0,3.4-.29,3.61-3.72,3.7-2.16.06-4.32.07-6.48,0-3.39-.12-3.53-.24-3.56-3.84-.06-5.65,0-11.31,0-17,0-10.64,0-21.28,0-31.93,0-3.77.06-3.78,3.83-3.83,2.17,0,4.33-.07,6.49,0,3.12.1,3.41.31,3.43,3.47.07,8.31,0,16.62,0,24.94Z"/><path class="cls-21" d="M787.85,152.41c0-2,.07-4,0-6-.08-1.77.76-2.32,2.4-2.29,3.66.05,7.33-.12,11,.05,4.52.22,7.34,3.26,7.46,7.7.14,5.28-2.45,8.58-7.21,9a36.27,36.27,0,0,1-5,0c-2.76-.14-5.52-.39-8.29-.6q-.24-3.94-.5-7.89Z"/><path class="cls-21" d="M1153.88,144.16c1.83,0,3.67-.14,5.49,0a7.58,7.58,0,0,1,7.12,8.07c-.1,5.06-2.66,8.31-7.17,8.6-3.82.24-7.66,0-11.49.09-1.81,0-2.25-.85-2.23-2.44q.08-6,0-12c0-1.64.51-2.47,2.28-2.39,2,.1,4,0,6,0Z"/><path class="cls-22" d="M879.16,174.91h-.5c-5.25-.07-5.83.86-3-4.71,1.05-2.07,2-4.17,3.11-6.22.66-1.24,1.47-1.19,2.11,0,1.52,2.94,3,5.88,4.46,8.87.49,1,.21,2-1.22,2-1.66,0-3.32,0-5,0Z"/><path class="cls-22" d="M718.54,174.9c-6.62,0-7,.77-3.72-5.69.82-1.62,1.62-3.26,2.48-4.85.64-1.2,1.46-2,2.38-.23,1.49,3,2.9,5.94,4.38,8.89.61,1.21.37,1.86-1,1.88S720,174.9,718.54,174.9Z"/><path class="cls-2" d="M959.75,304.19c.33,7.93-5.26,15.19-14.78,15.47-7.66.22-14.3-7.08-14.37-15-.06-8.18,6.63-15.68,14.39-15.48C954.79,289.46,960,297.21,959.75,304.19Z"/></g></g></svg>