<svg id="_4nd_plan" data-name="4nd plan" xmlns="http://www.w3.org/2000/svg" viewBox="0 0 1920 1080">
  <defs>
    <style>
      .cls-1 {
        fill: #a5414a;
      }

      .cls-2 {
        fill: #8d334c;
      }
    </style>
  </defs>
  <title>lake</title>
  <path class="cls-1" d="M328.13,282.48l93.13-36.75a19.64,19.64,0,0,1,15.32.39l114.6,52a19.61,19.61,0,0,0,8,1.75l11.2.06a19.6,19.6,0,0,1,10.36,3l84.81,53.37a19.64,19.64,0,0,0,11.85,3l61.91-4.43a19.64,19.64,0,0,1,12.26,3.22l126.66,84a12.85,12.85,0,0,1-3.38,23l-34.5,10.45a20.35,20.35,0,0,1-2.76.62L763.46,487.4a19.17,19.17,0,0,1-2.93.22H645.33a19.59,19.59,0,0,0-9.93,2.7l-55.82,32.75a19.67,19.67,0,0,1-7.7,2.57l-79.83,9.13a20.16,20.16,0,0,1-4.11,0L297.31,516.49a19.63,19.63,0,0,1-17.43-23.1L316,297.19A19.63,19.63,0,0,1,328.13,282.48Z"/>
  <path class="cls-1" d="M1041.57,390.41l103-87.52a38.23,38.23,0,0,1,19.07-8.68l84-12.72a35.07,35.07,0,0,1,11.2.11l101.89,17.48a6,6,0,0,0,3.69-.54l151.27-75.38a38.77,38.77,0,0,1,17.66-4.09l90.43.71a6,6,0,0,1,5.41,8.49l-94.39,207a6,6,0,0,1-4.16,3.36l-217.76,48.19a5.83,5.83,0,0,1-1.72.13L1174,477.33c-.2,0-.41,0-.61-.07L1051.56,456.1a6.76,6.76,0,0,1-1.09-.3l-36.1-13.64a6,6,0,0,1-.38-11.06l35.28-16.18a6,6,0,0,0,.43-10.69l-7.17-4A6,6,0,0,1,1041.57,390.41Z"/>
  <path class="cls-2" d="M1169.25,491.91l63.43-60.31a9.77,9.77,0,0,1,4.51-2.41l165-37.28a9.62,9.62,0,0,1,8.17,1.9L1463.72,437a9.61,9.61,0,0,1,3.24,10l-14.41,53.57a9.63,9.63,0,0,1-6.55,6.72l-124.34,37a9.56,9.56,0,0,1-5.09.1l-143-36.12A9.62,9.62,0,0,1,1169.25,491.91Z"/>
</svg>
