<?xml version="1.0" standalone="no"?>
<!DOCTYPE svg PUBLIC "-//W3C//DTD SVG 1.1//EN" "http://www.w3.org/Graphics/SVG/1.1/DTD/svg11.dtd" >
<svg xmlns="http://www.w3.org/2000/svg">
<metadata>Generated by IcoMoon</metadata>
<defs>
<font id="icon-theme-CSO" horiz-adv-x="1024">
<font-face units-per-em="1024" ascent="960" descent="-64" />
<missing-glyph horiz-adv-x="1024" />
<glyph unicode="&#x20;" horiz-adv-x="512" d="" />
<glyph unicode="&#xf000;" glyph-name="t-inventory" d="M389.12 857.6c-33.68 0-61.44-27.76-61.44-61.44v-61.44h-266.24c-33.84 0-61.44-27.6-61.44-61.44v-163.84h184.32c0 22.56 18.4 40.96 40.96 40.96h102.4c22.56 0 40.96-18.4 40.96-40.96h286.72c0 22.56 18.4 40.96 40.96 40.96h102.4c22.56 0 40.96-18.4 40.96-40.96h184.32v163.84c0 33.84-27.6 61.44-61.44 61.44h-266.24v61.44c0 33.68-27.76 61.44-61.44 61.44zM389.12 816.64h245.76c11.52 0 20.48-8.96 20.48-20.48v-61.44h-286.72v61.44c0 11.52 8.96 20.48 20.48 20.48zM225.28 509.44v-40.96h102.4v40.96zM696.32 509.44v-40.96h102.4v40.96zM0 468.48v-368.64c0-33.84 27.6-61.44 61.44-61.44h901.12c33.84 0 61.44 27.6 61.44 61.44v368.64h-184.32c0-22.56-18.4-40.96-40.96-40.96h-102.4c-22.56 0-40.96 18.4-40.96 40.96h-286.72c0-22.56-18.4-40.96-40.96-40.96h-102.4c-22.56 0-40.96 18.4-40.96 40.96z" />
<glyph unicode="&#xf001;" glyph-name="t-weapon1" horiz-adv-x="1119" d="M1056.594 744.387h-34.793v15.133c0.004 0.238 0.007 0.519 0.007 0.8 0 23.44-17.272 42.846-39.783 46.185l-0.255 0.031c-1.44 0.161-3.109 0.253-4.8 0.253-25.252 0-45.722-20.471-45.722-45.722 0-0.407 0.005-0.813 0.016-1.218l-0.001 0.060v-15.521h-168.144v48.245h25.868c46.218 0 83.684 37.467 83.684 83.684s-37.467 83.684-83.684 83.684v0h-382.011c-34.532-0.014-64.173-20.941-76.945-50.803l-0.208-0.546h-142.276c-29.395-1.244-55.064-16.163-70.947-38.52l-0.191-0.283c-12.086-18.231-19.315-40.598-19.401-64.648v-60.813h-34.793c0 0 0 0-0.001 0-34.36 0-62.213-27.854-62.213-62.213 0-0.091 0-0.182 0.001-0.273v0.014-218.070c0-34.36 27.854-62.213 62.213-62.213h19.401c34.259-0.038 62.017-27.82 62.017-62.084 0-5.375-0.683-10.59-1.967-15.564l0.094 0.431-77.734-311.197c-1.166-4.518-1.835-9.704-1.835-15.047 0-14.493 4.925-27.836 13.193-38.446l-0.105 0.14c11.357-14.577 28.914-23.864 48.64-23.864 0.088 0 0.176 0 0.264 0.001h186.238c0.025 0 0.056 0 0.086 0 28.577 0 52.588 19.552 59.384 46.009l0.093 0.425 49.861 199.316h202.743c47.446 0.036 87.855 30.12 103.23 72.249l0.244 0.764 52.577 146.868h58.204c17.842 0.041 33.98 7.3 45.656 19.012l0.002 0.002 45.852 45.658h128.501c34.248 0.147 61.955 27.944 61.955 62.213 0 0 0 0 0 0.001v0 153.4c0 0.077 0.001 0.168 0.001 0.259 0 34.36-27.854 62.213-62.213 62.213 0 0 0 0-0.001 0v0zM685.383 744.387h-193.884v48.245h194.013zM161.548 744.387v60.791c0.367 12.487 5.211 23.775 12.974 32.38l-0.040-0.045c12.934 12.934 38.803 12.934 38.803 12.934h114.080c11.243-33.841 42.615-57.816 79.586-57.816 0.009 0 0.017 0 0.026 0h6.466v-48.245zM637.203 288.909c-2.185-5.968-7.815-10.151-14.421-10.153h-177.587l30.719 122.875h201.644z" />
<glyph unicode="&#xf002;" glyph-name="t-weapon2" horiz-adv-x="842" d="M235.029 292.744v220.743c0 13.546-10.981 24.527-24.527 24.527s-24.527-10.981-24.527-24.527v0-220.743c0-13.546 10.981-24.527 24.527-24.527s24.527 10.981 24.527 24.527v0zM449.64 544.146c-13.546 0-24.527-10.981-24.527-24.527v0-220.743c0-13.546 10.981-24.527 24.527-24.527s24.527 10.981 24.527 24.527v0 220.743c0 13.546-10.981 24.527-24.527 24.527v0zM574.176 886.419h-23.055c0 0 0 0-0.001 0-22.434 0-40.636-18.117-40.775-40.518v-0.013l-0.981-179.415h-67.878v247.416c0 0 0 0.001 0 0.001 0 25.466-20.644 46.111-46.111 46.111-0.108 0-0.215 0-0.323-0.001h-13.842c-25.466 0-46.111-20.644-46.111-46.111v0-247.109h-64.506v247.109c0 25.466-20.644 46.111-46.111 46.111h-13.919c-25.466 0-46.111-20.644-46.111-46.111v0-247.109h-58.313v184.627c0 25.466-20.644 46.111-46.111 46.111v0h-13.919c-25.466 0-46.111-20.644-46.111-46.111v0-438.91c0.036-60.724 42.875-111.433 99.978-123.591l0.828-0.148v-331.42c0-11.785 9.554-21.338 21.338-21.338h408.312c0.018 0 0.040 0 0.061 0 11.785 0 21.338 9.554 21.338 21.338 0 0 0 0 0 0v0 338.594c-0.046 2.21-0.446 4.311-1.147 6.27l0.043-0.138c34.338 19.254 58.742 23.301 63.77 64.077h46.049v-24.527c-0.003-0.126-0.004-0.276-0.004-0.425 0-6.438 2.733-12.238 7.103-16.302l0.014-0.013c3.75-3.343 8.723-5.386 14.173-5.386 7.878 0 14.758 4.269 18.455 10.619l0.055 0.102 127.417 221.54c8.976 15.306 14.277 33.709 14.277 53.349 0 39.299-21.223 73.642-52.834 92.191l-0.503 0.273c-3.066 1.797-6.752 2.859-10.686 2.859-7.857 0-14.726-4.235-18.447-10.546l-0.054-0.1-96.207-167.274c-1.769-3.068-2.815-6.746-2.821-10.668v-22.873h-45.068v177.82l-0.552 179.292c-0.242 22.314-18.371 40.313-40.712 40.347h-0.003zM155.317 292.744v226.874c0 30.478 24.707 55.186 55.186 55.186s55.186-24.707 55.186-55.186v0-226.874c0-30.478-24.707-55.186-55.186-55.186s-55.186 24.707-55.186 55.186v0zM455.772 65.87h-245.269c-16.932 0-30.659 13.726-30.659 30.659s13.726 30.659 30.659 30.659v0h245.269c16.932 0 30.659-13.726 30.659-30.659s-13.726-30.659-30.659-30.659v0zM504.826 292.744c0-30.478-24.707-55.186-55.186-55.186s-55.186 24.707-55.186 55.186v0 226.874c0 30.478 24.707 55.186 55.186 55.186s55.186-24.707 55.186-55.186v0z" />
<glyph unicode="&#xf003;" glyph-name="t-weapon3" horiz-adv-x="1104" d="M306.373 485.867c-3.78 3.836-9.032 6.213-14.839 6.213-5.403 0-10.325-2.057-14.026-5.431l0.017 0.015-1.295-1.146c-3.682-3.378-8.612-5.448-14.026-5.448s-10.343 2.070-14.041 5.462l0.015-0.014c-29.446 26.457-57.747 51.569-85.151 77.677s-53.412 29.895-75.485 7.922-20.777-48.978 6.278-75.186 54.11-50.622 84.702-78.673c4.16-3.812 6.758-9.27 6.758-15.335 0-7.094-3.555-13.357-8.981-17.106l-0.069-0.045-4.385-2.989c-5.583-3.783-9.203-10.096-9.203-17.255 0-5.371 2.038-10.265 5.382-13.953l-0.016 0.017 4.982-5.63c3.329-3.67 5.367-8.565 5.367-13.936 0-5.899-2.458-11.223-6.406-15.005l-0.007-0.007-23.617-22.62c-3.722-3.554-8.775-5.742-14.339-5.742-8.469 0-15.755 5.067-18.991 12.336l-0.053 0.132c-6.378 14.549-12.257 28.151-17.538 42.002-8.57 22.571-23.069 40.657-47.732 36.173-17.95-4.038-33.063-14.166-43.407-28.055l-0.14-0.196c-14.449-21.126-2.142-42.052 14.947-58.146s34.429-31.738 50.821-46.487c4.209-3.833 6.839-9.336 6.839-15.453 0-2.76-0.536-5.395-1.508-7.806l0.050 0.14c-14.599-36.771-10.314-48.181 18.286-77.328q87.791-89.685 175.832-178.772c39.212-39.86 57.299-39.86 96.76-1.893 24.613 23.816 49.277 47.583 75.485 72.844 3.733 3.613 8.827 5.84 14.442 5.84 6.761 0 12.768-3.229 16.562-8.23l0.038-0.052 1.395-1.893c3.832-5.043 9.833-8.265 16.587-8.265 6.047 0 11.49 2.583 15.287 6.706l0.013 0.015 104.881 114.099c3.425 3.686 5.526 8.643 5.526 14.091 0 5.651-2.261 10.773-5.928 14.512l0.003-0.003c-99.251 101.144-202.289 206.125-306.074 311.903zM831.576 859.254c3.78-3.889 9.060-6.301 14.904-6.301 5.494 0 10.49 2.132 14.205 5.614l-0.011-0.011 35.774 33.532c4.058 3.81 6.585 9.208 6.585 15.197s-2.528 11.387-6.574 15.186l-0.011 0.010-34.479 31.938c-3.693 3.454-8.67 5.574-14.142 5.574-5.65 0-10.772-2.26-14.51-5.926l0.003 0.003-33.283-32.585c-3.867-3.769-6.266-9.029-6.266-14.849 0-5.597 2.218-10.675 5.823-14.404l-0.006 0.006zM1097.791 713.417l-32.286 33.134c-3.771 3.877-9.037 6.283-14.866 6.283-5.349 0-10.224-2.026-13.901-5.352l0.018 0.016-36.023-32.386c-4.158-3.812-6.755-9.269-6.755-15.332 0-5.674 2.274-10.816 5.961-14.566l-0.003 0.003 36.422-36.771c3.724-3.64 8.824-5.885 14.448-5.885 6.133 0 11.642 2.67 15.429 6.911l0.018 0.020 31.988 35.575c3.339 3.666 5.384 8.562 5.384 13.936 0 5.604-2.224 10.689-5.838 14.42l0.005-0.005zM899.737 787.108l36.422-34.479c3.713-3.514 8.739-5.675 14.269-5.675 5.781 0 11.010 2.361 14.777 6.171l0.002 0.002 35.276 35.874c3.702 3.742 5.989 8.891 5.989 14.574s-2.287 10.831-5.991 14.576l-35.922 36.37c-3.771 3.827-9.010 6.198-14.803 6.198-5.939 0-11.296-2.492-15.083-6.487l-0.009-0.009-35.774-37.717c-3.53-3.709-5.702-8.74-5.702-14.278 0-5.958 2.513-11.328 6.538-15.109l0.011-0.010zM723.407 893.135c-3.773 3.839-9.020 6.218-14.823 6.218-5.654 0-10.781-2.259-14.527-5.923l0.004 0.004-38.614-37.767c-3.866-3.769-6.264-9.028-6.264-14.847 0-5.646 2.258-10.765 5.919-14.503l-0.003 0.004 309.96-316.587c3.789-3.847 9.055-6.231 14.877-6.231 5.572 0 10.635 2.183 14.379 5.741l-0.009-0.008 39.262 37.568c3.957 3.781 6.416 9.1 6.416 14.994 0 5.672-2.278 10.812-5.97 14.555l0.002-0.002zM621.366 789.998c-3.774 3.848-9.027 6.233-14.838 6.233-5.196 0-9.946-1.907-13.589-5.059l0.026 0.022-4.982-4.434c-4.396-3.83-7.158-9.438-7.158-15.691 0-5.499 2.136-10.499 5.624-14.215l-0.010 0.011c3.528-3.709 5.699-8.738 5.699-14.275s-2.171-10.566-5.707-14.284l0.008 0.009-205.627-217.535c-3.479-3.684-5.617-8.667-5.617-14.149 0-5.879 2.46-11.184 6.406-14.941l0.009-0.008c12.307-11.709 25.759-24.514 41.903-39.86 3.712-3.544 8.753-5.725 14.302-5.725 5.945 0 11.305 2.503 15.085 6.512l0.010 0.010c63.128 67.363 164.173 172.892 201.99 212.353 3.778 3.928 9.078 6.368 14.947 6.368s11.17-2.44 14.941-6.361l0.006-0.007 1.993-2.043c3.532-3.717 5.704-8.755 5.704-14.3s-2.172-10.583-5.712-14.309l0.008 0.009-203.485-217.386c-3.482-3.699-5.622-8.696-5.622-14.193 0-5.773 2.36-10.994 6.168-14.753l0.002-0.002 40.607-39.86c3.757-3.74 8.938-6.053 14.659-6.053 6.013 0 11.43 2.555 15.224 6.638l0.012 0.013 200.196 215.443c3.793 4.053 9.175 6.578 15.147 6.578s11.354-2.525 15.136-6.567l0.011-0.012 5.68-6.029c3.5-3.703 5.652-8.713 5.652-14.225s-2.152-10.522-5.661-14.235l0.009 0.010-205.428-218.432c-3.572-3.718-5.771-8.777-5.771-14.35 0-6.18 2.705-11.728 6.995-15.526l0.022-0.019 39.86-35.675c3.664-3.276 8.526-5.278 13.857-5.278 5.935 0 11.29 2.482 15.084 6.466l0.008 0.009 201.292 213.649c3.788 4.010 9.142 6.506 15.079 6.506 5.413 0 10.342-2.075 14.033-5.473l-0.015 0.013 8.57-7.773c3.673-3.369 8.59-5.433 13.99-5.433 4.97 0 9.531 1.749 13.102 4.666l-0.037-0.029 4.534 3.637c4.709 3.84 7.692 9.641 7.692 16.139 0 5.669-2.27 10.807-5.951 14.556l0.003-0.003z" />
<glyph unicode="&#xf004;" glyph-name="t-weapon4" horiz-adv-x="882" d="M865.693 921.666l-28.070 28.070c-6.317 6.303-15.038 10.201-24.668 10.201-9.499 0-18.112-3.793-24.409-9.945l0.007 0.006-342.742-329.034-26.194 26.194 8.469 8.469c7.847 9.168 12.624 21.168 12.624 34.284 0 29.197-23.67 52.867-52.867 52.867-13.072 0-25.036-4.745-34.264-12.605l0.074 0.062-156.768-156.637c-8.977-9.456-14.498-22.268-14.498-36.37 0-29.197 23.67-52.867 52.867-52.867 14.102 0 26.913 5.521 36.393 14.52l-0.023-0.022 4.148 4.104 25.495-25.408-3.842-3.842c-6.87-6.919-12.837-14.75-17.7-23.29l-0.286-0.546-41.604-73.909c-11.732-20.665-31.445-35.647-54.842-40.845l-0.557-0.104c-22.345-4.983-40.937-18.313-52.712-36.475l-0.199-0.328-116.168-168.075c-8.33-12.814-13.285-28.488-13.285-45.321 0-34.427 20.723-64.014 50.375-76.967l0.541-0.21 41.866-17.942c12.348-5.374 22.742-13.166 30.984-22.844l0.099-0.119 0.786-0.961c15.508-18.301 38.509-29.84 64.205-29.84 34.622 0 64.351 20.947 77.206 50.859l0.209 0.546 69.849 204.746c4.436 10.383 10.49 19.249 17.944 26.718l-0.001-0.001 10.041 9.997 49.593 49.636c25.359-17.808 56.871-28.459 90.869-28.459 87.979 0 159.3 71.321 159.3 159.3 0 33.988-10.644 65.49-28.781 91.354l0.34-0.511 129.221 129.221c6.328 6.321 10.243 15.059 10.243 24.71s-3.915 18.387-10.243 24.709v0l-21.828 21.61-24.71 24.666 147.207 147.207c6.42 6.336 10.397 15.135 10.397 24.862 0 9.575-3.854 18.25-10.094 24.56l0.003-0.003zM340.556 517.151l-25.321 25.321 65.047 65.004 25.233-25.233-1.004-0.961zM504.615 303.631c-0.025 0-0.055 0-0.085 0-19.063 0-36.946 5.054-52.382 13.893l0.516-0.272 144.064 143.976c8.6-14.955 13.674-32.882 13.674-51.994 0-58.372-47.32-105.691-105.691-105.691-0.019 0-0.037 0-0.056 0h0.003z" />
<glyph unicode="&#xf005;" glyph-name="t-weapon5" horiz-adv-x="968" d="M238.119 276.852l131.43-131.43 481.136 483.146c126.532 126.469 152.529 247.538 68.635 331.433l-449.99-451.309-54.506 54.506 69.075 69.075c10.495 10.423 16.992 24.861 16.992 40.817s-6.496 30.394-16.988 40.814l-24.744 24.744c-10.43 10.48-24.866 16.965-40.817 16.965s-30.386-6.485-40.815-16.963l-0.002-0.002-355.86-356.362c-7.849-7.837-13.451-17.921-15.761-29.205l-0.064-0.372c-3.703-6.764-5.881-14.819-5.881-23.382 0-13.652 5.535-26.010 14.484-34.954v0l137.772-138.149-104.805-104.365c-8.958-8.984-14.497-21.38-14.497-35.071s5.539-26.088 14.498-35.072l31.397-31.397c8.984-8.958 21.38-14.497 35.071-14.497s26.088 5.539 35.072 14.498l104.804 104.867 42.45-42.45c8.858-8.572 20.944-13.855 34.264-13.855 27.224 0 49.294 22.070 49.294 49.294 0 13.32-5.283 25.406-13.868 34.277l-215.877 215.939 199.814 199.814 54.569-54.632z" />
<glyph unicode="&#xf006;" glyph-name="t-weapon6" horiz-adv-x="1065" d="M996.073 542.382c-9.083 43.916-22.902 82.821-41.248 119.044l1.239-2.697c14.941 18.429 23.988 42.166 23.988 68.017 0 59.882-48.544 108.425-108.425 108.425-18.714 0-36.321-4.741-51.684-13.088l0.571 0.284c-41.074 31.888-88.91 57.597-140.696 74.59l-3.338 0.948c0 0.48 0 0.96 0 1.52v15.364c0 24.969-20.241 45.211-45.211 45.211v0h-204.288c-24.969 0-45.211-20.241-45.211-45.211v0-15.364c-0.039-0.551-0.062-1.193-0.062-1.84s0.022-1.29 0.066-1.926l-0.005 0.086c-54.917-18.762-102.474-45.179-144.27-78.515l0.956 0.737c-16.24 10.224-35.991 16.29-57.159 16.29-59.882 0-108.425-48.544-108.425-108.425 0-29.879 12.086-56.936 31.636-76.547l-0.003 0.003c-14.982-30.726-27.3-66.471-35.153-103.859l-0.535-3.046c-39.908-10.798-68.79-46.673-68.816-89.298v-25.289c0.043-43.804 30.5-80.482 71.39-90.058l0.626-0.124c8.5-35.59 19.701-66.66 33.869-96.029l-1.221 2.808c-16.109-18.797-25.914-43.41-25.914-70.313 0-59.838 48.508-108.345 108.345-108.345 18.082 0 35.13 4.43 50.117 12.263l-0.597-0.284c40.825-33.003 88.408-59.738 140.084-77.735l3.31-1.003c0-0.8 0-1.6 0-2.401v-15.364c0-0.071-0.001-0.156-0.001-0.24 0-24.913 20.151-45.12 45.043-45.21h204.377c24.935 0.046 45.131 20.27 45.131 45.211 0 0 0 0 0 0v0 14.323c58.97 18.897 110.082 46.927 154.525 82.875l-0.889-0.696c14.438-7.602 31.55-12.064 49.704-12.064 59.882 0 108.425 48.544 108.425 108.425 0 27.012-9.878 51.717-26.218 70.7l0.12-0.142c12.947 26.561 24.147 57.632 31.991 90.013l0.657 3.209c41.517 9.699 71.974 46.377 72.017 90.176v25.291c-0.026 42.628-28.908 78.503-68.169 89.151l-0.648 0.15zM368.086 375.383c-30.935 0-56.013 25.078-56.013 56.013s25.078 56.013 56.013 56.013c30.935 0 56.013-25.078 56.013-56.013v0c0-30.935-25.078-56.013-56.013-56.013v0zM672.158 375.383c-30.935 0-56.013 25.078-56.013 56.013s25.078 56.013 56.013 56.013c30.935 0 56.013-25.078 56.013-56.013v0c0-30.935-25.078-56.013-56.013-56.013v0z" />
<glyph unicode="&#xf007;" glyph-name="t-armor1" horiz-adv-x="1490" d="M1398.448 119.403h-195.706c64.37 44.69 105.985 118.235 105.985 201.499 0 84.53-42.889 159.042-108.094 202.963l-0.872 0.553 76.418 330.125c-0.087 58.261-47.337 105.457-105.609 105.457h-824.244c-58.327 0-105.61-47.283-105.61-105.61v0l53.493-325.158c-70.411-43.755-116.591-120.682-116.591-208.394 0-83.225 41.575-156.739 105.090-200.907l0.802-0.528h-191.809c-50.645 0-91.701-41.056-91.701-91.701v0 0c0-50.645 41.056-91.701 91.701-91.701v0h1306.746c50.645 0 91.701 41.056 91.701 91.701v0 0c0 50.645-41.056 91.701-91.701 91.701v0zM422.133 145.003c-101.291 0-183.403 82.112-183.403 183.403s82.112 183.403 183.403 183.403c101.291 0 183.403-82.112 183.403-183.403v0c0-101.291-82.112-183.403-183.403-183.403v0zM1064.043 137.361c-101.291 0-183.403 82.112-183.403 183.403s82.112 183.403 183.403 183.403c101.291 0 183.403-82.112 183.403-183.403v0c0-101.291-82.112-183.403-183.403-183.403v0zM552.043 328.406c0-71.748-58.163-129.91-129.91-129.91s-129.91 58.163-129.91 129.91c0 71.748 58.163 129.91 129.91 129.91s129.91-58.163 129.91-129.91zM1193.953 328.406c0-71.748-58.163-129.91-129.91-129.91s-129.91 58.163-129.91 129.91c0 71.748 58.163 129.91 129.91 129.91s129.91-58.163 129.91-129.91z" />
<glyph unicode="&#xf008;" glyph-name="t-armor2" horiz-adv-x="1087" d="M903.779 805.439l-11.794 10.817c-15.563 14.262-36.391 23.002-59.26 23.002-0.013 0-0.026 0-0.038 0h-114.225l-11.99 92.854c-2.009 15.108-14.811 26.643-30.308 26.643-8.127 0-15.513-3.172-20.988-8.347l0.015 0.014-117.745-111.164h-5.799l-108.493 111.49c-5.554 5.683-13.297 9.206-21.862 9.206-14.599 0-26.808-10.237-29.838-23.925l-0.038-0.203-20.786-96.568h-95.917c-22.857-0.021-43.669-8.756-59.298-23.062l0.067 0.060-11.794-10.817c-51.963-47.499-91.917-107.272-115.345-174.772l-0.902-2.986-43.658-128.953c-15.073-43.064-23.78-92.711-23.78-144.391 0-10.755 0.377-21.422 1.119-31.988l-0.080 1.423 19.548-251.976c2.788-34.575 31.534-61.577 66.586-61.577 0.026 0 0.052 0 0.077 0h38.506c0.010 0 0.021 0 0.033 0 36.887 0 66.79 29.903 66.79 66.79 0 0.733-0.012 1.464-0.035 2.191l0.003-0.106-5.343 171.568c-0.098 3.495-0.153 7.609-0.153 11.736 0 69.401 15.724 135.13 43.805 193.817l-1.167-2.708 27.042 56.885v-507.732c0-36.923 29.932-66.855 66.855-66.855h442.311c36.887 0 66.79 29.903 66.79 66.79 0 0.023 0 0.046 0 0.069v-0.004 503.627l24.761-52.715c26.914-55.98 42.64-121.71 42.64-191.113 0-4.148-0.056-8.284-0.168-12.405l0.013 0.608-5.343-171.568c-0.021-0.621-0.033-1.352-0.033-2.085 0-36.887 29.903-66.79 66.79-66.79 0.011 0 0.023 0 0.034 0h38.573c0.002 0 0.005 0 0.008 0 35.052 0 63.798 27.002 66.571 61.34l0.015 0.237 19.548 251.976c0.662 9.144 1.039 19.811 1.039 30.566 0 51.68-8.707 101.327-24.734 147.553l0.954-3.162-43.397 128.953c-24.286 70.491-64.223 130.269-115.855 177.464l-0.326 0.294z" />
<glyph unicode="&#xf009;" glyph-name="t-armor3" horiz-adv-x="733" d="M539.676 960h-480.865c-32.464-0.039-58.771-26.346-58.811-58.807v-902.923c0-34.391 27.879-62.27 62.27-62.27v0h186.811c34.391 0 62.27 27.879 62.27 62.27v0 487.784c0.039 32.464 26.346 58.771 58.807 58.811h0.004c32.464-0.039 58.771-26.346 58.811-58.807v-487.788c0-34.391 27.879-62.27 62.27-62.27v0h179.892c34.391 0 62.27 27.879 62.27 62.27v0 902.919c-0.039 32.464-26.346 58.771-58.807 58.811h-0.004z" />
<glyph unicode="&#xf010;" glyph-name="t-armor4" horiz-adv-x="823" d="M770.876 850.697c-27.882-1.141-50.053-24.021-50.053-52.079 0-0.217 0.001-0.433 0.004-0.649v0.033-214.58h-37.796c0.523 2.77 0.835 5.97 0.863 9.238v290.944c-0.033 27.184-22.060 49.211-49.241 49.244h-0.003c-31.327 0-56.723-25.396-56.723-56.723v0-283.498c0.038-3.3 0.33-6.502 0.856-9.624l-0.050 0.362h-35.552c0 1.323 0 2.704 0 4.027v315.887c0 0.017 0 0.037 0 0.058 0 31.235-25.272 56.567-56.483 56.665h-2.368c-28.15 0-50.97-22.82-50.97-50.97v0-321.64c0-1.323 0-2.704 0-4.027h-37.393c0 1.323 0 2.704 0 4.027v282.866c0.001 0.086 0.001 0.188 0.001 0.289 0 27.024-21.793 48.957-48.763 49.185h-0.022c-0.017 0-0.037 0-0.058 0-31.295 0-56.665-25.37-56.665-56.665 0-0.020 0-0.040 0-0.061v0.003-275.617c0-1.323 0-2.704 0-4.027v0l-3.624-97.395c-0.894-21.532-18.567-38.649-40.237-38.649-5.641 0-11.011 1.16-15.885 3.254l0.262-0.1-117.415 47.288c-37.853 16.050-81.805 19.272-103.781-15.245s-4.027-69.782 27.729-96.935l159.813-165.681c41.65-35.84 80.539-82.725 133.695-92.793v-130.129c0-33.654 19.157-60.98 42.801-60.98h351.669c23.587 0 42.743 27.326 42.743 60.98v129.381c31.381 11.42 53.405 40.95 53.501 75.638v362.439c0.659 3.229 1.036 6.94 1.036 10.74 0 0.047 0 0.093 0 0.14v-0.007 218.607c-0.115 31.64-20.020 57.24-51.89 56.78z" />
<glyph unicode="&#xf011;" glyph-name="t-armor5" horiz-adv-x="870" d="M579.529 271.568l-147.996 42.69c-9.103 2.672-15.637 10.948-15.637 20.751 0 0.002 0 0.004 0 0.006v0 358.192c0.039 11.931 9.72 21.587 21.656 21.587 0 0 0 0 0 0v0c11.96 0 21.656 9.696 21.656 21.656v0 136.995c0 11.96-9.696 21.656-21.656 21.656v0c-11.96 0-21.656 9.696-21.656 21.656v0 21.587c0 0 0 0 0 0 0 11.912-9.617 21.577-21.51 21.656h-317.378c-11.96 0-21.656-9.696-21.656-21.656v0-21.587c0-11.96-9.696-21.656-21.656-21.656v0c-11.931-0.039-21.587-9.72-21.587-21.656 0 0 0 0 0 0v0-136.995c0 0 0 0 0 0 0-11.936 9.656-21.617 21.583-21.656h0.004c0 0 0 0 0 0 11.936 0 21.617-9.656 21.656-21.583v-394.728l-14.253-20.757c-25.638-36.33-41.010-81.503-41.098-130.261v-189.808c0-11.96 9.696-21.656 21.656-21.656v0h762.326c47.612 0 86.21 38.597 86.21 86.21 0 0.024 0 0.049 0 0.073v-0.004c-0.006 55.525-29.514 104.157-73.702 131.076l-0.677 0.383-143.844 86.279c-20.831 12.763-44.869 23.511-70.301 31.009l-2.14 0.541z" />
<glyph unicode="&#xf012;" glyph-name="t-armor6" horiz-adv-x="764" d="M384.024 960c48.051 0 96.102 0 144.153 0 69.194-0.641 106.673-38.441 107.698-107.378 0.277-3.833 0.435-8.305 0.435-12.814s-0.158-8.981-0.468-13.41l0.034 0.597c-7.047-57.661 1.089-109.685 50.101-148.125 114.041-150.624 102.060-356.795-29.984-495.823-12.61-11.671-20.478-28.309-20.478-46.785 0-1.279 0.038-2.55 0.112-3.81l-0.008 0.174c1.409-30.945 0.961-61.954 0-92.899-1.409-63.62-38.825-102.509-102.509-102.829q-152.034-1.409-304.259 0c-62.338 0.705-99.049 38.441-100.459 100.779-0.705 32.034-1.217 64.068 0 96.102 0.897 19.861-6.407 33.251-19.605 47.731-97.704 107.058-131.98 231.478-93.155 372.94 17.72 63.563 50.55 118.027 94.456 161.28l0.044 0.044c11.682 10.741 18.977 26.096 18.977 43.155 0 1.723-0.074 3.429-0.22 5.115l0.015-0.219c-1.217 27.677-0.448 55.483-0.32 83.288 0.32 77.074 36.327 112.568 114.874 112.888zM380.18 159.149c139.156-6.407 292.022 106.737 292.535 288.306 0.513 182.786-152.802 291.382-290.677 291.253-147.869-0.448-291.318-119.999-290.997-291.253 0.32-169.78 142.616-292.214 289.139-288.306zM380.18 652.986c27.613 0.705 44.848-15.12 46.193-45.681 1.345-35.109 1.538-70.475 0-105.584-0.833-20.566 5.318-34.020 23.769-44.079 19.104-11.083 35.493-22.388 50.941-34.816l-0.776 0.604c23.897-18.131 29.023-42.477 14.672-64.068-15.248-23.449-39.338-27.229-66.503-9.995-29.664 19.22-58.558 39.082-87.965 58.43-14.369 8.579-23.842 24.047-23.842 41.727 0 0.331 0.003 0.662 0.010 0.991l-0.001-0.049c0 51.254-0.769 102.509 0 153.763 0.641 31.265 16.85 48.243 43.502 48.756z" />
<glyph unicode="&#xf013;" glyph-name="t-magic1" horiz-adv-x="965" d="M962.628 627.024c1.627-4.475 2.568-9.64 2.568-15.026 0-13.635-6.031-25.861-15.571-34.156l-0.055-0.047-86.313-79.066c2.161-15.268 3.395-32.904 3.395-50.828s-1.234-35.56-3.621-52.827l0.226 1.999 86.574-78.804c9.595-8.342 15.626-20.568 15.626-34.203 0-5.385-0.941-10.551-2.667-15.341l0.099 0.315c-10.009-26.822-20.645-49.415-32.869-70.989l1.269 2.435-9.402-16.257c-14.336-23.674-28.919-44.056-44.877-63.254l0.677 0.837c-8.363-9.785-20.716-15.949-34.51-15.949-5.174 0-10.145 0.867-14.776 2.464l0.319-0.095-111.71 35.648c-25.41-19.7-54.405-36.744-85.469-49.844l-2.541-0.951-25.006-114.191c-3.752-18.233-18.075-32.293-36.154-35.606l-0.277-0.042c-25.516-4.431-54.9-6.964-84.876-6.964s-59.36 2.533-87.95 7.397l3.074-0.432c-18.348 3.373-32.663 17.424-36.381 35.354l-0.051 0.294-25.006 114.191c-33.706 14.031-62.789 31.078-89.166 51.459l0.894-0.664-110.992-35.583c-4.292-1.472-9.238-2.322-14.382-2.322-13.827 0-26.22 6.141-34.601 15.844l-0.049 0.059c-15.282 18.362-29.865 38.744-42.922 60.159l-1.279 2.258-9.402 16.192c-10.941 19.044-21.635 41.563-30.633 64.923l-1.163 3.435c-1.579 4.436-2.492 9.554-2.492 14.884 0 13.663 5.996 25.926 15.499 34.301l0.050 0.043 86.378 78.804c-2.148 15.325-3.381 33.040-3.395 51.041v0.016c0.009 17.92 1.242 35.544 3.622 52.802l-0.227-2.007-86.639 78.804c-9.477 8.413-15.42 20.627-15.42 34.23 0 5.47 0.961 10.716 2.724 15.578l-0.101-0.318c10.094 26.803 20.725 49.325 32.901 70.859l-1.301-2.501 9.402 16.192c14.336 23.674 28.919 44.056 44.877 63.254l-0.677-0.837c8.431 9.791 20.843 15.953 34.694 15.953 5.2 0 10.198-0.869 14.856-2.469l-0.321 0.096 110.992-35.387c25.41 19.7 54.405 36.744 85.469 49.844l2.541 0.951 25.202 114.191c3.769 18.224 18.083 32.275 36.153 35.605l0.279 0.043c25.376 4.569 54.584 7.182 84.402 7.182 0.167 0 0.333 0 0.5 0h-0.026c0.137 0 0.299 0 0.46 0 29.998 0 59.403-2.541 88.011-7.42l-3.073 0.433c18.357-3.355 32.68-17.415 36.381-35.356l0.050-0.293 24.745-114.061c33.606-14.033 62.602-31.079 88.89-51.451l-0.88 0.656 111.449 35.387c4.278 1.461 9.206 2.305 14.331 2.305 13.82 0 26.206-6.134 34.587-15.827l0.049-0.058c15.282-18.362 29.865-38.744 42.922-60.159l1.279-2.258 9.402-16.192c10.956-19.173 21.593-41.809 30.479-65.306l1.121-3.378zM482.75 287.518c0.019 0 0.042 0 0.065 0 88.415 0 160.090 71.675 160.090 160.090s-71.675 160.090-160.090 160.090c-88.3 0-159.904-71.489-160.089-159.746v-0.018c0-0.116 0-0.254 0-0.392 0-88.379 71.645-160.024 160.024-160.024 0 0 0 0 0 0v0z" />
<glyph unicode="&#xf014;" glyph-name="t-magic2" horiz-adv-x="900" d="M877.985 153.379l-235.394 377.679v302.522h14.791c26.644 0.036 48.229 21.643 48.229 48.292 0 0 0 0 0 0v0 29.835c0 26.649-21.585 48.256-48.226 48.292h-415.292c-26.671 0-48.292-21.621-48.292-48.292v-29.835c0-26.671 21.621-48.292 48.292-48.292v0h14.918v-302.522l-235.33-377.679c-13.449-21.331-21.43-47.28-21.43-75.093 0-78.516 63.596-142.178 142.087-142.285h614.916c78.528 0.071 142.16 63.747 142.16 142.285 0 27.813-7.98 53.763-21.776 75.683l0.347-0.59zM276.796 321.58l95.194 155.18c7.159 10.167 11.442 22.808 11.442 36.45 0 0.119 0 0.238-0.001 0.357v-0.018 320.032h126.42v-320.032c0.015-13.761 4.317-26.514 11.643-36.998l-0.139 0.21 95.194-155.18z" />
<glyph unicode="&#xf015;" glyph-name="t-magic3" horiz-adv-x="703" d="M511.463 192.866c19.162 63.694 58.919 118.076 98.257 172.219v0c10.387 14.148 20.774 28.355 30.802 42.741 39.292 55.971 62.792 125.515 62.792 200.549 0 194.217-157.444 351.66-351.66 351.66-193.431 0-350.387-156.173-351.653-349.306l-0.001-0.121c-0.007-0.85-0.012-1.856-0.012-2.862 0-74.761 23.489-144.037 63.49-200.848l-0.739 1.107c9.969-14.386 20.356-28.594 30.743-42.741v0c39.577-54.143 79.334-108.704 98.317-172.219h319.664zM511.463 98.966v28.773h-321.395v-31.937c0.264-88.386 71.976-159.935 160.399-159.935 7.092 0 14.076 0.46 20.925 1.353l-0.807-0.086c77.663 9.253 140.879 83.632 140.879 161.832zM189.829 609.175c-0.761-17.066-14.781-30.615-31.966-30.615s-31.206 13.548-31.964 30.546l-0.002 0.068c0 0.035 0 0.077 0 0.119 0 123.533 100.143 223.675 223.675 223.675 0.021 0 0.042 0 0.063 0h-0.003c0.412 0.019 0.896 0.030 1.382 0.030 17.671 0 31.996-14.325 31.996-31.996s-14.325-31.996-31.996-31.996c-0.486 0-0.969 0.011-1.45 0.032l0.068-0.002c-88.256 0-159.802-71.546-159.802-159.802 0-0.021 0-0.042 0-0.063v0.003z" />
<glyph unicode="&#xf016;" glyph-name="t-mount1" horiz-adv-x="1145" d="M825.998 430.868c0 0.016 0 0.036 0 0.055 0 29.287-23.742 53.029-53.029 53.029h-82.423c-29.294-0.031-53.030-23.786-53.030-53.085 0-0.097 0-0.195 0.001-0.292v0.015-427.668c-0.332-66.979 61.72-66.979 61.72-66.979h63.049c35.168 0 63.681 28.494 63.713 63.654v431.269zM768.983 392.895l-14.78-25.629c-1.84-3.102-5.171-5.148-8.98-5.148-0.015 0-0.030 0-0.045 0h-29.557c-0.015 0-0.033 0-0.051 0-3.791 0-7.103 2.049-8.89 5.099l-0.026 0.049-14.724 25.629c-0.888 1.481-1.413 3.267-1.413 5.176s0.525 3.695 1.439 5.222l-0.026-0.046 14.724 25.352c1.817 3.128 5.15 5.198 8.967 5.203h29.56c3.832-0.008 7.18-2.076 8.996-5.154l0.027-0.049 14.78-25.629c0.813-1.454 1.293-3.189 1.293-5.037s-0.479-3.584-1.32-5.090l0.027 0.053zM403.367 208.62c25.338 25.306 41.013 60.281 41.018 98.917v0.001c0 4.594 0 9.189-0.609 13.728l-125.765 189.146c-9.701 13.975-25.667 23.010-43.744 23.010-11.205 0-21.599-3.471-30.165-9.398l0.177 0.116-56.904-35.537c-13.985-9.7-23.027-25.672-23.027-43.755 0-11.318 3.542-21.809 9.578-30.424l-0.113 0.171 13.506-23.636 23.027-34.32c16.606-24.688 12.731-57.126-2.38-83.032-19.718-32.948-31.378-72.684-31.378-115.143 0-25.64 4.252-50.288 12.089-73.276l-0.473 1.598 34.873-104.343c7.842-24.394 30.332-41.737 56.872-41.737 1.277 0 2.545 0.040 3.802 0.119l-0.172-0.009h66.813c0.684-0.027 1.486-0.043 2.292-0.043 34.056 0 61.665 27.608 61.665 61.665 0 7.233-1.245 14.174-3.533 20.623l0.133-0.431-41.405 124.437c-1.153 3.347-1.819 7.204-1.819 11.216 0 9.774 3.952 18.625 10.345 25.042l-0.001-0.001zM299.522 422.066c0-0.013 0-0.028 0-0.042 0-3.809-2.047-7.14-5.1-8.954l-0.048-0.026-25.629-14.78c-1.487-0.862-3.272-1.37-5.176-1.37s-3.688 0.508-5.226 1.397l0.050-0.027-25.629 14.78c-3.128 1.843-5.195 5.19-5.203 9.022v29.56c0.005 3.817 2.076 7.15 5.154 8.941l0.049 0.027 25.629 14.78c1.481 0.888 3.267 1.413 5.176 1.413s3.695-0.525 5.222-1.439l-0.046 0.026 25.629-14.78c3.099-1.813 5.148-5.126 5.148-8.917 0-0.018 0-0.036 0-0.054v0.003zM1102.216 897.228h9.798c0.178-0.004 0.388-0.006 0.599-0.006 16.086 0 29.423 11.77 31.87 27.167l0.024 0.183c0.161 1.197 0.254 2.581 0.254 3.986 0 17.337-14.032 31.397-31.359 31.441h-211.734c-0.247 0.001-0.539 0.001-0.831 0.001-141.549 0-256.348-114.528-256.788-255.973v-0.042h-255.958v70.521c0 22.929-18.587 41.516-41.516 41.516v0h-33.213c-22.929 0-41.516-18.587-41.516-41.516v0-72.791c-50.318-8.397-92.479-37.772-117.871-78.651l-0.421-0.727c-86.932-11.635-153.311-85.212-153.553-174.341v-110.734c-0.029-0.624-0.045-1.356-0.045-2.092 0-26.689 21.636-48.324 48.324-48.324s48.324 21.636 48.324 48.324c0 0.346-0.004 0.692-0.011 1.037l0.001-0.051v112.535s10.351 50.206 30.722 64.709v0c0.846-6.066 6-10.684 12.232-10.684 3.616 0 6.868 1.555 9.126 4.032l0.009 0.010c4.021 4.243 8.443 8.032 13.228 11.332l0.279 0.182 63.27 39.966c12.958 8.999 29.020 14.377 46.339 14.377 27.916 0 52.569-13.973 67.347-35.306l0.178-0.272 158.203-231.104 106.446-30.445v164.568c0 0.016 0 0.036 0 0.056 0 45.554 36.882 82.494 82.414 82.588h90.181c0.049 0 0.108 0 0.166 0 45.215 0 81.869-36.654 81.869-81.869 0-0.020 0-0.039 0-0.059v0.003-67.145c18.482 31.304 29.615 68.874 30.166 109.001l0.002 0.158v158.424h31.995l19.595-38.748c18.361-35.374 54.712-59.124 96.611-59.124 14.405 0 28.155 2.807 40.731 7.905l-0.727-0.26c39.93 15.946 67.659 54.23 67.809 99.010v153.018c0 0.022 0 0.048 0 0.075 0 37.44-16.411 71.048-42.432 94.021l-0.135 0.117zM807.731 713.95l-14.78-25.629c-1.84-3.102-5.171-5.148-8.98-5.148-0.015 0-0.030 0-0.045 0h-29.557c-0.015 0-0.033 0-0.051 0-3.791 0-7.103 2.049-8.89 5.099l-0.026 0.049-14.724 25.629c-0.888 1.481-1.413 3.267-1.413 5.176s0.525 3.695 1.439 5.222l-0.026-0.046 14.724 25.352c1.817 3.128 5.15 5.198 8.967 5.203h29.56c3.832-0.008 7.18-2.076 8.996-5.154l0.027-0.049 14.78-25.629c0.813-1.454 1.293-3.189 1.293-5.037s-0.479-3.584-1.32-5.090l0.027 0.053zM1077.251 766.26h-99.638c-18.343 0-33.213 14.87-33.213 33.213s14.87 33.213 33.213 33.213v0h99.638c18.343 0 33.213-14.87 33.213-33.213s-14.87-33.213-33.213-33.213v0z" />
<glyph unicode="&#xf017;" glyph-name="t-mount2" horiz-adv-x="1418" d="M66.888 53.276c0 16.248 0 32.559 0 48.87s0 16.817-17.765 18.966c-7.776 0.948-15.616 1.517-23.392 2.276-18.081 1.833-25.289 8.598-25.289 26.237-0.443 25.289 0 50.577 0 75.866-0.055 0.689-0.087 1.492-0.087 2.303 0 11.836 6.748 22.095 16.606 27.142l0.172 0.080c16.311 9.42 16.88 7.27 13.15 27.881-11.317 62.463-12.644 124.863 7.65 185.998 27.501 85.223 87.625 135.168 173.859 153.249 35.847 7.523 72.831 9.673 109.31 14.098 22.886 2.782 33.634 12.012 39.134 34.898 13.782 58.037 27.438 166.652 41.094 224.69 5.121 21.622 8.408 24.656 29.651 27.565 88.51 12.139 176.578 25.289 265.088 35.847 21.053 2.529 43.117-1.707 64.486-4.552 75.297-10.052 150.467-20.8 225.701-31.231 22.317-3.098 25.289-5.816 30.662-28.513 13.719-57.974 27.628-166.589 41.157-224.626 1.982-9.129 6.444-17.007 12.64-23.135l0.004-0.004c5.992-6.218 14.2-10.265 23.348-10.868l0.107-0.006c41.157-5.058 83.073-7.65 123.282-17.323 96.666-23.266 152.238-87.562 171.836-183.912 4.362-22.003 6.858-47.301 6.858-73.182 0-28.826-3.097-56.928-8.975-83.993l0.473 2.598c-2.213-11.317-1.138-18.587 9.799-23.139 17.007-7.144 21.622-20.421 20.8-37.933-1.012-21.622 0-43.37 0-65.118s-6.322-29.145-28.134-31.105c-7.207-0.632-14.415-2.086-21.622-2.15-9.673 0-11.886-4.868-11.759-13.593 0.379-32.559 0-65.118 0-97.677 0-45.836-27.185-73.211-72.894-73.527-18.145 0-36.226 0.379-54.307 0-1.422-0.106-3.081-0.166-4.754-0.166-37.535 0-67.963 30.428-67.963 67.963 0 1.527 0.050 3.042 0.149 4.543l-0.011-0.204c1.644 25.858 0.379 51.842 0 77.763 0 16.311 0 16.69-15.363 15.742q-65.055-3.983-129.92-8.535c-14.162-1.012-14.541-1.77-14.667-16.627 0-18.966 0-37.427 0-56.141-0.443-21.811-6.954-28.45-28.070-28.513q-259.651 0-519.302 0c-21.369 0-28.323 6.954-28.639 28.007 0 19.346-0.443 38.628 0 57.911 0 9.483-2.339 14.604-12.644 15.236-43.37 2.655-86.677 5.5-129.92 8.788-10.242 0.822-12.265-3.667-12.202-12.644 0.316-26.49 0-53.043 0-79.596 0-47.037-27.059-73.59-74.475-73.843-18.966 0-37.427-0.379-56.078 0-41.853 1.012-68.343 28.007-68.912 69.986-0.063 15.995 0.126 31.674 0.126 47.353zM659.338 123.199c75.107 1.897 134.219 2.15 193.205 5.184 84.843 4.426 169.687 10.305 254.404 16.438q122.65 8.851 245.11 19.472c22.57 1.96 21.432-2.15 21.559 22.886 0 4.236 0 8.408 0 12.644 0 23.266-16.185 37.933-40.019 35.847-16.754-1.707-33.381-4.995-50.135-6.891-113.799-12.644-227.598-25.858-341.397-37.427-62.507-7.162-134.947-11.248-208.342-11.248-22.622 0-45.154 0.388-67.589 1.158l3.256-0.089c-83.073 3.351-166.083 8.977-248.967 15.616-61.198 4.995-122.207 13.024-183.343 20.168-50.577 5.88-100.396 12.644-150.657 18.587-26.174 3.035-42.169-11.506-42.169-37.174v-7.27c0-25.289 0-25.289 26.553-27.501 82.188-6.322 164.376-13.782 246.944-19.283 119.236-8.029 238.598-14.794 341.586-21.116zM710.737 898.549c-5.5-0.443-9.357-0.569-13.15-1.075l-126.443-17.386c-30.662-4.236-61.325-8.282-91.924-12.644-6.701-0.948-13.972-0.443-16.185-10.558-7.397-34.582-15.869-115.316-23.835-149.772-0.136-1.167-0.213-2.518-0.213-3.888s0.078-2.721 0.228-4.051l-0.015 0.163c2.979 0.799 5.522 1.727 7.96 2.846l-0.31-0.128c61.009 33.002 126.822 51.083 194.849 61.704 25.289 3.857 50.577 8.914 75.866 6.828 88.51-7.46 174.744-25.921 254.088-68.595 2.148-1.027 4.675-1.936 7.302-2.595l0.285-0.061c0.023 0.565 0.036 1.228 0.036 1.894 0 2.589-0.197 5.131-0.577 7.614l0.035-0.278c-7.46 32.306-15.679 110.764-22.254 143.26-2.402 11.759-8.661 14.541-18.966 15.932-45.962 5.943-91.924 12.644-137.886 18.966zM731.031 402.512c0 54.813 0 109.563 0 164.376 0 5.121 0 12.644-2.908 14.92-5.31 3.931-11.989 6.292-19.219 6.292-4.736 0-9.235-1.013-13.293-2.834l0.206 0.082c-11.57-4.552-8.535-13.087-8.535-20.8q0-156.221 0-312.441c0-32.369-4.615-27.059 27.628-27.438 16.122 0 16.248 0 16.248 17.070q0 80.418-0.126 160.772zM775.286 395.747c0-48.238 0-96.476 0-144.714 0-26.3-5.311-26.743 26.49-24.53 18.271 1.264 18.334 1.391 18.334 19.852v273.18c0 31.611 0 31.611-30.726 41.6-13.782 4.426-14.035 4.426-14.098-9.799q-0.253-77.763-0.126-155.588zM643.027 396.569v140.984c0 28.829 0 28.829-26.743 18.966-18.018-6.322-18.081-6.322-18.081-25.289q0-138.266 0-276.531c0-32.622-3.414-25.858 26.3-28.45 18.397-1.581 18.461-1.264 18.461 18.208q0 76.182-0.063 152.111zM233.477 379.816c35.98 0.57 64.929 29.87 64.929 65.932 0 36.418-29.522 65.94-65.94 65.94s-65.94-29.522-65.94-65.94c0-0.020 0-0.039 0-0.059v0.003c0.321-36.452 29.946-65.879 66.443-65.879 0.179 0 0.357 0.001 0.536 0.002h-0.027zM1189.008 379.816c0.371-0.007 0.807-0.012 1.245-0.012 36.488 0 66.067 29.579 66.067 66.067s-29.579 66.067-66.067 66.067c-35.928 0-65.157-28.678-66.046-64.392l-0.002-0.082c-0.027-0.698-0.042-1.517-0.042-2.34 0-35.893 28.983-65.016 64.823-65.243h0.022zM864.239 381.333q0-62.21 0-124.483c0-26.616 0-26.616 26.427-25.289 17.449 0.948 17.576 0.948 17.576 18.524 0 79.406 0.316 158.813 0 238.156 0 37.427 6.322 27.375-28.892 40.525-14.541 5.437-14.857 5.121-14.92-10.305-0.253-45.646-0.19-91.355-0.19-137.064zM553.821 381.333v124.357c0 28.892 0 29.082-26.616 18.966-18.966-7.018-17.323-2.655-17.323-25.289q0-119.109 0-238.282c0-32.622-4.552-27.501 28.892-29.588 14.604-0.885 14.857-0.506 14.92 14.162 0.19 45.267 0.126 90.407 0.126 135.547z" />
<glyph unicode="&#xf018;" glyph-name="t-mount3" horiz-adv-x="1115" d="M0 482.823c5.433 10.808 11.56 20.576 24.506 24.159 2.824 0.853 6.069 1.343 9.428 1.343 17.629 0 32.102-13.515 33.622-30.75l0.009-0.128c0.289-3.93 0-7.976 0-11.964 0-44.215 0-88.488 0-132.934 0-31.211 17.339-53.521 46.238-59.936 4.302-0.823 9.249-1.294 14.307-1.294 0.66 0 1.318 0.008 1.974 0.024l-0.097-0.002c15.259 0 30.517 0 45.718 0 11.56 0 11.56 0 11.56 11.964v8.727q0.52 218.244 0.867 436.43c0 20.114 3.641 38.84 16.299 55.081 17.339 22.021 40.458 31.268 67.45 31.384 52.018 0 103.747 0.405 155.591 0 33.523-0.289 59.358-14.392 75.137-44.909 5.318-10.88 8.428-23.675 8.428-37.195 0-1.005-0.017-2.006-0.051-3.003l0.004 0.145c0-31.904 0-63.577 0-95.771 0-9.594 0-9.71 9.305-9.71 25.373 0 50.804 0 76.177 0 6.762 0 8.67 2.081 8.612 8.67 0 31.557 0 63.115 0.347 94.672-0.056 1.196-0.088 2.598-0.088 4.007 0 13.876 3.101 27.027 8.647 38.799l-0.236-0.556c15.663 30.402 41.383 44.735 75.137 45.024q78.374 0.694 156.747 0c32.945-0.347 58.722-14.103 74.386-44.1 5.536-11.387 8.773-24.772 8.773-38.912 0-1.52-0.037-3.031-0.111-4.532l0.008 0.211q0-215.412 0.405-430.997c0-7.918 0.52-15.837 0.751-23.697 8.207-0.52 16.357-1.272 24.564-1.445 12.658 0 25.373 0 38.089 0 26.676 0.441 48.596 20.248 52.33 45.948l0.035 0.29c0.884 5.349 1.389 11.514 1.389 17.796 0 0.205-0.001 0.41-0.002 0.615v-0.032q0 68.086 0 136.056c-0.065 0.785-0.102 1.7-0.102 2.623 0 18.737 15.19 33.927 33.927 33.927 17.483 0 31.877-13.224 33.726-30.215l0.013-0.151c0.055-0.812 0.086-1.761 0.086-2.716s-0.031-1.904-0.093-2.844l0.007 0.128c0-49.706 0.52-99.412 0-149.118-0.568-53.119-35.303-97.976-83.24-113.677l-0.855-0.242c-13.034-3.74-28.066-6.078-43.581-6.469l-0.229-0.005c-15.894-1.040-31.904-0.52-47.856 0-7.282 0-9.19-2.37-9.016-9.363 0.462-19.593 0-39.187 0.289-58.78 0-6.647-1.156-9.537-8.785-9.537-102.649 0.289-205.355 0-308.003 0-9.19 0-9.248 0-9.248 9.941 0 14.912 0 29.766 0.347 44.62 0 6.3-1.387 9.132-8.381 9.016-24.68-0.347-49.359-0.405-73.981 0-7.282 0-8.323-2.832-8.149-9.016 0.347-14.854 0-29.708 0-44.62 0-9.883 0-9.941-10.115-9.941h-305.229c-10.115 0-10.172 0-10.172 10.115 0 19.189 0 38.435 0 57.798 0 9.305 0 9.363-9.768 9.479-19.593 0-39.187 0-58.78 0.578-59.147 2.888-107.296 46.525-117.107 103.293l-0.106 0.743c-0.534 1.889-1.183 3.52-1.978 5.064l0.071-0.151zM766.974 480.28v0c20.981 0 42.077-0.694 63.057 0 15.161 1.093 27.334 12.592 29.456 27.34l0.020 0.172c0.317 1.726 0.499 3.713 0.499 5.742 0 13.659-8.226 25.396-19.993 30.529l-0.215 0.083c-4.995 2.037-10.788 3.242-16.856 3.294h-0.021c-36.99 0-74.039 0-111.029 0-4.978-0.054-9.766-0.768-14.313-2.058l0.383 0.093c-12.975-4.124-22.352-15.726-23.115-29.623l-0.004-0.085c-0.090-0.907-0.141-1.961-0.141-3.027 0-17.522 13.873-31.803 31.235-32.459l0.060-0.002c20.287-0.867 40.632 0 60.976 0zM350.831 737.826v0c-19.94 0-39.823 0.347-59.763 0-18.61 0-33.696-15.086-33.696-33.696s15.086-33.696 33.696-33.696v0c39.823-0.52 79.587 0 119.41 0 0.086-0.001 0.188-0.001 0.29-0.001 11.014 0 20.708 5.653 26.339 14.216l0.073 0.119c3.982 5.311 6.377 12.011 6.377 19.272 0 5.371-1.311 10.436-3.63 14.893l0.085-0.179c-5.030 11.195-16.083 18.85-28.924 18.85-0.255 0-0.51-0.003-0.764-0.009l0.038 0.001c-19.825 0.347-39.707 0.058-59.589 0.058zM350.253 479.933v0c20.634 0 41.383-0.751 62.017 0 17.229 0.961 30.837 15.166 30.837 32.55 0 2.516-0.285 4.966-0.825 7.318l0.042-0.219c-3.179 17.339-16.646 27.569-36.355 27.685-36.99 0-74.039 0-111.029 0-4.967-0.018-9.76-0.734-14.294-2.056l0.365 0.091c-13.659-4.401-23.367-16.998-23.367-31.863 0-2.326 0.238-4.597 0.69-6.789l-0.037 0.216c2.977-15.251 16.232-26.603 32.138-26.603 0.365 0 0.729 0.006 1.091 0.018l-0.053-0.001c19.593-0.751 39.187-0.347 58.78-0.347zM767.205 737.653v0h-59.994c-18.031-0.77-32.357-15.574-32.357-33.725s14.326-32.955 32.288-33.723l0.069-0.002c39.88-0.52 79.761-0.405 119.699 0 0.089-0.001 0.195-0.001 0.3-0.001 13.341 0 24.773 8.174 29.561 19.787l0.078 0.212c1.902 4.074 3.012 8.845 3.012 13.875 0 18.302-14.691 33.172-32.924 33.461h-0.027c-19.825 0.636-39.765 0.116-59.705 0.116zM604.505 316.597h0.405c0 17.050 0 34.101 0 51.093 0 6.242-2.023 8.149-8.092 8.034q-38.089-0.347-76.177 0c-6.358 0-7.976-2.543-7.918-8.381q0.52-51.151 0.462-102.244c0-5.78 2.196-7.398 7.629-7.34 25.026 0 50.053 0 75.137 0 6.762 0 8.843 2.196 8.727 8.785-0.405 16.646-0.173 33.349-0.173 50.053zM605.083 499.353v0c0 16.646 0 33.291 0 49.937 0 5.375-1.272 7.629-7.225 7.571-26.414 0-52.827 0-79.241 0-4.913 0-7.167-1.156-7.109-6.647q0.52-49.937 0.462-99.874c0-5.26 1.907-6.878 6.994-6.82q39.707 0 79.298 0c5.433 0 6.647 2.139 6.589 7.051 0.116 16.183 0.231 32.482 0.231 48.781zM348.52-63.769c-26.471 0-52.943-0.289-79.356 0-33.465 0.347-58.722 15.027-73.287 45.313-4.208 9.479-7.054 20.476-7.954 32.019l-0.022 0.347c-1.329 12.542 0 25.373-0.462 38.031 0 4.624 1.445 6.82 6.242 6.358 1.792 0 3.583 0 5.433 0h303.726c12.137 0 11.56 1.445 11.56-10.808 0-9.421 0-18.842 0-28.263-0.898-44.951-36.81-81.227-81.531-82.705l-0.137-0.004c-27.858-0.925-55.832 0-83.749 0zM767.321 58.358h152.297c9.941 0 10.057 0 10.057-9.941 0-12.658 0.347-25.373-0.347-38.031-2.243-39.784-34.087-71.447-73.742-73.396l-0.181-0.007c-29.997-1.272-60.109-0.462-90.222-0.52-25.373 0-50.746-0.289-76.119 0-0.164-0.001-0.357-0.002-0.551-0.002-38.628 0-71.226 25.813-81.488 61.13l-0.149 0.599c-5.78 18.38-3.179 37.395-3.179 56.121 0 1.329 2.37 3.41 3.93 3.815 1.301 0.152 2.808 0.239 4.335 0.239s3.034-0.087 4.516-0.256l-0.181 0.017zM765.24 869.431h-71.669c-9.479 0-9.537 0-9.652 9.71 0 16.299-0.578 32.656 8.323 47.394 10.584 18.549 29.682 31.183 51.831 32.588l0.186 0.009c6.813 0.497 14.759 0.78 22.772 0.78s15.96-0.283 23.831-0.84l-1.059 0.060c30.633-1.904 55-26.291 56.864-56.76l0.008-0.171c0.52-8.265 0-16.646 0.462-24.969 0.347-6.184-1.965-8.092-8.034-8.034-24.622 0.405-49.244 0.231-73.865 0.231zM348.173 869.431c-23.87 0-47.799 0-71.669 0-7.051 0-9.826 1.907-9.19 9.132s0 13.004 0 19.536c1.196 33.025 27.406 59.556 60.185 61.259l0.155 0.006c12.311 0.636 24.911 0.636 36.933 0.347 39.534-0.636 64.907-25.836 65.947-65.311 0-5.433 0-10.924 0-16.299 0.578-6.647-1.907-8.843-8.612-8.785-24.506 0.289-49.128 0.116-73.75 0.116z" />
<glyph unicode="&#xf019;" glyph-name="t-misc1" horiz-adv-x="1025" d="M510.294-63.574c-94.681 0-189.361-0.355-284.326 0-156.735 0.64-247.293 115.436-221.561 271.034 38.242 229.593 180.405 378.225 371.827 490.249 8.566 3.879 18.574 6.14 29.111 6.14 1.737 0 3.46-0.061 5.167-0.182l-0.229 0.013c62.765 0.498 125.53 2.204 188.153-0.711 27.933-0.773 53.931-8.374 76.595-21.183l-0.822 0.427c131.43-80.606 240.611-183.39 304.229-326.975 29.144-63.036 46.142-136.801 46.142-214.537 0-3.245-0.030-6.482-0.089-9.713l0.007 0.485c-2.275-105.769-94.396-192.702-208.909-194.55-101.718-1.635-203.506-0.355-305.295-0.355zM513.706 960c61.557 0 123.113 0.498 184.812 0 40.303-0.426 52.814-23.741 31.134-57.647-24.879-38.81-49.757-77.763-76.839-114.939-8.286-10.334-20.418-17.287-34.192-18.677l-0.211-0.017c-69.731-1.706-139.604-1.848-209.406 0-14.96 1.537-27.947 8.925-36.813 19.804l-0.078 0.099c-27.437 37.105-52.245 76.057-76.981 115.010-20.258 32.058-7.535 55.515 30.494 55.941 62.694 0.426 125.388 0.426 188.082 0.426z" />
<glyph unicode="&#xf020;" glyph-name="t-misc2" horiz-adv-x="1150" d="M262.056 937.978c10.832 13.472 27.312 22.022 45.79 22.022 0.001 0 0.002 0 0.002 0h536.353c17.671-0.031 33.326-8.634 43.032-21.872l0.105-0.15 251.499-341.269c6.541-8.851 10.47-19.979 10.47-32.024 0-13.926-5.251-26.626-13.882-36.228l0.044 0.050-520.679-574.761c-9.91-10.915-24.155-17.741-39.995-17.741s-30.085 6.826-39.955 17.696l-0.040 0.045-520.873 574.761c-8.63 9.528-13.912 22.228-13.912 36.161 0 12.062 3.958 23.199 10.646 32.184l-0.102-0.144 251.499 341.269zM348.458 848.662c-4.393-3.307-7.203-8.512-7.203-14.373 0-3.398 0.944-6.575 2.585-9.283l-0.045 0.080 129.020-214.839-330.323-27.397c-9.266-0.812-16.48-8.534-16.48-17.941s7.214-17.129 16.412-17.936l0.068-0.005 433.953-35.947 431.103 35.947c8.941 1.073 15.805 8.613 15.805 17.756 0 0.065 0 0.13-0.001 0.195v-0.010c0 0.002 0 0.005 0 0.008 0 9.374-7.164 17.075-16.315 17.928l-0.071 0.005-330.323 27.397 128.826 214.645c1.609 2.63 2.561 5.814 2.561 9.22 0 5.861-2.82 11.063-7.178 14.323l-0.047 0.033c-2.97 2.176-6.696 3.482-10.727 3.482-5.239 0-9.963-2.206-13.294-5.74l-0.009-0.009-202.015-218.855-202.274 219.114c-3.319 3.544-8.027 5.753-13.25 5.753-4.058 0-7.805-1.333-10.827-3.585l0.048 0.034z" />
<glyph unicode="&#xf021;" glyph-name="t-misc3" horiz-adv-x="827" d="M222.65 829.458c-57.754 16.734-70.067 32.653-64.489 80.815 3.741 32.244 19.251 48.911 52.312 49.115q203.059 1.224 406.253 0c32.176 0 49.047-17.619 51.224-46.598 4.014-52.448-4.762-69.183-43.537-77.006-15.034-2.993-20.408-8.503-20.408-24.217 0.816-57.006 1.020-114.080 0-171.086 0-17.755 9.66-24.285 22.177-32.381 132.787-85.577 204.555-205.916 200.337-365.777-1.46-100.54-39.76-191.862-101.967-261.33l0.335 0.381c-23.781-27.862-58.933-45.414-98.184-45.414-1.14 0-2.278 0.015-3.411 0.044l0.168-0.003q-210.882 0.544-422.307 0c-0.958-0.027-2.086-0.042-3.217-0.042-39.228 0-74.171 18.345-96.719 46.923l-0.198 0.261c-168.025 204.895-121.427 488.429 103.060 629.379 7.483 4.762 17.619 13.605 17.755 20.408 1.361 65.781 0.816 131.563 0.816 196.528zM127.413 288.376c18.095 6.803 29.727 10.816 40.816 15.306 112.924 44.081 223.534 43.741 332.785-13.061 21.767-11.385 47.008-20.341 73.59-25.558l1.783-0.292c41.292-7.891 83.468-11.36 129.25-17.279-2.993 75.645-16.054 140.678-66.802 188.025-39.863 37.278-86.802 67.346-132.583 97.754-16.462 10.816-25.646 18.571-25.238 40.272 1.633 75.713-0.816 151.495 1.429 227.14 0.816 28.435-8.707 36.734-34.829 33.061-4.395-0.309-9.524-0.485-14.694-0.485s-10.299 0.176-15.381 0.523l0.687-0.038c-68.775 0-68.775 0-68.775-67.482 0-65.033-0.476-130.066 0.34-195.099 0-17.279-6.19-25.306-21.36-34.557-43.741-26.802-88.434-54.013-126.665-87.482-45.782-40.136-63.877-96.189-74.625-160.746z" />
<glyph unicode="&#xf022;" glyph-name="t-misc4" horiz-adv-x="898" d="M698.73 705.012l55.159-19.264c12.842-4.559 26.327-8.732 39.363-13.549 71.469-26.52 111.409-89.898 100.75-159.569-11.301-73.717-69.543-125.215-145.891-128.939-5.33 0-10.723 0-16.053 0q-283.821 0-567.769 0c-35.060 0-68.323 6.422-97.282 26.648-47.517 33.712-69.735 80.33-63.763 138.636s37.436 96.961 89.898 119.372c22.235 9.763 49.327 19.219 77.222 26.715l4.2 0.961c11.59 1.605 20.557 10.99 21.506 22.643l0.006 0.089c15.154 73.845 62.222 112.051 137.287 112.758 33.134 0 66.332 0.385 99.466 0 19.264 0 36.602 2.376 45.912 21.897s1.734 35.125-12.329 48.93c-0.771 0.706-1.477 1.541-2.248 2.312-10.723 10.338-16.31 23.181-8.989 37.372s19.842 18.558 35.125 17.915c88.871-4.431 162.844-48.416 197.133-134.205 14.769-37.501 18.044-71.277 11.301-120.72zM315.123 316.075h266.869c-15.925-127.591-31.593-253.127-47.453-380.075h-171.77c-15.668 124.958-31.4 250.751-47.646 380.075zM293.033-63.229c-64.213-5.266-103.704 25.685-114.299 86.623-12.072 69.479-22.924 139.214-34.29 208.884-4.431 27.162-8.732 54.389-13.42 83.477h114.427c15.796-125.471 31.528-251.201 47.582-378.983zM604.402-62.523c15.796 126.948 31.4 251.907 47.196 378.469h114.813c-8.604-53.233-16.824-104.731-25.299-156.23-8.027-48.481-15.218-97.154-24.722-145.378-10.723-54.196-52.205-83.348-111.987-76.862z" />
<glyph unicode="&#xf023;" glyph-name="t-misc5" horiz-adv-x="1277" d="M747.78 527.469l239.754-166.629c74.534-51.783 149.838-102.541 223.347-155.606 84.981-61.396 88.954-177.46 5.832-236.742-26.53-18.544-59.225-30-94.536-31.013l-0.25-0.006c-322.427-2.243-644.919-1.602-967.346-1.218-71.266 0.192-128.945 42.17-148.172 105.874s3.589 125.292 63.704 167.078q304.931 212.068 610.76 422.982c35.313 24.289 55.949 54.988 55.885 98.247 0 53.706-33.646 94.915-83.315 102.541-53.385 8.139-96.581-18.586-114.013-70.497-1.41-4.038-2.115-8.331-3.653-12.305-12.177-31.467-44.862-49.925-73.509-41.273-34.608 10.51-51.911 41.465-43.58 77.867 24.225 102.733 127.151 180.729 229.243 172.653 114.718-9.036 201.685-92.864 210.85-204.121 7.114-85.942-19.931-157.593-90.172-210.658-5.96-4.422-11.408-9.421-20.829-17.176zM638.318 62.766c157.977 0 315.954 0 474.252 0.641 12.818 0 25.635 8.78 38.837 13.523-8.011 12.113-13.394 28.007-24.418 35.761-153.811 107.988-308.456 214.439-462.075 322.427-19.995 14.035-33.39 13.715-53.129 0-153.811-107.924-308.392-214.503-462.139-322.299-10.831-7.562-16.919-21.854-25.251-33.005 13.394-5.64 26.789-16.022 40.247-16.086 157.657-1.474 315.634-0.961 473.675-0.961z" />
<glyph unicode="&#xf024;" glyph-name="t-misc6" horiz-adv-x="896" d="M192 960c-106.039 0-192-85.961-192-192v0-640c0-106.039 85.961-192 192-192v0h638.080c0.318-0.006 0.692-0.009 1.068-0.009 33.566 0 61.209 25.354 64.826 57.955l0.026 0.294c0.165 1.726 0.26 3.732 0.26 5.761 0 35.346-28.654 64-64 64-0.091 0-0.183 0-0.274-0.001h0.014v128c35.346 0 64 28.654 64 64v0 640c0 35.346-28.654 64-64 64v0h-640zM193.92 192h510.080v-128h-512c-35.343 0.004-63.993 28.656-63.993 64 0 2.028 0.094 4.034 0.279 6.014l-0.019-0.254c3.645 32.893 31.288 58.245 64.852 58.245 0.282 0 0.563-0.002 0.844-0.005h-0.043zM291.307 704h381.867c0.156 0.003 0.34 0.004 0.525 0.004 15.226 0 28.025-10.392 31.692-24.47l0.050-0.228c0.537-2.195 0.845-4.715 0.845-7.307 0-17.673-14.327-32-32-32-0.016 0-0.032 0-0.048 0h-383.998c-0.013 0-0.029 0-0.045 0-17.673 0-32 14.327-32 32 0 2.592 0.308 5.112 0.89 7.525l-0.044-0.218c3.717 14.306 16.516 24.698 31.742 24.698 0.184 0 0.369-0.002 0.552-0.005h-0.028zM290.24 576h382.933c0.156 0.003 0.34 0.004 0.525 0.004 15.226 0 28.025-10.392 31.692-24.47l0.050-0.228c0.537-2.195 0.845-4.715 0.845-7.307 0-17.673-14.327-32-32-32-0.016 0-0.032 0-0.048 0h-382.931c-0.077-0.001-0.168-0.001-0.259-0.001-15.225 0-28.023 10.39-31.691 24.467l-0.050 0.228c-0.537 2.195-0.846 4.715-0.846 7.307 0 17.595 14.201 31.874 31.767 31.999h0.012z" />
<glyph unicode="&#xf025;" glyph-name="t-misc7" horiz-adv-x="1232" d="M1231.576 509.42q0-126.749 0-253.499c0.155-2.294 0.243-4.974 0.243-7.674 0-7.073-0.606-14.004-1.768-20.747l0.103 0.721c-5.565-23.804-29.183-31.347-46.929-14.468-10.221 10.794-19.912 22.408-28.851 34.607l-0.703 1.006c-52.124 64.923-114.845 118.853-185.953 159.867l-3.182 1.692c-45.014 25.237-98.787 40.1-156.031 40.1-7.885 0-15.704-0.282-23.447-0.837l1.040 0.060c-12.922-0.619-18.549-4.699-18.239-18.054 0.371-70.053 0-140.104 0-210.219 0-15.705 7.358-16.323 19.723-12.366 42.044 14.53 74.628 59.912 77.719 109.994 0.865 14.344 0.619 28.812 0 43.28 0 11.809 6.183 15.457 15.518 11.068 31.471-15.025 62.819-30.296 93.114-47.423 5.565-3.154 8.595-15.705 8.099-23.68-6.183-106.469-93.362-202.12-198.966-218.133-21.119-3.431-45.561-5.471-70.452-5.625l-0.157-0.001c-112.282-0.556-224.563-0.865-336.844 0-73.082 0.495-138.682 22.815-187.837 78.894-68.322 78.77-81.738 168.298-44.332 265.432 10.263 26.524 11.006 26.277-15.89 26.648-21.331 0-39.694 0-57.563-19.167-22.629-24.299-64.24-8.347-67.764 25.165-1.422 17.601-2.232 38.102-2.232 58.794 0 17.252 0.563 34.373 1.673 51.345l-0.121-2.309c0.619 17.931 12.366 29.493 29.74 35.551 4.173 1.723 9.017 2.722 14.095 2.722 12.316 0 23.259-5.885 30.167-14.995l0.069-0.094c7.105-9.34 18.226-15.309 30.741-15.309 1.236 0 2.46 0.059 3.667 0.172l-0.154-0.012c68.012 0.556 136.024 0.989 204.036 0 20.404-0.371 28.194 6.183 26.463 26.153-0.504 5.557-0.791 12.019-0.791 18.549s0.287 12.992 0.849 19.375l-0.059-0.827c2.226 27.451 17.931 42.786 42.847 43.28s41.116-14.901 43.837-42.229c0.66-7.524 1.035-16.279 1.035-25.122 0-6.388-0.196-12.731-0.582-19.022l0.043 0.863c-0.619-13.912 3.834-19.662 18.982-20.589 59.912-3.772 59.912-4.328 63.128 56.944 1.669 32.213 16.509 48.969 43.28 49.092s42.105-16.138 43.837-48.35c0-3.092 0-6.183 0-9.274 2.164-15.58 1.423-42.847 7.543-44.517 21.083-5.626 44.579-3.030 67.022-1.669 3.092 0 7.358 11.006 7.852 17.126 1.298 15.395 0 30.915 1.175 46.31 2.473 25.536 18.549 40.003 42.044 40.375s40.375-13.417 43.837-38.705c1.057-7.681 1.66-16.556 1.66-25.573 0-6.234-0.289-12.401-0.853-18.488l0.059 0.78c-1.793-19.662 6.678-23.31 24.732-24.361 103.81-5.813 188.393 37.902 263.206 103.193 39.323 34.315 73.391 74.813 109.623 112.653 6.183 6.678 11.191 14.963 17.992 21.145 18.672 15.952 41.982 8.347 47.732-15.457 1.019-5.993 1.602-12.897 1.602-19.938 0-2.731-0.088-5.441-0.26-8.128l0.018 0.367q-0.062-128.295-0.185-256.467zM597.21 326.159v-70.979c0-55.276 0-54.101 56.264-54.657 22.815 0 27.451 8.409 27.019 28.812-1.113 54.533 0 109.066-0.495 163.538-1.051 67.394 12.366 55.213-59.295 57.563-20.28 0.68-24.175-8.162-23.68-25.536 0.803-32.893 0.185-65.848 0.185-98.741zM427.798 326.715v-70.856c0-56.821 0-55.955 58.242-55.276 19.537 0 24.237 7.172 23.99 25.226-0.865 55.646 0 110.921 0 166.382 0 61.396 0 60.778-61.458 58.242-16.509-0.68-20.96-6.801-20.651-22.012 0.433-33.883-0.062-67.826-0.123-101.709zM340.063 325.541v0c0 33.945 0 68.012 0 101.832 0 16.571-7.111 18.549-21.393 13.479-43.837-16.509-75.803-63.622-76.297-113.703-0.495-51.565 31.409-99.668 76.111-116.857 18.054-6.925 21.764 0.742 21.641 16.447-0.062 32.954-0.062 65.848-0.062 98.803z" />
<glyph unicode="&#xf026;" glyph-name="t-misc8" horiz-adv-x="1058" d="M484.378 129.086h250.028v392.687c0 117.413-92.098 438.227-205.642 438.227-44.25 0-85.243-48.73-118.838-115.376 45.811-110.694 74.655-243.648 74.655-313.281zM484.378 61.964h250.028v-125.896h-250.028v125.896zM411.283 129.086v392.687c0 117.413-92.301 438.227-205.642 438.227v0c-113.544 0-205.642-320.814-205.642-438.227v-392.687zM0 61.964h411.283v-125.896h-411.283v125.896zM807.975 129.086h250.028v392.687c0 117.413-92.098 438.227-205.642 438.227-44.25 0-85.446-48.73-118.838-115.376 45.811-110.694 74.655-243.648 74.655-313.281zM807.975 61.964h250.028v-125.896h-250.028v125.896z" />
</font>
</defs>
</svg>
