<svg xmlns="http://www.w3.org/2000/svg" xmlns:xlink="http://www.w3.org/1999/xlink" viewBox="0 0 1920 1080">
  <defs>
    <style>
      .cls-1 {
        fill: url(#Dégradé_sans_nom_57);
      }

      .cls-2 {
        fill: #a24e59;
        opacity: 0.3;
      }

      .cls-3 {
        fill: #ad5a68;
      }
    </style>
    <linearGradient id="Dégradé_sans_nom_57" data-name="Dégradé sans nom 57" x1="967" y1="775" x2="967" y2="358" gradientUnits="userSpaceOnUse">
      <stop offset="0.32" stop-color="#914d7d"/>
      <stop offset="0.77" stop-color="#cd878c"/>
      <stop offset="1" stop-color="#efa895"/>
    </linearGradient>
  </defs>
  <title>city</title>
  <g id="Lake">
    <rect class="cls-1" x="455" y="358" width="1024" height="417"/>
    <path class="cls-2" d="M586.59,358l42.52,3.86a26.94,26.94,0,0,1,6.17,1.34l163.34,55.35c5.52,1.87,10.83,1.91,14.27.11L828,410.74c3.44-1.8,8.76-1.76,14.27.11l51.16,17.34,9.35,6.18,2.78,4.82h-2l7.78,4.81,1.69-4h-2l-2.78-4.82h5l10.65,18.46h-2l7.32,4,1.68-4h-1l-2.31-4,2.92,1.6h11l7.32,4,1.61-2.4h3l3.93,1.6,3.7,6.42h-2l6.32,4,1.39,2.41,6.39,2.41,1.85,3.21,2.78,4.81,5.32,4h4l.07-1.61h2l.61-2.41h-1l-.46-.8-1.85-3.21h4l2.92,1.61h4l4.17,7.22,4.39,2.41,1.61-2.41-4.17-7.22h2l4.63,8,4.39,2.41,1.61-2.41-1.85-3.21h2l.93,1.61,3.39,2.4,1.07-1.6,3.24,5.62h-1l4.86,3.21,1.14-3.21h-1l-.92-1.61h4l3.24,5.62,3.39,2.41h3l2.32,4,1.92,1.6h3l4.39,2.41h2l1.86,3.21,3.85,3.21.15-3.21-1.86-3.21h2l2.15-3.21,2.93,1.61,1.07-1.61-3.24-5.62h1l3.39,2.41.61-2.41-4.17-7.22h2l2.31,4h-1l4.39,2.41,1.61-2.41h-1l-4.17-7.22h10l.93,1.61h-2l8.24,5.61,1.76-5.61h-2l-.93-1.61h3l1.84-7.22-3.71-6.42h3l6,10.43h-1l6.24,5.62-.24-5.62h-1l-6.48-11.23h6l1.07-1.61-3.24-5.62h2l1.85,3.21h-1l4.85,3.21,1.15-3.21h-1l-2.78-4.81,1.68-4,2.32,4-.81,1.2,5.13,2.81,1.87-2.81-2.19-1.2-3.24-5.62h4l5.85,3.21,2.15-3.21-4.17-7.22h4l4.63,8h-2l9.24,5.62,3.76-5.62h-2l-15.64-27.08,43.15-28.91c2.82-1.88,7.33-2.3,12.33-1.14l29,6.78c4.48,1,8.59.82,11.44-.62l42.24-21.4a7.76,7.76,0,0,0,2.17-1.59L1278.25,358Z"/>
  </g>
  <g id="_5nd_plan" data-name="5nd plan">
    <path class="cls-3" d="M745.66,392.67a15.55,15.55,0,0,0,4.67,0c14.69-2.1,95.95-13.28,156.67-13.28,62.17,0,161.36,16.85,175.34,19.28a15.78,15.78,0,0,0,3.36.21L1308.6,389a15.67,15.67,0,0,0,8.05-2.67l45.86-31.13c11.92-8.09,7.4-26.63-6.9-28.34l-62.76-7.49a15.52,15.52,0,0,1-5.39-1.67l-131.39-69a15.56,15.56,0,0,0-14.21-.13l-19.72,9.87a15.59,15.59,0,0,1-14.21-.14L977.4,189.78a15.6,15.6,0,0,0-7.24-1.78H929.32a15.6,15.6,0,0,0-8,2.23L784.17,272.77a15.54,15.54,0,0,1-13,1.42l-25.13-8.44a15.61,15.61,0,0,0-11.79.77l-54.6,26.67a15.16,15.16,0,0,0-3.08,2l-61,50.42A15.57,15.57,0,0,0,623,373Z"/>
    <polygon class="cls-3" points="844 241 844 203 842 203 849 196 855 203 853 203 853 213 857 213 857 204 861 200 865 204 869 204 869 197 867.5 195.5 871 192 874.5 195.5 873 197 873 202 877 197 877 191 876 191 879 187 882 191 881 191 881 195 883 195 883 188 885 186 891 186 891 172 890 172 893 165 896 172 895 172 895 185 898 185 898 177 904 168 907 168 907 166 905 166 910 159 915 166 913 166 913 168 923 168 923 159 922 159 925 156 928 159 927 159 927 164 929 164 929 155 931 152 933 155 934 155 934 148 936 146 938 148 942 144 944 144 944 140 946 136 948 140 948 144 950 144 953 147 956 147 957 149 957 154 960 154 962 157 962 164 966 164 966 162 965 162 968 158 971 162 970 162 970 169 972 167 974 170 974 172 976 172 976 168 979 165 982 168 982 178 984 178 984 169 987 166 990 169 990 178 994 178 996 180 1000 180 1000 176 1000 175 999 175 1001 172 1003 172 1004 170 1008 170 1011 175 1011 181 1011 185 1016 188 1016 191 1020 196 1018 196 1018 204 1021 206 1024 206 1027 203 1032 208 1043 208 1045 210 1045 205 1044 205 1048 200 1053 205 1051 205 1051 228 1056 228 1056 222 1054 222 1058 217 1063 223 1061 223 1061 229 1070 241 844 241"/>
  </g>
</svg>
