<svg id="Front" xmlns="http://www.w3.org/2000/svg" viewBox="0 0 1920 1080">
  <defs>
    <style>
      .cls-1 {
        fill: #2e112d;
      }
    </style>
  </defs>
  <title>front</title>
  <path class="cls-1" d="M0,603s293,10,389,27,289,64,376,68,148.94,1.79,185,9c40,8,102,11,135,3s171-27,216-25,129.59-28.62,171-30c60-2,162.25-4.63,206-9,50-5,242-13,242-13v447H0Z"/>
  <path class="cls-1" d="M1885.88,71.2l-14.7,25.49a1.32,1.32,0,0,0-.18.67v14.33a1.35,1.35,0,0,1-.14.59l-15.45,31.82a1.35,1.35,0,0,0,1.64,1.88l9.18-3.06a1.36,1.36,0,0,1,1.69,1.79l-7.35,18.36a1.35,1.35,0,0,0,2,1.64l6.43-4.13a1.35,1.35,0,0,1,2,1.72L1841,224.88a1.36,1.36,0,0,0,1.33,1.94l21.54-1.66a1.36,1.36,0,0,1,1.37,1.83l-8.17,21.8a1.3,1.3,0,0,1-.22.38l-14.69,18.15a1.35,1.35,0,0,0,1.25,2.19l7.58-1.08a1.35,1.35,0,0,1,1.32,2.09l-22.71,34.06a1.36,1.36,0,0,0,1.28,2.1l22.16-2.46a1.35,1.35,0,0,1,1.46,1.68l-6.43,24.79a1.27,1.27,0,0,1-.29.55L1825.57,357a1.36,1.36,0,0,0,1.3,2.22l9.38-1.88a1.35,1.35,0,0,1,1.61,1.43l-.83,10.84a1.41,1.41,0,0,1-.25.69l-19.22,26.54a1.35,1.35,0,0,0,1.09,2.15h11a1.35,1.35,0,0,1,1.17,2l-7.08,12a1.35,1.35,0,0,0,1.54,2l8.29-2.37a1.35,1.35,0,0,1,1.66,1.72l-12.16,37.43a1.51,1.51,0,0,1-.13.29L1800.84,488a1.36,1.36,0,0,0,1.54,2l18.53-5.41a1.36,1.36,0,0,1,1.72,1.53l-3.6,20.7a1.12,1.12,0,0,1-.1.31l-16.82,38.32a1.36,1.36,0,0,0,1.57,1.86l6.51-1.63a1.36,1.36,0,0,1,1.55,1.91l-11.12,23a1.35,1.35,0,0,0,1.77,1.82l12.54-5.64a1.36,1.36,0,0,1,1.7,2l-21.72,34.75a1.35,1.35,0,0,0,.72,2l15.47,5.16a1.35,1.35,0,0,0,1.49-.45l21.66-27.5a1.36,1.36,0,0,1,2.39,1.15l-6.87,29.78a1.35,1.35,0,0,0,2.07,1.43l21.6-14.4a1.35,1.35,0,0,1,2.09,1.33l-5.5,35.74a1.1,1.1,0,0,1-.13.41L1828,681a1.35,1.35,0,0,0,1.2,2h89.44a1.36,1.36,0,0,0,1.35-1.35V.21a1.36,1.36,0,0,0-2.46-.79l-20.48,28.5a1,1,0,0,0-.11.17l-17.06,33.23a1.36,1.36,0,0,0,1.81,1.83l3.88-1.94a1.36,1.36,0,0,1,1.94,1.46l-1.48,8.1A1.31,1.31,0,0,1,1885.88,71.2Z"/>
  <path class="cls-1" d="M21,43.15l2.92,17.54a1.41,1.41,0,0,0,.32.7l9.28,11.13a1.47,1.47,0,0,1-.66,2.33l-2.49.83A1.47,1.47,0,0,0,29.71,78L40.64,91.27a1.46,1.46,0,0,1-1.53,2.33h0a1.47,1.47,0,0,0-1.72,2l8.68,18.23A1.46,1.46,0,0,1,45,115.94l-8.8,1.47a1.46,1.46,0,0,0-.93,2.32l14,18.72a1.46,1.46,0,0,1-.3,2L46.94,142a1.48,1.48,0,0,0-.33,2l7.73,11.16a1.46,1.46,0,0,1-.93,2.27L40.24,160a1.46,1.46,0,0,0-1,2.19l8.62,14.37a1.3,1.3,0,0,0,.28.34L57.32,185a1.48,1.48,0,0,1,.49,1.09v7.5a1.45,1.45,0,0,0,.39,1l10.43,11.31a1.46,1.46,0,0,1-1.07,2.45H65.88a1.46,1.46,0,0,0-1.24,2.23l6,9.72a1.46,1.46,0,0,1-1.25,2.23H58.8a1.47,1.47,0,0,0-.9,2.62l1,.76a1.47,1.47,0,0,1-1.25,2.58l-7.84-2a1.46,1.46,0,0,0-1.69,2l6.3,14.42a1.58,1.58,0,0,0,.4.53L68.44,255a1.59,1.59,0,0,1,.41.56l6.29,15.26a1.47,1.47,0,0,1-1.82,1.95l-4-1.34a1.46,1.46,0,0,0-1.85,1.85l5.63,16.88a1.46,1.46,0,0,1-2,1.78L56.4,285a1.47,1.47,0,0,0-2,1.74l4.13,14a1.46,1.46,0,0,1-.94,1.8l-3.39,1.13a1.46,1.46,0,0,0-.75,2.2l11.73,17.6a1.5,1.5,0,0,1,.24,1l-1,8.76a1.44,1.44,0,0,0,.24,1l15.64,23.46A1.47,1.47,0,0,1,79.07,360H72.43a1.46,1.46,0,0,0-1.25,2.23l5.16,8.39a1.46,1.46,0,0,1-1.74,2.14l-19-6.84a1.46,1.46,0,0,0-1.69,2.22l27.72,39.6a1.36,1.36,0,0,1,.24.55l1.5,7.5a1.47,1.47,0,0,1-2.15,1.57L80,416.64a1.46,1.46,0,0,0-1.89,2.14L98,445.85a1.52,1.52,0,0,0,.49.42l8.19,4.37a1.46,1.46,0,0,1-.93,2.73l-7.6-1.26a1.46,1.46,0,0,0-1.48,2.22l10.42,16.49a1.47,1.47,0,0,1-.68,2.14c-4.89,2-19.31,7.69-20.21,5.88-.68-1.35-7.6-9.78-12.79-16a1.47,1.47,0,0,0-2.49,1.48l7.5,19.16a1.45,1.45,0,0,1-1,1.95l-4.08,1a1.47,1.47,0,0,0-.76,2.38l17.34,20.07a1.73,1.73,0,0,1,.19.28l11.36,21.77a1.48,1.48,0,0,1-.4,1.83L94.23,538a1.47,1.47,0,0,0-.2,2.13l13.8,15.64a1.54,1.54,0,0,1,.26.42l7.16,17.89a1.47,1.47,0,0,1-1.27,2L84.23,578a1.64,1.64,0,0,0-.44.09l-17,6.62a1.47,1.47,0,0,0-.91,1.11l-4.64,26A1.48,1.48,0,0,1,59.78,613H1.46A1.47,1.47,0,0,1,0,611.54V4.33a1.46,1.46,0,0,1,2.63-.88l13,17.11a1.46,1.46,0,0,1-1.16,2.35h-.35a1.46,1.46,0,0,0-1.1,2.43L25.12,39A1.46,1.46,0,0,1,24,41.45H22.45A1.46,1.46,0,0,0,21,43.15Z"/>
  <path class="cls-1" d="M474.5,650.45l3.36-10.2a4.29,4.29,0,0,1,1.7-2.23l7.88-5.26a4.31,4.31,0,0,1,2.92-.69l4.88.61a4.3,4.3,0,0,0,4.25-2.11l6.18-10.67A22.3,22.3,0,0,1,521,609.12l22.22-4A16.51,16.51,0,0,1,554.4,607l46.38,26.64a5.92,5.92,0,0,1,3,5.12v8.06a4.27,4.27,0,0,1-.72,2.38l-4.43,6.65a1.75,1.75,0,0,0,1.46,2.72h5.58a4.29,4.29,0,0,1,2.8,1l5.38,4.6a4.3,4.3,0,0,1,1.5,3.36l-.2,9.43a4.3,4.3,0,0,1-5,4.14L532.9,667.87,477.68,656A4.31,4.31,0,0,1,474.5,650.45Z"/>
  <path class="cls-1" d="M1145.57,698h0a6.57,6.57,0,0,1,2.34-1.5l20.76-7.68c.25-.1.49-.21.73-.33l22.24-11.5a6.52,6.52,0,0,0,2.47-2.25l7.05-10.89a6.47,6.47,0,0,1,3.18-2.56l15.65-5.87a6.54,6.54,0,0,1,4.61,0l13.15,5a6.53,6.53,0,0,1,3.18,2.59l9,14.08a6.48,6.48,0,0,0,4.33,2.91l12.06,2.2a6.5,6.5,0,0,1,4.82,3.84l2.5,5.83a6.51,6.51,0,0,1-5.53,9.06l-117.45,8.15A6.52,6.52,0,0,1,1145.57,698Z"/>
  <path class="cls-1" d="M180,610.7h0a8.14,8.14,0,0,1,5.36-7.65l14.32-5.2a8.09,8.09,0,0,1,4.72-.26l49.73,12.21a8.13,8.13,0,0,0,8.13-2.6l8-9.35a8,8,0,0,1,1.66-1.47l10.05-6.7a8.16,8.16,0,0,1,8.3-.44l13.87,7.27a8.13,8.13,0,0,1,3.91,4.52l4.8,13.72a8.15,8.15,0,0,1-.4,6.33l-2.92,5.85a8.17,8.17,0,0,1-8.18,4.45L187.25,618.8A8.14,8.14,0,0,1,180,610.7Z"/>
  <path class="cls-1" d="M737.28,698.32l17.25-10.77a8.53,8.53,0,0,1,5.37-1.27l36.76,3.59a5.27,5.27,0,0,1,2.45.89l8,5.51a2.28,2.28,0,0,1-1,4.15l-65.46,7.51a5,5,0,0,1-1.28,0h0A5.21,5.21,0,0,1,737.28,698.32Z"/>
  <path class="cls-1" d="M71,618l12-17v14l8-10,4,13,10-5,10-12-3,14h10l4-10,4,10,9,3,7-13,2,13h19l4-13,2,13,65,4,75,6,7-13v13h7l5-14v14h8l3-8,3,11h4l6-11v11h10l4-8,3,12,7-8v8h5l6-10v13h13l6-9v12h6l7-10v13h8l5-9v12h10l7-12-2,12,8-6v9h9s6-11,6-10v16l-16,12s-266-24-268-24S58,623,58,623l12-24Z"/>
  <path class="cls-1" d="M1474.67,539.89c3.06-4.12,1.24-7.79.08-11.56-2.07-6.76-4.07-13.57.89-20.08.66-.87.76-2.16,1.39-3.08.78-1.14,1.75-2.78,2.82-2.94s3.23.89,3.57,1.87c.42,1.24,0,3.61-.94,4.33-4.71,3.58-4.93,8.14-3.86,13.31.72,3.49.75,7.17,1.74,10.57,1.06,3.6,2.88,7,4.37,10.46a11.17,11.17,0,0,1,1.17,2.82c1.6,13.42,3.56,26.82,4.51,40.28.8,11.32.71,22.74.38,34.1-.17,6-2,11.92-2.55,17.92-1.15,12.92-1.93,25.88-2.85,38.82a3.35,3.35,0,0,1-1.52,3.66c-.37-.6-1-1.2-1.07-1.82-.12-4-.07-8-.14-12.08a5.27,5.27,0,0,0-.48-2.85c-1.57-2.07-3.9-3.7-5-6s-.91-4.86-1.29-7.3a3.26,3.26,0,0,0-.61,0c-5.43,2.13-6.84,6.22-6,11.68.4,2.69.62,5.67-3.07,6.73a1.76,1.76,0,0,0-.94,1.34c0,3.05-2,3.51-4.49,3.43,1.43,2.95.13,4.08-2.49,4.1-2.18,0-4.36-.3-6.55-.37-3.19-.11-5.51,1.34-8,3.38a8.63,8.63,0,0,1-7.51,1c-3-1.35-7.12-1.39-8.92-5.12-.18-.38-1.26-.41-1.93-.44-3.36-.18-4.68-2.32-3.86-5.15a90.48,90.48,0,0,0,3.33-25.55c0-1.1.77-2.19.88-3.31a14.55,14.55,0,0,0-.22-2.94,54.61,54.61,0,0,0-4.73,6.28,25,25,0,0,0-2.22,6.54,22.67,22.67,0,0,0-.06,4.69c-2.85-.72-3-2.92-3.13-5.05-.28-6.65-.89-13.32-.59-19.95.41-9-2.86-17.08-4.83-25.52-2.16-9.27-4.24-18.57-5.8-28-1-6.06,1.31-11.81,3.6-17.37,4.1-10,8.28-19.94,12.45-29.89,1.51-3.63,4.68-4.82,8.18-5.55,2-.41,4-1,3.09-3.71-2.33-1.08-4.71-2-6.87-3.25-2.93-1.71-3.32-4.16-.81-6.48,1.72-1.58,3.92-3.2,6.12-3.57,4.29-.74,4.58-3.76,5-6.91.13-.9,0-1.84,0-2.75.33-5.57,5.29-8.39,10.31-5.83,3,1.56,5.67,3.44,6.13,7.3a9.4,9.4,0,0,0,1.73,4.08,6.53,6.53,0,0,0,2.85,2.1c3,1.21,6.41,1.79,9.2,3.4,3.1,1.79,3,4.14,0,6.22-2,1.4-4.53,2.14-6.77,3.27-.8.41-2,1.08-2.06,1.67,0,1,.5,2.7,1.19,2.93C1465.62,526.57,1470.1,533.13,1474.67,539.89Zm-55.52,64.33,1.5-.25-2.06-10.57-.94.16Z"/>
  <path class="cls-1" d="M944.81,704.65l5.48-2a6.85,6.85,0,0,1,3.5-.33l12.88,2.15a12.7,12.7,0,0,0,6.49-.63l6.9-2.59a6.56,6.56,0,0,1,8.36,3.64l2.63,6.4a3,3,0,0,1-3.13,4.14l-42.42-4.95A3,3,0,0,1,944.81,704.65Z"/>
  <path class="cls-1" d="M1603,655l5.92-24.51a15.3,15.3,0,0,1,4.46-7.63l18.08-16.79a22.74,22.74,0,0,1,15.47-6.07h7.85a8.16,8.16,0,0,1,5.57,2.2l12.45,11.67a8.19,8.19,0,0,1,1.87,2.64l5.78,13a8.17,8.17,0,0,0,5.21,4.53l8.13,2.32a8.17,8.17,0,0,1,3.77,2.33h0a8.15,8.15,0,0,1-4.18,13.44l-11.48,2.65a8,8,0,0,1-1.83.21Z"/>
  <path class="cls-1" d="M219.3,603h0a10,10,0,0,1,3-5.15l26.64-24.48a21.37,21.37,0,0,1,18.78-5.19l12.36,2.55a10.09,10.09,0,0,1,7.62,7l8.9,30.43a10.08,10.08,0,0,1-1.54,8.78l-4.21,5.74a10,10,0,0,1-10.22,3.88L227,615.14A10.07,10.07,0,0,1,219.3,603Z"/>
  <path class="cls-1" d="M1608.05,561.76c-4.27-.4-8.15.73-12,2.38-6.67,2.85-13.42,5.53-20.21,8.09-4.93,1.86-10,3.36-15.15,2.45.54-2,1-3.84,1.54-5.69,1.51-5.68,3-11.36,4.49-17a3.71,3.71,0,0,0-.21-1.51,24.16,24.16,0,0,1-1.09-4.54c-.18-4.28,0-8.56-.17-12.84-.14-3.76.23-7.73-2.87-10.71-.52-.5-1.3-1.22-1.86-1.14-2.58.37-2.63-1.37-2.86-3.07-.13-.9-.37-1.79-.5-2.69a9.88,9.88,0,0,1-.29-3.34c.25-1.07,1.27-2,1.68-3a6.64,6.64,0,0,0,0-2.31,7,7,0,0,1-1.62.71,3.56,3.56,0,0,1-1.28-.25c-.14-1.07-.28-2.09-.41-3.11l-.84.06c-.06,1.27-.12,2.54-.19,4l-2.59,2.05c.41-3.14.72-5.55,1-7.93-2.84.76-2.62-1.87-3.27-3.27-1.36-3-3.34-5.26-6.63-5.6-4.2-.44-8.4-.3-10.63,4.35-.72,1.51-1.48,3-2.22,4.48l-1.6-.7c.4,1.87.86,3.49,1.07,5.14.3,2.35.4,4.72.63,7.08.06.6.58,1.61.41,1.72-2.66,1.76-1.65,4.5-1.88,6.87-.17,1.78-.06,3.58-.19,5.37-.38,5.25-.27,10.61-1.38,15.71-1.05,4.82-3.4,9.36-5.27,14.24-2.84-3.19-5.75-6.12-8.27-9.36-4.91-6.32-10.75-11.23-18.66-13.36,1.12,2.19,2.37,4.07,4.93,5.21a31.37,31.37,0,0,1,9,5.53c4.24,4.11,7.87,8.84,11.71,13.34.38.45.82,1.26.66,1.66-1.53,3.8-2.77,7.81-5,11.2-1.46,2.26-2.77,4.14-2.46,6.94.24,2.08.28,4.19.35,6.29l-9,24.74-1.08,1.62-.54,5.39L1506,612v-1.62l9.08-25a4.09,4.09,0,0,1,3.23-2.74c.54-.09,1.46-1.21,1.35-1.43-1.34-2.67.78-4.61,1.55-6.68,1.24-3.32,2.92-6.56,6.15-8.79.34,3.94.82,7.55.94,11.17.15,5.1-.12,10.23.08,15.33.32,7.8.83,15.59,1.42,23.38.07.83,1.19,1.59,1.84,2.37s1.33,1.18,1.58,1.91c.5,1.47.49,3.13,1.08,4.55,2.57,6.28,5.78,12.36,7.8,18.81s.66,12.07-6.18,15.27a19.9,19.9,0,0,0-3.8,2,39.53,39.53,0,0,0-3.82,3.93,17.45,17.45,0,0,0,12.1-.56c2.44-1,5.22-1.18,8.4-1.84a13.39,13.39,0,0,1-.66,2.68c-1.42,2.36-.43,3.81,1.66,5.05,2.69,1.58,7.33,1.4,9.61-.72a3.45,3.45,0,0,0,.65-2.53c-.5-5.84-1.28-11.65-1.6-17.49-.17-3.11.61-6.27.58-9.4,0-3.75-.44-7.49-.74-11.23-.14-1.76-.6-3.51-.58-5.26s.75-3.77-1.23-5.15c-.25-.18-.39-1.06-.22-1.2,1.73-1.46,1-3.34,1.11-5.16.18-4.27.65-8.53.93-12.79.14-2-.71-4.32,1.7-5.74.38-.23.44-1.15.48-1.76.34-4.7.65-9.42,1-14.28,1.41-.12,3.2-.18,5-.41,8.77-1.15,16.67-4.84,24.47-8.68,4.61-2.27,9.15-4,14.42-3.35a9.61,9.61,0,0,0,8.81-2.88C1611.92,561.79,1610,561.94,1608.05,561.76Zm-50.38,5c-4.69-5.44-5.41-14.53-1.55-21.34.34,1.53,1.11,2.87.73,3.65-1.69,3.44.61,6.51.59,9.77,0,1.85.58,3.71.75,5.57A8.53,8.53,0,0,1,1557.67,566.79Z"/>
  <path class="cls-1" d="M1332,494.06c.83-.49,1.94-.61,2.4,1.14,2.65-2.77,4.09-2.66,6.18.19a3.7,3.7,0,0,1,.38.53c1.61,3.49,4.41,5.53,7.71,7.44,4.08,2.37,6.7,6.47,8.24,10.86s4.5,7.3,7,10.75c.64.86.72,2.13,1.22,3.74l-5.62-1.06c-.06,1.28-.11,2.41-.17,3.77,2,.32,3.93.56,5.8,1a2.46,2.46,0,0,1,1.66,1,31.49,31.49,0,0,1,2.2,6.77c1.7,11.88,3.38,23.77,4.71,35.69.55,4.93.26,10,.22,15a3.63,3.63,0,0,0,1.61,3.25c7.24,5.63,14.86,10.82,20.87,17.88,3,3.57,6.37,6.94,8.09,11.44a5.62,5.62,0,0,1,.61,2c-.28,8.8.68,17.67-1.35,26.36-.88,3.75-2.91,7-5.49,10.43,0-3.09.1-5.65,0-8.2-.2-4.38-.56-8.75-.82-13.13-.12-2-1.21-2-2.82-1.68-7.75,1.76-14.19,6-20.36,10.71a38.38,38.38,0,0,0-4.49,3.74c-3.8,4-8.63,5.38-13.84,5.81-2.12.17-3,.8-2.87,3.11.12,1.88-.53,3.8-.53,5.71,0,2.06.38,4.13.56,6.2a23.17,23.17,0,0,0,.21,3.45c.4,1.73,1.05,3.41,1.6,5.11,1.06,3.29,2.26,6.54,3.14,9.88.66,2.53,0,3.61-2.39,4.55a4.94,4.94,0,0,0-3,3.92,25.59,25.59,0,0,1-.53,2.6c-2.32-3.73-6.29-3.44-9.68-4.6-4.85-1.65-5.79-3.28-5.48-8.46.19-3.24.65-6.47.87-9.72a35.23,35.23,0,0,0-.28-3.52c0-.76.21-1.53.21-2.3,0-2,0-4.09-.12-6.14,0-1.36-.19-2.71-.28-4.07-.26-3.77-1.17-4.66-4.88-4.12a20.38,20.38,0,0,1-10.38-1.6,5.68,5.68,0,0,1-2.82-3c-1.07-2.78-3.33-3.62-6.19-1.76.68,2.2,1.37,4.45,2.07,6.69l-.42.49-6.32-3.71c.17,1.88.42,3.6-1.72,4.18-.14,0-.21.52-.23.8-.28,3.33-.61,6.67-.77,10a14.55,14.55,0,0,0,.58,3.14c.08.47.29,1.23.09,1.38-1.53,1.13-.61,2.44-.44,3.74.35,2.85.66,5.71.89,8.58a1.51,1.51,0,0,1-1.64,1.8c-2.64.07-5.3.45-7.93.3-3.76-.21-7.37.08-10.66,2a4,4,0,0,0-1.64,2.41c-.5,2.66-.73,5.38-1.07,8.07l-.79.14c-.79-2-1.6-4-2.38-6-1.61-4.18-.61-3.37-5-3.52-2.85-.09-5.71,0-8.57,0l-.46-1c2.68-3,5.26-6,8.1-8.83a3.36,3.36,0,0,0,1.26-3.31q-6.9-45.43-13.7-90.9c-.29-1.91-.34-3.86-.52-6.07l-2.75,1.47A9.67,9.67,0,0,1,1259,584c.3-1.32.84-2.6,1.25-3.9a7.49,7.49,0,0,0-1.53-7.68c-.73-.83-1.08-1.55-.22-2.63,1.63-2.06,1.55-2.11-.73-3.43-.48-.28-.92-.65-1.54-1.1-1.94,3-.76,5.94-.39,8.85-3.79-.3-5.64-2.2-5.61-5.87,0-2.72-.83-5.69,2.14-7.65,1.53-1,2.89-2.28,4.41-3.32,3.45-2.34,2.06-5.59,1.64-8.62-.05-.42-.71-.84-1.18-1.11-1-.56-2-1-3.1-1.55l.53-2.35c-1.75-.7-2.55-1.81-1.83-3.72.15-.38-.43-1-.43-1.5,0-1,.18-2.05.32-3.42-1.31-1.63-1.19-2.6.86-4.17s2-3.77-.1-5.41c-.37-.29-.93-.82-.86-1.12.59-2.61.65-5.68,2.14-7.63s1.65.95,2.6,1.86l1.29-.47-1.13-2.81c1.63-.88,2.76-.79,3.51,1a38,38,0,0,1,1.8,3.69,7.59,7.59,0,0,1,.07,3.29c-.39,2.26-1,4.49-1.45,6.73l.64.12c.06,0,.1.11.17.12,1.31.3,3.09.18,3.78,1,.58.67-.07,2.45-.28,3.72-.5,3,.26,3.81,3.36,3.65,4.15-.22,8-1,10.87-4.37.54-.65,1-1.39,1.55-2.26-3.92-2.86-4.2-6.24-2.74-10.64,2.15-6.49,4.92-12.44,9.65-17.45a39.51,39.51,0,0,0,4.78-5.88,8.64,8.64,0,0,1,7.33-4.22c2-.1,2.82-1,2.54-3-1-7.33,3.22-11.4,9-14.5a2.07,2.07,0,0,1,1.57-.22c4.94,2.15,8.78,5.29,9.51,11.08.21,1.64-.07,3.81.87,4.76s3.08.33,4.65.66A17.6,17.6,0,0,1,1332,494.06Zm-47.58,186.08c2.61-1.44,5.71-5.81,5.54-8.3-.46-6.33-1.09-12.65-1.78-19a12.31,12.31,0,0,0-1.32-4.33,8.64,8.64,0,0,1-.51-6.29,5.19,5.19,0,0,0-.23-2.84,39.56,39.56,0,0,0-2.12-4c-.54-1-1.51-2-1.51-3,0-4-.56-8.08,1.32-11.94.59-1.2.41-2.79.57-4.2.09-.85-.13-2.25.27-2.46,1.79-.93,1.19-2.43,1.2-3.76,0-2.24-.08-4.48-.13-6.72-.08-3.74-.08-3.74-3.74-4.25-2.54-.35-2.84-.71-2-3.27q4.08-12.67,8.28-25.33c1.17-3.51.9-4.55-1.88-6.79-.68-.55-1-1.57-1.59-2.65,2-.17,3.68.2,4.37-.48,1.28-1.25,2-3.12,2.89-4.73.09-.17-1-10.44-1.27-11a10.61,10.61,0,0,1-.64,2c-1,1.65-1.71,3.63-3.11,4.8-1.73,1.45-4,2.31-6.4,1-.57-.31-1.43-.07-2.14-.14-3.44-.36-6.89-.73-10.32-1.12-1-.11-1.94-.32-2.91-.48l-.48.63c.65.74,1.18,1.94,2,2.11a39.38,39.38,0,0,0,7,.86c2.15.08,3.74,1.21,4,3.3a15.56,15.56,0,0,0,.26,2.58c1,3.39-1,5.39-3.45,7.58a22.51,22.51,0,0,0-.64-4.91c-.36-1-1.52-1.7-2.43-2.4-.2-.15-1.06.13-1.24.44-.73,1.25-1.32,2.59-2.1,4.18l3,2.64c-1.81,2.49-1.21,5.2-.73,7.49s2.23,4.22,3.55,6.51l-2.9.34C1277.83,614.54,1279.55,647.52,1284.44,680.14Z"/>
  <path class="cls-1" d="M74.1,518.84l18-29.62a1.26,1.26,0,0,0-1.54-1.82l-4,1.59a1.25,1.25,0,0,1-1.66-1.56l2.34-7a1.25,1.25,0,0,0-1.59-1.59l-9.33,3.11a1.26,1.26,0,0,1-1.47-1.86l14.15-23,.09-.13,10.89-13.41a1.25,1.25,0,0,0-1.17-2l-6,.92a1.26,1.26,0,0,1-1.08-2.14l17.1-17.1a1.42,1.42,0,0,0,.28-.41l4.32-10.37a1.27,1.27,0,0,0-.9-1.72L87.9,405.41a1.27,1.27,0,0,1-.76-2L103.54,381a1.26,1.26,0,0,0-1-2h-3a1.26,1.26,0,0,1-1-2l15.36-19.87a2.25,2.25,0,0,0,.12-.21l5.35-10.68a1.27,1.27,0,0,0-.64-1.73l-9.42-3.92a1.26,1.26,0,0,1-.6-1.81l27.06-45.66a1.26,1.26,0,0,0-1.93-1.58h0a1.26,1.26,0,0,1-2-1.38l5.5-14.42a1.26,1.26,0,0,0-1.18-1.71h-1.86a1.26,1.26,0,0,1-1.06-1.94l16.62-25.86a1.16,1.16,0,0,0,.18-.43l1.89-9.46a1.27,1.27,0,0,1,.26-.55l17.47-21.15a1.26,1.26,0,0,1,2.13.32l15.48,37.33a1.26,1.26,0,0,1-1.16,1.74h-2.51a1.26,1.26,0,0,0-1.22,1.56L189.24,283a1.26,1.26,0,0,1-1.88,1.38l-.78-.49a1.26,1.26,0,0,0-1.74,1.73l10,16.22a1.23,1.23,0,0,1,.17.41L199,320.81a1.4,1.4,0,0,0,.13.36l7.48,13.28a1.26,1.26,0,0,1-1.4,1.84l-3-.75a1.26,1.26,0,0,0-1.51,1.6l4,12.64a1.27,1.27,0,0,1-.84,1.59l-7.12,2.13a1.25,1.25,0,0,0-.67,1.92l7.9,11.42a1.54,1.54,0,0,1,.17.34l13.25,42.6a1.26,1.26,0,0,1-1.55,1.58l-2.14-.61a1.25,1.25,0,0,0-1.49,1.73l2.32,5.12a1.26,1.26,0,0,1-1.74,1.63l-6-3.22a1.26,1.26,0,0,0-1.7,1.71l2.81,5.16a1.25,1.25,0,0,1-1.24,1.85l-4.3-.47a1.26,1.26,0,0,0-1.27,1.81l8.9,17.8a.94.94,0,0,1,.1.28l2.48,10.71a1.27,1.27,0,0,1-1.61,1.49l-8.06-2.53a1.26,1.26,0,0,0-1.19,2.16l16.18,13.87a1.35,1.35,0,0,1,.28.35l8.94,16.1a1.25,1.25,0,0,1-1,1.86l-7.9.66a1.26,1.26,0,0,0-.94,2l10.16,14.85a1.26,1.26,0,0,1-1.21,2l-8.9-1.28a1.26,1.26,0,0,0-1.32,1.77L220,517l14.66,28.41a1.26,1.26,0,0,1-1.46,1.79l-2-.56a1.26,1.26,0,0,0-1.54,1.59l8.89,28.47a1.27,1.27,0,0,1-.91,1.61l-22.94,5.29a1.25,1.25,0,0,0-.77,1.9l8,12.42.09.17,8,17.68a1.26,1.26,0,0,1-1.4,1.75l-5.55-1.11a1.26,1.26,0,0,0-1.45,1.6l2.08,6.91a1.26,1.26,0,0,1-.71,1.52l-19.61,8.4a1.43,1.43,0,0,0-.57.49l-14.42,23.08a1.25,1.25,0,0,1-1.07.59h-95A1.25,1.25,0,0,1,91,657.74v-26a1.25,1.25,0,0,0-.67-1.11L71,620.53a1.25,1.25,0,0,1-.58-1.59l5.49-13.35a1.25,1.25,0,0,0-1.58-1.66l-15.09,5.28a1.26,1.26,0,0,1-1.63-1.52L60,599.13a1.86,1.86,0,0,1,.1-.25l10.61-20.33a1.26,1.26,0,0,0-1.45-1.79l-5.29,1.44a1.26,1.26,0,0,1-1.42-1.84l5.21-9.13a1.26,1.26,0,0,0-1.27-1.87l-1.93.28a1.26,1.26,0,0,1-1.28-1.86l12.68-22.63a1.66,1.66,0,0,0,.12-.31L79.49,527A1.25,1.25,0,0,0,78,525.51l-3.94,1A1.25,1.25,0,0,1,72.51,525L74,519.18A1.14,1.14,0,0,1,74.1,518.84Z"/>
  <path class="cls-1" d="M1693.62,513.5,1711,478a1.44,1.44,0,0,0-1.94-1.92l-4.37,2.22a1.44,1.44,0,0,1-2-1.61l2-8.24a1.44,1.44,0,0,0-2-1.65l-10.29,4.48a1.43,1.43,0,0,1-1.85-2l13.75-27.56a1.4,1.4,0,0,1,.1-.16l11-16.34a1.43,1.43,0,0,0-1.53-2.2l-6.7,1.65a1.43,1.43,0,0,1-1.44-2.31l17.72-21.18a1.29,1.29,0,0,0,.26-.49l3.87-12.23a1.44,1.44,0,0,0-1.19-1.86l-28.53-3.51a1.43,1.43,0,0,1-1-2.16l16.37-27.16a1.45,1.45,0,0,0-1.36-2.18l-3.36.3a1.43,1.43,0,0,1-1.34-2.2l15.45-24.15a2,2,0,0,0,.13-.25l5-12.68a1.44,1.44,0,0,0-.9-1.9l-11.11-3.51a1.43,1.43,0,0,1-.86-2L1741,250.63a1.44,1.44,0,0,0-2.35-1.6h0a1.44,1.44,0,0,1-2.43-1.37l4.79-17a1.44,1.44,0,0,0-1.51-1.82l-2.12.19a1.44,1.44,0,0,1-1.4-2.1l16.29-31.08a1.44,1.44,0,0,0,.15-.51l1.2-10.94a1.39,1.39,0,0,1,.24-.65L1771.54,158a1.44,1.44,0,0,1,2.46.15L1795.37,199a1.44,1.44,0,0,1-1.15,2.1l-2.85.25a1.45,1.45,0,0,0-1.23,1.91l10.56,30.47a1.44,1.44,0,0,1-2,1.75l-.93-.48a1.44,1.44,0,0,0-1.8,2.15L1809,254.57a1.65,1.65,0,0,1,.22.44l6.33,20.75a1.41,1.41,0,0,0,.19.39l9.84,14.35a1.44,1.44,0,0,1-1.41,2.23l-3.48-.55a1.44,1.44,0,0,0-1.55,2l5.77,14a1.43,1.43,0,0,1-.79,1.88l-7.88,3.15a1.43,1.43,0,0,0-.57,2.25l10.13,12.18a1.33,1.33,0,0,1,.23.38l19.37,47.08a1.44,1.44,0,0,1-1.6,2l-2.5-.48a1.44,1.44,0,0,0-1.52,2.12l3.16,5.58a1.43,1.43,0,0,1-1.81,2L1834,383.2a1.44,1.44,0,0,0-1.76,2.12l3.72,5.58a1.44,1.44,0,0,1-1.23,2.24l-4.93-.11a1.44,1.44,0,0,0-1.26,2.19l11.91,19.33a1.77,1.77,0,0,1,.15.31l3.89,11.93a1.44,1.44,0,0,1-1.67,1.85l-9.42-2.05a1.43,1.43,0,0,0-1.14,2.57l19.8,14.14a1.71,1.71,0,0,1,.35.36l11.79,17.4a1.43,1.43,0,0,1-.94,2.22l-8.92,1.55a1.44,1.44,0,0,0-.86,2.33l13,15.86a1.43,1.43,0,0,1-1.18,2.34l-10.24-.54a1.44,1.44,0,0,0-1.33,2.14l5.51,9.72,19.54,30.82a1.44,1.44,0,0,1-1.49,2.18l-2.28-.44a1.44,1.44,0,0,0-1.6,2l13,31.48a1.44,1.44,0,0,1-.88,1.91l-25.54,8.33a1.44,1.44,0,0,0-.69,2.25l10.33,13.31a.78.78,0,0,1,.11.18l10.84,19.3a1.44,1.44,0,0,1-1.41,2.13l-6.42-.7a1.43,1.43,0,0,0-1.49,2l3.06,7.65a1.44,1.44,0,0,1-.66,1.8l-21.43,11.53a1.52,1.52,0,0,0-.61.62l-14.06,27.69a1.45,1.45,0,0,1-1.15.78L1728.42,671a1.43,1.43,0,0,1-1.55-1.31l-2.63-29.53a1.43,1.43,0,0,0-.88-1.2l-23-9.55a1.43,1.43,0,0,1-.82-1.75l4.9-15.73a1.44,1.44,0,0,0-2-1.74l-16.62,7.53a1.44,1.44,0,0,1-2-1.56l1.79-10a1.32,1.32,0,0,1,.09-.3l10-24.18a1.43,1.43,0,0,0-1.83-1.89l-5.86,2.17a1.44,1.44,0,0,1-1.81-1.95l5-10.9a1.44,1.44,0,0,0-1.63-2l-2.17.51a1.44,1.44,0,0,1-1.64-2l12.12-27a1.5,1.5,0,0,0,.11-.36l2.53-16a1.44,1.44,0,0,0-1.89-1.58l-4.37,1.51a1.44,1.44,0,0,1-1.89-1.58l1.06-6.72A1.51,1.51,0,0,1,1693.62,513.5Z"/>
  <path class="cls-1" d="M1633.69,321.36l-18.3,25.34a1.51,1.51,0,0,0-.2.35L1606,368.53l-13.64,31.39a1.82,1.82,0,0,0,2.39,2.4l2.37-1a1.83,1.83,0,0,1,2.39,2.41l-7,15.93A1.83,1.83,0,0,0,1595,422h0a1.82,1.82,0,0,1,2.46,2.42l-18.09,37.46a1.83,1.83,0,0,0,1.65,2.62h13.85a1.82,1.82,0,0,1,1.53,2.81L1580,492.63a1.83,1.83,0,0,0,1.53,2.82H1583a1.83,1.83,0,0,1,1.64,2.62l-19.15,39.65a1.83,1.83,0,0,0,1.65,2.62h23.19a1.82,1.82,0,0,1,1.54,2.8l-15,23.81a1.83,1.83,0,0,0,1.54,2.8h7.57a1.82,1.82,0,0,1,1.6,2.69l-28,51.89a1.83,1.83,0,0,0,1.61,2.69h9.83a1.82,1.82,0,0,1,1.72,2.43l-14,39.2a1.83,1.83,0,0,0,1.09,2.33l13.91,5a1.83,1.83,0,0,1,1.18,2l-5.62,35.1a1.83,1.83,0,0,0,1.8,2.11h151.94a1.82,1.82,0,0,0,1.79-2.2l-10-47.09a1.83,1.83,0,0,1,1.4-2.17L1734,660a1.82,1.82,0,0,0,1.34-2.39l-17.69-50.13a1.92,1.92,0,0,0-.66-.88l-17.91-12.79a1.82,1.82,0,0,1,.65-3.26l14.06-3.25a1.82,1.82,0,0,0,1.27-2.49l-15.11-35.71a1.83,1.83,0,0,1,1.68-2.53H1710a1.83,1.83,0,0,0,1.68-2.53l-22.9-54.39a1.81,1.81,0,0,1,1.18-2.46l6.58-1.88a1.83,1.83,0,0,0,1.07-2.69l-16.59-28.08a1.82,1.82,0,0,1,2.07-2.68l1.56.45a1.82,1.82,0,0,0,2-2.79l-14.15-20.58-9.36-14.71a1.82,1.82,0,0,1,1.24-2.77l4.5-.75a1.82,1.82,0,0,0,1.43-2.35l-10.12-31.81a1.57,1.57,0,0,0-.22-.45l-5.51-8.28a1.82,1.82,0,0,1-.18-1.69l2.42-6.06a1.84,1.84,0,0,0-.08-1.54l-19.89-36.93A1.82,1.82,0,0,0,1633.69,321.36Z"/>
  <path class="cls-1" d="M363.53,403.45l-10.8,14.95a.72.72,0,0,0-.12.21l-5.43,12.68-8.06,18.52a1.08,1.08,0,0,0,1.41,1.42l1.41-.6a1.08,1.08,0,0,1,1.41,1.42l-4.12,9.4a1.08,1.08,0,0,0,1.47,1.39h0a1.08,1.08,0,0,1,1.45,1.43l-10.67,22.11a1.07,1.07,0,0,0,1,1.54h8.18a1.08,1.08,0,0,1,.9,1.66l-9.72,14.95a1.08,1.08,0,0,0,.91,1.66h.87a1.08,1.08,0,0,1,1,1.55l-11.3,23.4a1.07,1.07,0,0,0,1,1.54h13.69a1.08,1.08,0,0,1,.91,1.65L330,548.39a1.08,1.08,0,0,0,.91,1.65h4.46a1.08,1.08,0,0,1,.95,1.59l-16.55,30.62a1.08,1.08,0,0,0,.94,1.59h5.81a1.08,1.08,0,0,1,1,1.44l-8.26,23.13a1.07,1.07,0,0,0,.64,1.37l8.21,3a1.07,1.07,0,0,1,.7,1.18l-3.32,20.71a1.08,1.08,0,0,0,1.06,1.25h89.68a1.08,1.08,0,0,0,1.05-1.3l-5.9-27.8a1.07,1.07,0,0,1,.83-1.27l10.54-2.26a1.07,1.07,0,0,0,.79-1.41l-10.44-29.59a1,1,0,0,0-.39-.51l-10.57-7.55a1.08,1.08,0,0,1,.39-1.93l8.3-1.91a1.08,1.08,0,0,0,.75-1.47l-8.92-21.08a1.07,1.07,0,0,1,1-1.49h5a1.08,1.08,0,0,0,1-1.5l-13.52-32.1a1.08,1.08,0,0,1,.7-1.45l3.89-1.11a1.08,1.08,0,0,0,.63-1.58L391.48,482a1.08,1.08,0,0,1,1.23-1.58l.92.27a1.08,1.08,0,0,0,1.18-1.65l-8.35-12.15-5.52-8.67a1.07,1.07,0,0,1,.73-1.64l2.65-.45a1.07,1.07,0,0,0,.85-1.38l-6-18.77a.84.84,0,0,0-.13-.27l-3.25-4.89a1.06,1.06,0,0,1-.11-1l1.43-3.58a1.08,1.08,0,0,0-.05-.91l-11.73-21.79A1.07,1.07,0,0,0,363.53,403.45Z"/>
  <polygon class="cls-1" points="615.31 683.22 622 668 619 687 626 675 626 684 634 687 638 672 638 687 643 677 643 690 648 690 652 679 652 690 658 682 658 690 665 679 663 693 668 693 671 682 674 695 680 682 680 695 686 684 686 695 690 695 698 695 702 684 702 695 706.55 695 710 690 712 699 717 688 717 699 723 699 728 690 728 701 735 703 739 690 741 703 717 711 618 690 615.31 683.22"/>
  <polygon class="cls-1" points="811.71 702.81 814 694 817 707 824 705 828 694 828 707 834 696 834 705 842 707 844 696 847 707 850 694 853 707 856 697 858 707 867 707 867 697 871 707 874 697 876 707 879 707 881 696 883 707 886 707 888 698 891 707 901 707 905 697 905 707 911 707 914 694 916 707 921 700 921 707 926 707 929 701 931 710 937 710 941 701 941 711 926 714 833 724 811.71 702.81"/>
  <path class="cls-1" d="M995,716l4-5,3,8,6-13v13l6.55-2.76L1017,709l2.58,7.43L1025,719l3-11,2,11,4.68-2.57L1038,709v10h5l2-13,2.84,10.43L1053,716l3-8,2,8h12l4-10v10h6V704l4,10,6-1,2-9,3,7,2-9,4,9,5-1V698l6,12,5-1V698l4,10h3V698l5,10,6-2v-8l6,8,6,5-52,10s-51,10-57,10-43-8-43-8Z"/>
  <polygon class="cls-1" points="1311 689 1313 680 1317 689 1324 686 1328 678 1331 686 1361 686 1363 671 1368 682 1380 676 1383 665 1385 675 1389 674 1391 663 1395 674 1404 671 1405 661 1409 671 1412 668 1412 661 1418 669 1491 658 1495 649 1495 657 1500 658 1503 647 1505 658 1513 655 1515 644 1518 657 1521 647 1524 658 1530 657 1532 647 1536 659 1532 666 1423 685 1334 697 1311 689"/>
  <rect class="cls-1" x="39" y="450" width="65" height="177"/>
</svg>
