<svg id="_3nd_plan" data-name="3nd plan" xmlns="http://www.w3.org/2000/svg" viewBox="0 0 1920 1080">
  <defs>
    <style>
      .cls-1 {
        fill: #762e48;
      }
    </style>
  </defs>
  <title>montains</title>
  <path class="cls-1" d="M10.53,190.52l101.12-51.19a18.61,18.61,0,0,1,16.54-.15l184.57,89.2a17.49,17.49,0,0,0,2.79,1.08l45.59,13.64a19,19,0,0,1,10.7,8.23L387,275.81a19.09,19.09,0,0,0,9.13,7.69l51.53,20.57a19.08,19.08,0,0,1,10.05,9.37L514,428.34a19.21,19.21,0,0,0,8,8.4L752.26,562.45a18.53,18.53,0,0,0,5,1.86L956.77,608a18.46,18.46,0,0,1,2.69.81l144.68,55.46a18.6,18.6,0,0,0,14.49-.48l205.86-95.15a19.09,19.09,0,0,0,7.38-6l87.38-119.47a19.46,19.46,0,0,0,3.44-8l15.16-82.19a19.66,19.66,0,0,0-4.29-16.23l-3.68-4.35a19.66,19.66,0,0,1-2.86-20.78l7.92-17.42A19,19,0,0,1,1450.43,283l33.19-3.08a18.8,18.8,0,0,0,11.93-5.83l90.26-95.38a18.72,18.72,0,0,1,20.82-4.47l15.46,6.46a18.74,18.74,0,0,0,22.33-6.27L1749.73,31.71a18.72,18.72,0,0,1,28.65-1.95l50.81,52.56A18.8,18.8,0,0,1,1832,86l85.35,145.13A19.58,19.58,0,0,1,1920,241V773.85a19.16,19.16,0,0,1-19,19.35H19A19.16,19.16,0,0,1,0,773.85v-566A19.38,19.38,0,0,1,10.53,190.52Z"/>
</svg>
