<svg id="_2nd_plan" data-name="2nd plan" xmlns="http://www.w3.org/2000/svg" viewBox="0 0 1920 1080">
  <defs>
    <style>
      .cls-1 {
        fill: #4c2b4f;
      }
    </style>
  </defs>
  <title>trees</title>
  <path class="cls-1" d="M576.44,702.16l16.88-27.41a1,1,0,0,0-.06-1.11l-5.18-6.71a1,1,0,0,1,0-1.19l14.38-19.21a1,1,0,0,0-.66-1.56l-2.5-.32a1,1,0,0,1-.62-1.6l10.75-12.71a1,1,0,0,0-.62-1.61l-14.37-1.84a1,1,0,0,1-.65-1.58l10-12.88a1,1,0,0,0-.65-1.57l-1.52-.19a1,1,0,0,1-.63-1.59l13.36-16.44a1,1,0,0,0-.64-1.59l-6.62-.85a1,1,0,0,1-.7-1.51l16.41-25.12a1,1,0,0,0-1.14-1.46l-1,.35A1,1,0,0,1,619.5,561l4.64-7.4a1,1,0,0,0-1.15-1.44l-1.24.43a1,1,0,0,1-1.17-1.41L631,532.86l.1-.14,9.64-11.46a1,1,0,0,1,1.65.25l8.59,20a1,1,0,0,1-1.21,1.32l-1.19-.4a1,1,0,0,0-1.28,1.09l2.4,13.58a1,1,0,0,1-1.09,1.14h0a1,1,0,0,0-1,1.33l13.26,33a1,1,0,0,1-1,1.34l-5.77-.74a1,1,0,0,0-1.06,1.25l12.65,41.34a1,1,0,0,1-1,1.27l-6.27-.11a1,1,0,0,0-.93,1.32l5.36,14.29a1,1,0,0,1-1.37,1.21l-5.91-3.06a1,1,0,0,0-1.37,1.21l10.51,28.92a1,1,0,0,1-1,1.31l-9-1.15a1,1,0,0,0-.9,1.56l9.72,12.6a1.18,1.18,0,0,1,.11.19L671,711.43a1,1,0,0,1-.56,1.34l-22,7.67a1.16,1.16,0,0,1-.45,0l-44.27-5.7a1.25,1.25,0,0,1-.26-.07l-26.56-11.14A1,1,0,0,1,576.44,702.16Z"/>
  <path class="cls-1" d="M693.23,515.52l-3.69,6.07a.67.67,0,0,0-.1.31l-.41,4.87a.66.66,0,0,1-.23.47l-10.4,9.41a.71.71,0,0,0,.6,1.23l12.22-2a.71.71,0,0,1,.83.76l-.35,4.15a.66.66,0,0,1-.21.45l-8.71,8.61a.72.72,0,0,0,.45,1.22h0a.71.71,0,0,1,.45,1.21L671.51,565a.72.72,0,0,0,.46,1.21l8.13.67a.66.66,0,0,0,.47-.13l8.29-5.82a.72.72,0,0,1,1.13.64l-.93,11.27a.79.79,0,0,1-.08.26l-3.51,7a.75.75,0,0,1-.27.29l-18.39,11.24a.71.71,0,0,0,.4,1.32l19.45-1a.72.72,0,0,1,.75.77l-1,12.49a.7.7,0,0,1-.36.57l-9.64,5.33a.72.72,0,0,0,.29,1.34l.4,0a.72.72,0,0,1,.38,1.28l-9,7.06a.71.71,0,0,0,.21,1.24l10.58,3.6a.51.51,0,0,0,.17,0l4.52.38a.72.72,0,0,1,.66.77l-.61,7.3a.68.68,0,0,1-.32.54l-8.45,5.46a.71.71,0,0,0,.33,1.31l1.28.11a.72.72,0,0,1,.54,1.1L672,651a.71.71,0,0,0,.81,1.07l8.9-2.73a.71.71,0,0,1,.92.74l-.89,10.84a.72.72,0,0,1-.22.46l-12.18,11.71a.51.51,0,0,0-.15.21l-2.15,4.54a.71.71,0,0,0,.76,1l3.38-.55a.71.71,0,0,1,.74,1.06l-5.51,9.57a.71.71,0,0,0,.82,1l11.41-3.39a.72.72,0,0,1,.92.75l-1.81,21.82a.72.72,0,0,0,.66.77l15.21,1.25a.71.71,0,0,0,.77-.74l-.95-22.73a.71.71,0,0,1,.94-.71l10.32,3.51a.71.71,0,0,0,.88-.37l2.3-4.88a.7.7,0,0,0-.13-.8l-5-5.21a.71.71,0,0,1,.46-1.2l1.65-.14a.71.71,0,0,0,.46-1.2l-10.73-11.33a.72.72,0,0,1,.68-1.19l7.67,1.75a.71.71,0,0,0,.8-.38l1.37-2.75a.72.72,0,0,0-.09-.78l-10.67-12.58a.78.78,0,0,1-.17-.53l1-12.38a.71.71,0,0,1,1-.59l10,4.49a.71.71,0,0,0,1-.92l-1.31-3.28a.72.72,0,0,1,.88-1l6.13,2a.72.72,0,0,0,.79-1.11l-8.81-11.81a.71.71,0,0,1-.12-.6l1-3.77a.69.69,0,0,0-.2-.69L699,613.05a.7.7,0,0,1-.23-.53l.22-10.83a.71.71,0,0,1,1-.63L717.46,609a.72.72,0,0,0,.9-1l-5.06-7.83a.71.71,0,0,1,.26-1l1-.53a.72.72,0,0,0,.19-1.1l-12.56-14A.64.64,0,0,1,702,583l-1.06-12.76a.71.71,0,0,1,.8-.77l15.66,1.92a.71.71,0,0,0,.54-1.26l-10.71-8.89a.71.71,0,0,1,.51-1.26l.64,0a.72.72,0,0,0,.5-1.28l-7.88-6a.76.76,0,0,1-.28-.56l-.23-13.36a.72.72,0,0,1,1.19-.55l4.38,3.89a.77.77,0,0,0,.25.14l3.67,1.25a.71.71,0,0,0,.81-1.1l-7-9.53a.72.72,0,0,1,.4-1.12l.19,0a.72.72,0,0,0,.37-1.16l-6.18-7.29a.57.57,0,0,1-.08-.13l-4-7.61A.71.71,0,0,0,693.23,515.52Z"/>
  <path class="cls-1" d="M754.83,526.71l-8.05,10a.36.36,0,0,0-.07.1l-8.46,16.13a.61.61,0,0,0,.61.88l1.29-.18a.61.61,0,0,1,.66.75l-1.94,7.22a.61.61,0,0,0,.94.64l.52-.38a.6.6,0,0,1,.87.78l-12.41,21.77a.59.59,0,0,0,.3.85l4.56,1.86a.6.6,0,0,1,.31.81l-2.74,5.75a.6.6,0,0,1-.09.13c-.59.7-6.33,7.44-5.71,7.48.41,0,2.11-.12,3.33-.23a.61.61,0,0,1,.55,1l-8.14,11.41a.6.6,0,0,0,.37.94l11.81,2.47a.6.6,0,0,1,.34,1l-4.4,5.5,0,0-6.69,7.46a.61.61,0,0,0,.54,1l3.15-.49a.6.6,0,0,1,.62.87l-3.16,5.9a.33.33,0,0,1-.06.1l-8.07,10a.6.6,0,0,0,.22.93l5.87,2.57a.61.61,0,0,1,.34.7l-2.5,9.78a.41.41,0,0,1-.08.19L711.37,674a.6.6,0,0,0,.46.93l11,.72a.6.6,0,0,1,.45.95l-10.19,14.17a1,1,0,0,0-.08.14l-3.6,9.36a.6.6,0,0,0,.59.81l9.7-.51a.59.59,0,0,1,.63.59l.09,7.4a.61.61,0,0,0,.56.59L771,712.35a.6.6,0,0,0,.64-.56l.34-5.26a.59.59,0,0,1,.73-.54l13.79,3.22a.59.59,0,0,0,.69-.8l-3.84-9.76a.6.6,0,0,1,.45-.81l1.15-.21a.6.6,0,0,0,.43-.86l-8.34-16.19a.56.56,0,0,1-.06-.31l.57-8.91a.61.61,0,0,1,.79-.53l10.16,3.39a.61.61,0,0,0,.73-.84l-5.77-11.62,0,0-4.24-10.77a.6.6,0,0,1,.48-.81l1.75-.23a.6.6,0,0,0,.46-.85l-5-10.58a.61.61,0,0,1,.58-.86l2.51.16a.59.59,0,0,0,.57-.87l-4.82-9.18a.6.6,0,0,1,.87-.78h0a.6.6,0,0,0,.94-.58l-1.63-10.45a.55.55,0,0,0-.12-.28l-5.46-6.85a.6.6,0,0,1,.28-.95l5.39-1.76a.6.6,0,0,0,.4-.71L774,595.28a1.42,1.42,0,0,0-.08-.18l-4.55-7a.6.6,0,0,1,.62-.92l2.19.46a.6.6,0,0,0,.7-.74l-1.58-6a.6.6,0,0,1,.78-.72l2,.72a.59.59,0,0,0,.73-.83l-6.89-13.61a.3.3,0,0,1,0-.1l-3.07-10.11a.62.62,0,0,1,.43-.76l.81-.21a.59.59,0,0,0,.42-.75l-3.37-11.35a.6.6,0,0,1,.62-.77l1.22.08a.6.6,0,0,0,.54-.93l-9.69-14.83A.6.6,0,0,0,754.83,526.71Z"/>
  <path class="cls-1" d="M571.06,500.44a1.8,1.8,0,0,1-1.82,2.42h0a.62.62,0,0,0-.59.93l7.81,14a.62.62,0,0,1-.39.91l-4.46,1.11a.63.63,0,0,0-.36,1l11.59,16.57a.63.63,0,0,1-.34,1l-6.43,1.85a.63.63,0,0,0-.3,1l10.28,12a.62.62,0,0,1,.14.28l1.4,6.89a.43.43,0,0,0,0,.16l4.66,9.37a.63.63,0,0,1-.61.91L581,570a.63.63,0,0,0-.59.94l15.23,26.18a.58.58,0,0,1,.09.25l1,9.61a.63.63,0,0,1-1,.58L584,599.19a.63.63,0,0,0-1,.66l1.73,6.95a.63.63,0,0,1-.46.76l-4.58,1.14a.63.63,0,0,0-.34,1l12.51,15.64a.62.62,0,0,1-.3,1l-3.49,1.09a.62.62,0,0,0-.34.93l11.37,18.3a.62.62,0,0,1-.58,1l-14.76-1.16a.63.63,0,0,0-.64.83l1.93,5.7a.62.62,0,0,1-.41.8l-8.73,2.72a.63.63,0,0,0-.27,1l14,15.38a.72.72,0,0,1,.14.24l3.66,12.34a.62.62,0,0,1-.65.8l-19.4-1.52a.63.63,0,0,0-.68.57L571.44,702a.63.63,0,0,1-.68.57l-49.59-3.9a.63.63,0,0,1-.57-.68L522,680.32a.62.62,0,0,0-.58-.67L500,678a.63.63,0,0,1-.53-.87l5.76-13.61a.6.6,0,0,1,.19-.25l10.06-7.79a.63.63,0,0,0-.42-1.13l-4.64.22a.63.63,0,0,1-.51-1l9.44-11.24a.62.62,0,0,0-.37-1L510,639.71a.63.63,0,0,1-.45-.93L522,616.56a.44.44,0,0,1,.08-.11l4.8-5.46a.63.63,0,0,0-.71-1l-8.22,3.34a.63.63,0,0,1-.77-.91l5.92-9.82a.61.61,0,0,0,0-.12L528,588.67a.62.62,0,0,0-.54-.83l-4.25-.34a.63.63,0,0,1-.52-.9l7.69-15.92a.63.63,0,0,0-.37-.87l-2.49-.84a.63.63,0,0,1-.34-.92l7.41-12.3a.62.62,0,0,0-.11-.78l-3.81-3.57a.64.64,0,0,1,0-.92l9.87-9.28a.63.63,0,0,0,0-.9l-5.64-5.66a.63.63,0,0,1,0-.86l8.9-10.1a.63.63,0,0,0-.27-1l-2.17-.73a.62.62,0,0,1-.29-1l7.46-9.5a.62.62,0,0,0-.54-1l-3.19.28a.63.63,0,0,1-.55-1l19.65-25.39a.63.63,0,0,1,1.09.16Z"/>
  <path class="cls-1" d="M498.57,474.39l-11,11.26-.09.11-12.18,18.75a.74.74,0,0,0,.65,1.14l1.59-.07a.74.74,0,0,1,.72,1l-3.19,8.59a.74.74,0,0,0,1.07.89l.68-.4a.73.73,0,0,1,1,1.05l-17.66,25.19a.74.74,0,0,0,.27,1.08l5.36,2.78a.75.75,0,0,1,.29,1l-4,6.72a.53.53,0,0,1-.12.14c-.81.79-8.59,8.37-7.83,8.49.49.08,2.59.1,4.09.1a.73.73,0,0,1,.56,1.21l-11.24,13a.74.74,0,0,0,.34,1.19L462,582a.74.74,0,0,1,.31,1.22l-6,6.2,0,0-9,8.36a.73.73,0,0,0,.54,1.27l3.9-.24a.74.74,0,0,1,.66,1.14l-4.53,6.85a.31.31,0,0,1-.09.11l-11,11.29a.73.73,0,0,0,.17,1.16l6.87,3.81a.74.74,0,0,1,.34.89L440,635.78a.61.61,0,0,1-.13.22l-11.19,13.33a.74.74,0,0,0,.45,1.2l13.35,2.13a.74.74,0,0,1,.44,1.21L428.81,670a.49.49,0,0,0-.1.15l-5.48,11a.75.75,0,0,0,.63,1.07l11.91.48a.75.75,0,0,1,.71.8l-.74,9.05a.73.73,0,0,0,.62.78l60.79,9.68a.73.73,0,0,0,.84-.61l1-6.39a.74.74,0,0,1,1-.58L516.44,701a.73.73,0,0,0,.94-.9l-3.58-12.37a.75.75,0,0,1,.65-.94l1.43-.12a.74.74,0,0,0,.62-1l-8.34-20.73a.73.73,0,0,1,0-.39l1.72-10.81a.74.74,0,0,1,1-.56l12,5.3a.74.74,0,0,0,1-.94l-5.71-14.86a.14.14,0,0,1,0-.06L514.19,629a.74.74,0,0,1,.68-.94l2.16-.09a.73.73,0,0,0,.67-1l-4.92-13.5a.74.74,0,0,1,.81-1l3,.49a.73.73,0,0,0,.79-1l-4.84-11.77a.73.73,0,0,1,1.15-.84h0a.74.74,0,0,0,1.21-.61l-.79-13a.73.73,0,0,0-.12-.35l-5.89-9a.75.75,0,0,1,.46-1.13l6.78-1.53A.74.74,0,0,0,516,573l-1.84-12.6a.75.75,0,0,0-.08-.24l-4.76-9a.73.73,0,0,1,.86-1.05l2.62.81a.74.74,0,0,0,1-.82l-1.25-7.53a.74.74,0,0,1,1-.78l2.39,1.11a.74.74,0,0,0,1-.94L510,524.49a.5.5,0,0,1,0-.13l-2.59-12.7a.75.75,0,0,1,.6-.88l1-.16a.74.74,0,0,0,.6-.87l-2.82-14.26a.74.74,0,0,1,.84-.87l1.49.24a.74.74,0,0,0,.77-1.07l-10.15-19.23A.73.73,0,0,0,498.57,474.39Z"/>
  <path class="cls-1" d="M426,464.3l-5,7.87a.84.84,0,0,0-.14.41l-.64,6.37a.89.89,0,0,1-.31.61l-13.83,12.11a.93.93,0,0,0,.75,1.63L423,490.94a.93.93,0,0,1,1.07,1l-.54,5.43a1,1,0,0,1-.28.59l-11.61,11.1a.93.93,0,0,0,.56,1.6h0a.94.94,0,0,1,.57,1.59l-16.23,16.43a.94.94,0,0,0,.58,1.59l10.64,1.06a1,1,0,0,0,.62-.16l11-7.45a.93.93,0,0,1,1.46.86l-1.46,14.75a1,1,0,0,1-.1.34l-4.76,9.16a1.06,1.06,0,0,1-.36.37l-24.35,14.34a.94.94,0,0,0,.51,1.74l25.5-.85a.92.92,0,0,1,1,1l-1.62,16.35a.94.94,0,0,1-.49.74l-12.74,6.78a.94.94,0,0,0,.35,1.76l.52,0a.94.94,0,0,1,.47,1.68l-11.94,9.06a.94.94,0,0,0,.25,1.63l13.79,4.94.23,0,5.91.59a.93.93,0,0,1,.84,1l-.94,9.56a.92.92,0,0,1-.44.7l-11.2,7a.93.93,0,0,0,.41,1.72l1.67.17a.94.94,0,0,1,.69,1.45l-7.15,10.71a.94.94,0,0,0,1,1.42l11.73-3.39a.93.93,0,0,1,1.19,1l-1.41,14.19a1,1,0,0,1-.29.6l-16.22,15.07a.9.9,0,0,0-.21.27l-2.91,5.91a.94.94,0,0,0,1,1.35l4.44-.66a.94.94,0,0,1,.94,1.41L387.19,691a.93.93,0,0,0,1.05,1.38l15-4.19a.93.93,0,0,1,1.18,1l-2.83,28.55a.93.93,0,0,0,.84,1l19.9,2a.94.94,0,0,0,1-1l-.76-29.81a.93.93,0,0,1,1.25-.9l13.46,4.81a.93.93,0,0,0,1.15-.46l3.13-6.34a.93.93,0,0,0-.16-1l-6.4-6.94a.94.94,0,0,1,.63-1.57l2.17-.14a.94.94,0,0,0,.62-1.57l-13.82-15.07a.94.94,0,0,1,.92-1.55l10,2.46a.94.94,0,0,0,1.06-.47l1.86-3.58a1,1,0,0,0-.11-1l-13.7-16.72a.91.91,0,0,1-.21-.69l1.61-16.21a.93.93,0,0,1,1.33-.75l13,6.1a.93.93,0,0,0,1.27-1.18l-1.65-4.33a.94.94,0,0,1,1.18-1.22l8,2.7a.94.94,0,0,0,1.06-1.44L439,607.13a1,1,0,0,1-.14-.79l1.33-4.91a.93.93,0,0,0-.25-.91l-8.47-8.28a.92.92,0,0,1-.28-.7l.51-14.19a.94.94,0,0,1,1.34-.81l22.71,10.74a.94.94,0,0,0,1.2-1.34l-6.46-10.37a.94.94,0,0,1,.36-1.32l1.26-.67a.94.94,0,0,0,.27-1.44l-16.16-18.66a1,1,0,0,1-.22-.55l-1.12-16.75a1,1,0,0,1,1.07-1l20.48,2.86a.93.93,0,0,0,.74-1.63l-13.85-11.89a.94.94,0,0,1,.7-1.65l.84.09a.94.94,0,0,0,.67-1.67l-10.19-8.08a.92.92,0,0,1-.35-.73V495a.94.94,0,0,1,1.57-.69l5.65,5.19a1.07,1.07,0,0,0,.32.2l4.79,1.71A.93.93,0,0,0,448.4,500l-8.93-12.64a.94.94,0,0,1,.56-1.46l.24-.05a.94.94,0,0,0,.52-1.51l-7.94-9.69a.62.62,0,0,1-.11-.17l-5.09-10.07A.94.94,0,0,0,426,464.3Z"/>
  <path class="cls-1" d="M320.87,463.87l-10.8,14.95a.72.72,0,0,0-.12.21l-5.43,12.67-8.06,18.53a1.08,1.08,0,0,0,1.41,1.42l1.41-.6a1.08,1.08,0,0,1,1.41,1.42l-4.12,9.4a1.08,1.08,0,0,0,1.47,1.39h0a1.08,1.08,0,0,1,1.45,1.43L288.82,546.8a1.07,1.07,0,0,0,1,1.54H298a1.08,1.08,0,0,1,.9,1.66l-9.71,15a1.07,1.07,0,0,0,.9,1.66h.87a1.08,1.08,0,0,1,1,1.55l-11.3,23.4a1.07,1.07,0,0,0,1,1.54h13.69a1.08,1.08,0,0,1,.91,1.65l-8.88,14.06a1.08,1.08,0,0,0,.91,1.65h4.46a1.08,1.08,0,0,1,.95,1.59l-16.55,30.62a1.08,1.08,0,0,0,.94,1.59h5.81a1.08,1.08,0,0,1,1,1.44l-8.26,23.13a1.07,1.07,0,0,0,.64,1.37l8.21,3a1.07,1.07,0,0,1,.7,1.18l-3.32,20.71a1.08,1.08,0,0,0,1.07,1.25h89.67a1.08,1.08,0,0,0,1.05-1.3l-5.9-27.8a1.07,1.07,0,0,1,.83-1.27l10.54-2.26a1.07,1.07,0,0,0,.79-1.41L370.4,632.7a1,1,0,0,0-.39-.51l-10.57-7.55a1.08,1.08,0,0,1,.39-1.93l8.3-1.91a1.08,1.08,0,0,0,.75-1.47L360,598.25a1.07,1.07,0,0,1,1-1.49h5a1.08,1.08,0,0,0,1-1.5l-13.52-32.1a1.08,1.08,0,0,1,.7-1.45L358,560.6a1.07,1.07,0,0,0,.63-1.58l-9.8-16.58a1.08,1.08,0,0,1,1.23-1.58l.92.26a1.07,1.07,0,0,0,1.18-1.64l-8.35-12.15-5.52-8.68A1.07,1.07,0,0,1,339,517l2.65-.44a1.07,1.07,0,0,0,.85-1.38l-6-18.77a1.13,1.13,0,0,0-.13-.27l-3.26-4.89a1,1,0,0,1-.1-1l1.43-3.58a1.07,1.07,0,0,0-.06-.91L322.69,464A1.08,1.08,0,0,0,320.87,463.87Z"/>
  <path class="cls-1" d="M283.23,415.53l2.44,3.06a1.14,1.14,0,0,1,.24.92l-1.78,9.75a1.16,1.16,0,0,0,.5,1.16l8.1,5.4a1.16,1.16,0,0,1,.41.47l4.66,10.1a1.15,1.15,0,0,1-1.47,1.54l-11.11-4.44a1.15,1.15,0,0,0-1.54.78l-1.57,6.27a1.2,1.2,0,0,0,.13.87l5.67,9.44a1.27,1.27,0,0,1,.13.32l2.89,11.55a1.18,1.18,0,0,0,.27.49l8.92,9.67a1.14,1.14,0,0,1-1.17,1.87l-7.8-2.4a1.14,1.14,0,0,0-1.44.82l-.31,1.22a1.14,1.14,0,0,1-1.76.66l-6.84-4.79a1.14,1.14,0,0,0-1.8.94v12.5a1.19,1.19,0,0,0,.14.56l4.76,8.57a1.42,1.42,0,0,0,.25.3l14.27,12.49a1.15,1.15,0,0,1-.44,2l-3.76,1.07a1.15,1.15,0,0,0-.75,1.53l2.41,6a1.14,1.14,0,0,1-1.57,1.44l-13.65-6.82a1.14,1.14,0,0,0-1.66,1v16.49a1.14,1.14,0,0,0,.57,1l11.17,6.52a1.1,1.1,0,0,1,.41.42l10.87,19a1.14,1.14,0,0,1-1,1.71h-3a1.15,1.15,0,0,0-1,1.72l3.94,6.75a1.15,1.15,0,0,1-1.53,1.59l-18.53-10a1.15,1.15,0,0,0-1.69,1.11l1.78,19.5a1.11,1.11,0,0,0,.27.65l18.56,21.49a1.15,1.15,0,0,1,.26.53l2.55,13.59a1.15,1.15,0,0,1-1.58,1.27l-2.16-.93a1.14,1.14,0,0,0-1.47,1.56l.87,1.75a1.14,1.14,0,0,1-1.6,1.5l-11.87-7a1.15,1.15,0,0,0-1.73,1l.91,25.47a1.14,1.14,0,0,0,.34.77l18.55,18.55a1,1,0,0,1,.21.3l3.21,6.41a1.14,1.14,0,0,1-.86,1.64L293.08,678H263.14a1.14,1.14,0,0,1-1.14-1.14v-17.3a1.15,1.15,0,0,0-1.49-1.09l-17.93,5.71a1.14,1.14,0,0,1-1.37-1.6l.61-1.21a1.15,1.15,0,0,0-1.36-1.61l-4.85,1.46a1.14,1.14,0,0,1-1.34-1.63l8.6-16.34a1.09,1.09,0,0,1,.36-.41l18.31-12.53a1.16,1.16,0,0,0,.5-.86l.78-10.89a1.14,1.14,0,0,0-1.85-1L245.06,630l-.13.09-9.64,5.63a1.14,1.14,0,0,1-1.69-1.25l2-8.6a1.15,1.15,0,0,0-1.39-1.37l-1.64.41a1.14,1.14,0,0,1-1-2L245,611.05l.11-.09,15.52-10.67a1.18,1.18,0,0,0,.49-.79l2.68-19.68a1.14,1.14,0,0,0-1.49-1.24L246.05,584l-.1,0-10.08,2.33a1.14,1.14,0,0,1-1.2-1.76l9.23-13.43a1.2,1.2,0,0,1,.24-.26l5.58-4.34a1.14,1.14,0,0,0-.85-2h0a1.15,1.15,0,0,1-.87-2l9-7.47L257,555l5.68-5.68a1.09,1.09,0,0,0,.32-.68l1.66-14.86a1.15,1.15,0,0,0-1.86-1l-7.71,6.17a1.12,1.12,0,0,1-.28.16l-13.51,5.56a1.14,1.14,0,0,1-1.4-1.67l5-7.8a1.3,1.3,0,0,0,.14-.32l2.84-10.44a1.21,1.21,0,0,1,.44-.63L260.58,515a1.14,1.14,0,0,0-.08-1.91l-2.15-1.29a1.14,1.14,0,0,1-.17-1.84l6.51-5.7a1.16,1.16,0,0,0,.38-.67l2.58-15.5a1.15,1.15,0,0,0-1.59-1.24l-6.76,3a1.21,1.21,0,0,1-.62.09l-12.14-1.62a1.14,1.14,0,0,1-.6-2l10.2-8.75a1.14,1.14,0,0,0-.56-2l-.73-.12a1.14,1.14,0,0,1-.44-2.08l12.23-8.16a1.13,1.13,0,0,0,.47-.66l3.44-12.91a1.14,1.14,0,0,0-1.26-1.43l-9.62,1.38a1.14,1.14,0,0,1-1.09-1.8l11.34-15.7a1,1,0,0,1,.19-.21l5.67-4.72a1.26,1.26,0,0,0,.33-.46l5.16-12.91A1.15,1.15,0,0,1,283.23,415.53Z"/>
  <path class="cls-1" d="M216,416.44l-3.88,5.44a.94.94,0,0,0-.14.26L208,433.88a1.47,1.47,0,0,1-.1.22C207,435.49,197,451,198,451h4a1,1,0,0,1,.78,1.58l-8,10.43a1,1,0,0,0,.38,1.5l7,3.09a1,1,0,0,1,.49,1.29l-3.54,8a.78.78,0,0,1-.16.24l-11.5,13.27a1,1,0,0,0,.74,1.62h6.7a1,1,0,0,1,.74,1.62l-11.33,12.95a1,1,0,0,0,.64,1.62l7,.7a1,1,0,0,1,.86,1.21l-3.67,14.67a1.09,1.09,0,0,1-.22.41l-15.38,17.19a1,1,0,0,0,.73,1.63h3.49a1,1,0,0,1,.94,1.26l-6.14,20.15a1,1,0,0,0,1.15,1.24l10.79-2.31a1,1,0,0,1,1.15,1.22L181,581.87a.88.88,0,0,1-.11.24L169.1,601.84a.82.82,0,0,0-.13.35l-1.72,11.18a1,1,0,0,0,1.3,1.07l7.42-2.7a1,1,0,0,1,1.25,1.27l-5.7,14.66a1,1,0,0,0,.91,1.33h82.38a1,1,0,0,0,1-1.17l-2.49-12.44a1,1,0,0,1,1.12-1.16l9.1,1.52a1,1,0,0,0,1.11-1.22l-3.54-13.25a.88.88,0,0,0-.28-.47l-8.07-7.4a1,1,0,0,1,1-1.64h0a1,1,0,0,0,1.11-1.52l-8.69-11a1,1,0,0,1-.19-.45l-1.7-10.19a1,1,0,0,1,1.25-1.09l9.49,2.91a1,1,0,0,0,1.19-1.31l-7.13-16.92a1,1,0,0,0-.17-.27l-7-7.93a1,1,0,0,1,.29-1.52l1.93-1a1,1,0,0,0,.42-1.36l-6.32-11.05a1,1,0,0,1,1.11-1.43l6.79,1.85a1,1,0,0,0,1.16-1.32l-4.17-10a1,1,0,0,0-.17-.27L235.76,510a1,1,0,0,1,.85-1.62l3.45.43a1,1,0,0,0,1-1.46l-6.19-10.84a1,1,0,0,1,.85-1.46h7.84a1,1,0,0,0,.91-1.36l-4.37-10.46a.85.85,0,0,0-.21-.32L232,475a1,1,0,0,1,.25-1.57l5.77-2.88a1,1,0,0,0,.35-1.44l-8.66-12.14a1,1,0,0,1,.35-1.44l2-1a1,1,0,0,0,.4-1.37l-5.42-9.3a1,1,0,0,1,1-1.46l1.58.27a1,1,0,0,0,1-1.54l-6.52-9a.78.78,0,0,1-.11-.2l-6.29-15.25A1,1,0,0,0,216,416.44Z"/>
  <path class="cls-1" d="M833.22,538.17l3,4.56a.62.62,0,0,1,.1.22l2.79,9.69a1,1,0,0,0,.07.18c.69,1.16,8.29,14.13,7.51,14.1l-3.26-.14a.8.8,0,0,0-.69,1.26l6.18,8.77a.8.8,0,0,1-.36,1.2l-5.77,2.28a.8.8,0,0,0-.45,1l2.61,6.61a.82.82,0,0,0,.12.2L854,599.33a.81.81,0,0,1-.66,1.3l-5.45-.23a.79.79,0,0,0-.66,1.29L856,612.62a.79.79,0,0,1-.58,1.29l-5.7.33a.8.8,0,0,0-.74,1l2.49,12.06a.75.75,0,0,0,.16.35l11.93,14.51a.8.8,0,0,1-.65,1.31l-2.84-.12a.8.8,0,0,0-.8,1l4.3,16.6a.79.79,0,0,1-1,1l-8.71-2.25a.79.79,0,0,0-1,1L856,674a.68.68,0,0,0,.07.2l9,16.46a.75.75,0,0,1,.09.29l1,9.15a.79.79,0,0,1-1.09.83l-5.95-2.45a.8.8,0,0,0-1.06,1l4.14,12.12a.79.79,0,0,1-.79,1l-67-2.81a.79.79,0,0,1-.74-1l2.45-10a.8.8,0,0,0-.87-1l-7.46.92a.8.8,0,0,1-.86-1l3.33-10.67a.77.77,0,0,1,.25-.37l6.81-5.74a.8.8,0,0,0-.76-1.37h0a.8.8,0,0,1-.85-1.28l7.44-8.7a.78.78,0,0,0,.18-.35L805,661a.8.8,0,0,0-1-.94l-7.82,2.06a.81.81,0,0,1-.93-1.12l6.38-13.52a.86.86,0,0,1,.15-.22l6-6.21a.79.79,0,0,0-.19-1.25l-1.53-.85a.78.78,0,0,1-.29-1.12l5.51-8.78a.8.8,0,0,0-.85-1.2l-5.59,1.27A.79.79,0,0,1,804,628l3.73-8a.69.69,0,0,1,.16-.22l6.07-6.21a.8.8,0,0,0-.64-1.35l-2.82.23a.8.8,0,0,1-.74-1.22l5.41-8.6a.79.79,0,0,0-.64-1.22l-6.39-.27a.8.8,0,0,1-.69-1.14l3.91-8.37a.88.88,0,0,1,.18-.25l6.7-6.16a.79.79,0,0,0-.15-1.28l-4.59-2.54a.8.8,0,0,1-.24-1.19l7.47-9.58a.8.8,0,0,0-.25-1.19l-1.62-.9a.8.8,0,0,1-.29-1.13l4.73-7.38a.79.79,0,0,0-.77-1.22l-1.29.16a.8.8,0,0,1-.73-1.29l5.62-7.08a.86.86,0,0,0,.1-.16l5.63-12.2A.81.81,0,0,1,833.22,538.17Z"/>
  <path class="cls-1" d="M1517.14,482.35l2,2.46a.92.92,0,0,1,.19.75l-1.43,7.86a.93.93,0,0,0,.4.93l6.53,4.36a.81.81,0,0,1,.33.38l3.76,8.14a.92.92,0,0,1-1.18,1.24l-9-3.58a.92.92,0,0,0-1.24.63l-1.27,5.06a.89.89,0,0,0,.11.69l4.57,7.62a.87.87,0,0,1,.1.25l2.33,9.32a.88.88,0,0,0,.22.4l7.2,7.8a.93.93,0,0,1-1,1.51l-6.29-1.94a.92.92,0,0,0-1.16.66l-.25,1a.92.92,0,0,1-1.42.53l-5.52-3.86a.92.92,0,0,0-1.45.76v10.08a.89.89,0,0,0,.12.45l3.84,6.91a.92.92,0,0,0,.19.25l11.51,10.06a.92.92,0,0,1-.35,1.58l-3,.87a.93.93,0,0,0-.6,1.23l1.95,4.86a.92.92,0,0,1-1.27,1.17l-11-5.5a.92.92,0,0,0-1.34.82v13.3a.94.94,0,0,0,.46.8l9,5.25a.9.9,0,0,1,.33.34l8.77,15.34a.93.93,0,0,1-.8,1.38h-2.45a.92.92,0,0,0-.8,1.39l3.18,5.44a.93.93,0,0,1-1.24,1.28l-14.94-8.1a.92.92,0,0,0-1.36.9l1.43,15.73a.93.93,0,0,0,.22.52l15,17.33a.87.87,0,0,1,.21.43l2.06,11a.93.93,0,0,1-1.27,1l-1.74-.75a.92.92,0,0,0-1.19,1.26l.7,1.41a.92.92,0,0,1-1.29,1.21l-9.57-5.63a.92.92,0,0,0-1.39.83l.73,20.53a1,1,0,0,0,.27.62l15,15a.81.81,0,0,1,.17.24l2.59,5.17a.92.92,0,0,1-.7,1.33l-10,1.42H1501a.93.93,0,0,1-.93-.92v-14a.93.93,0,0,0-1.2-.88l-14.46,4.6a.92.92,0,0,1-1.1-1.29l.49-1a.93.93,0,0,0-1.09-1.3l-3.92,1.18a.93.93,0,0,1-1.08-1.32l6.93-13.17a1,1,0,0,1,.3-.33l14.77-10.11a.89.89,0,0,0,.39-.69l.63-8.78a.92.92,0,0,0-1.48-.8l-12.84,10-.1.06-7.78,4.54a.92.92,0,0,1-1.36-1l1.6-6.94a.92.92,0,0,0-1.12-1.1l-1.32.33a.93.93,0,0,1-.84-1.59l10.83-9.55.09-.07,12.52-8.61a.93.93,0,0,0,.39-.63l2.17-15.87a.92.92,0,0,0-1.21-1l-13.07,4.35-.08,0-8.13,1.87a.92.92,0,0,1-1-1.42l7.45-10.83a.9.9,0,0,1,.19-.2l4.5-3.5a.92.92,0,0,0-.68-1.64h0a.93.93,0,0,1-.71-1.63l7.23-6,.06-.06,4.58-4.58a.93.93,0,0,0,.27-.55l1.33-12a.93.93,0,0,0-1.5-.82l-6.22,5a1,1,0,0,1-.22.13l-10.9,4.49a.92.92,0,0,1-1.13-1.35l4-6.3a.8.8,0,0,0,.11-.25l2.3-8.42a1,1,0,0,1,.35-.51l9.88-7a.92.92,0,0,0-.06-1.54l-1.74-1a.92.92,0,0,1-.14-1.48l5.25-4.6a1,1,0,0,0,.31-.54l2.08-12.5a.92.92,0,0,0-1.28-1l-5.46,2.42a.92.92,0,0,1-.49.07l-9.8-1.3a.93.93,0,0,1-.48-1.62l8.23-7.05a.92.92,0,0,0-.45-1.61l-.59-.1a.92.92,0,0,1-.36-1.67l9.87-6.58a.88.88,0,0,0,.37-.53l2.78-10.41a.92.92,0,0,0-1-1.15l-7.76,1.11a.93.93,0,0,1-.88-1.46l9.15-12.66a.8.8,0,0,1,.15-.17l4.57-3.8a1,1,0,0,0,.27-.37l4.16-10.41A.92.92,0,0,1,1517.14,482.35Z"/>
  <path class="cls-1" d="M905.83,550.17l-4.62,4.62a1.1,1.1,0,0,0-.28.49c-.35,1.43-1.93,7.83-1.93,8.72s-5.42,8.51-8.28,12.57a1.05,1.05,0,0,0,1.16,1.61l1.31-.38a1.05,1.05,0,0,1,1.15,1.61L885.68,592a1.06,1.06,0,0,0,.4,1.54l5.86,2.93a1,1,0,0,1,.4,1.52l-3.23,4.85a.87.87,0,0,1-.27.27l-6.5,4.65a1,1,0,0,0-.42.65l-1.87,9.34a1,1,0,0,1-.21.45l-2.47,3.09a1.05,1.05,0,0,0,.82,1.71h5.42a1.05,1.05,0,0,1,1,1.34l-1.57,5.47a1,1,0,0,1-.17.35l-7.62,10.16a1.05,1.05,0,0,0,.84,1.68h1.84a1.05,1.05,0,0,1,.85,1.67l-5.81,8a1.05,1.05,0,0,0,.67,1.65l7.48,1.36a1,1,0,0,1,.58,1.74l-9.57,10.45a1.08,1.08,0,0,0-.21.34l-5.16,13.75a1,1,0,0,0,1.32,1.36l2.13-.71a1.06,1.06,0,0,1,1.36,1.24l-2.54,11a1.09,1.09,0,0,1-.15.35l-6.33,9.5a1.05,1.05,0,0,0,1.15,1.6l6.4-1.74a1,1,0,0,1,1.27,1.34l-4,11.88a1.06,1.06,0,0,0,.9,1.38L944.78,725a1.06,1.06,0,0,0,.43-.05l28-9.65a1,1,0,0,0,.7-1.13l-1.73-13.85a1.05,1.05,0,0,1,1.14-1.18l8,.72a1,1,0,0,0,1.06-1.45L975,681.1a1.14,1.14,0,0,0-.1-.19l-8.11-11.7a1.06,1.06,0,0,1,.58-1.61l4.83-1.38a1.05,1.05,0,0,0,.76-1v-6.7a1.1,1.1,0,0,0-.39-.83l-7.27-5.81A1,1,0,0,1,966,650h1.12a1,1,0,0,0,.89-1.6l-5.66-9.2a1.05,1.05,0,0,1,1.15-1.57l4,1a1.05,1.05,0,0,0,1.29-1.18L967,626.23a1,1,0,0,0-.17-.42l-6.78-10.18A1,1,0,0,1,961,614h2.58a1,1,0,0,0,1-1.38L960,599.11a2,2,0,0,0-.1-.21l-4.34-7.23a1.05,1.05,0,0,1,1.3-1.51h0a1,1,0,0,0,1.38-1.31l-3-9.09a1.05,1.05,0,0,1,.42-1.21l1.54-1a1.06,1.06,0,0,0,.35-1.37l-7.73-14.6a1.05,1.05,0,0,0-1.81-.09L939,575l-6.7,10a1.06,1.06,0,0,0,1,1.63l2.62-.38a1.06,1.06,0,0,1,1.08,1.54l-7,13a1,1,0,0,0-.1.27l-1.47,6.63a1.05,1.05,0,0,1-1.87.4L922,602l-3.14-3.92a1.05,1.05,0,0,1,.41-1.62l4.66-2a1,1,0,0,0,.5-1.48l-4.3-7.74a.94.94,0,0,0-.36-.38l-6.07-3.79a1.05,1.05,0,0,1,.15-1.86l3.95-1.7a1,1,0,0,0,.44-1.57l-3-4.28A1,1,0,0,1,916,570h.77a1.05,1.05,0,0,0,.82-1.71l-6.52-8.16a.92.92,0,0,1-.17-.29l-3.38-9.29A1,1,0,0,0,905.83,550.17Z"/>
  <path class="cls-1" d="M1417.79,540.94l5.24,3.92a1,1,0,0,1,.34.44c.56,1.36,3,7.47,3.16,8.35s6.58,7.65,10,11.26a1,1,0,0,1-.91,1.76l-1.35-.19a1.05,1.05,0,0,0-.91,1.76l10.37,11.22a1.06,1.06,0,0,1-.17,1.58l-5.38,3.74a1,1,0,0,0-.18,1.56l3.89,4.34a1.33,1.33,0,0,0,.3.23l7.1,3.67a1,1,0,0,1,.51.58l3.19,9a1,1,0,0,0,.27.41l2.89,2.71a1.05,1.05,0,0,1-.57,1.81l-5.36.77a1.06,1.06,0,0,0-.81,1.47l2.33,5.2a1.34,1.34,0,0,0,.22.31l9,9a1,1,0,0,1-.59,1.78l-1.82.27a1,1,0,0,0-.6,1.77l6.88,7.07a1.05,1.05,0,0,1-.42,1.73l-7.2,2.41a1.05,1.05,0,0,0-.34,1.81l11,9a1.07,1.07,0,0,1,.25.31l7.07,12.87a1.05,1.05,0,0,1-1.11,1.54l-2.21-.4a1,1,0,0,0-1.16,1.41l4.08,10.51a.83.83,0,0,0,.2.32l7.63,8.51a1,1,0,0,1-.91,1.74l-6.59-.81a1,1,0,0,0-1.06,1.51l5.62,11.19a1.06,1.06,0,0,1-.7,1.5l-74.69,17.73a1.29,1.29,0,0,1-.44,0L1374.75,714a1,1,0,0,1-.85-1l-.27-14a1.05,1.05,0,0,0-1.3-1l-7.77,1.86a1.05,1.05,0,0,1-1.26-1.29l4.73-18.15a.7.7,0,0,1,.08-.2l6.34-12.75a1.06,1.06,0,0,0-.8-1.51l-5-.67a1,1,0,0,1-.9-.89l-1-6.63a1,1,0,0,1,.27-.87l6.36-6.8a1,1,0,0,0-.92-1.75l-1.11.16a1.05,1.05,0,0,1-1.11-1.46l4.28-9.92a1,1,0,0,0-1.36-1.39l-3.78,1.55a1.05,1.05,0,0,1-1.45-1l.1-11.34a1.09,1.09,0,0,1,.1-.44l5.26-11a1.05,1.05,0,0,0-1.1-1.49l-2.55.37a1.05,1.05,0,0,1-1.18-1.23l2.52-14a.79.79,0,0,1,.06-.22l3.26-7.78a1,1,0,0,0-1.49-1.31h0a1.05,1.05,0,0,1-1.56-1.1l1.69-9.43a1,1,0,0,0-.58-1.13l-1.67-.8a1,1,0,0,1-.54-1.3l5.56-15.56a1.05,1.05,0,0,1,1.77-.35l10.87,12.1,8.06,9a1,1,0,0,1-.78,1.75h-2.65a1.05,1.05,0,0,0-.84,1.68l8.75,11.91a1.23,1.23,0,0,1,.14.25l2.4,6.35a1.05,1.05,0,0,0,1.91.13l3.7-6.77,2.54-4.33a1,1,0,0,0-.63-1.54l-4.9-1.31a1.05,1.05,0,0,1-.71-1.39l3.15-8.28a.94.94,0,0,1,.3-.43l5.46-4.62a1.05,1.05,0,0,0-.41-1.82l-4.15-1.11a1,1,0,0,1-.66-1.5l2.41-4.67a1.05,1.05,0,0,0-1.09-1.52l-.76.11a1.05,1.05,0,0,1-1.06-1.57l5.3-9a1.24,1.24,0,0,0,.12-.32l2-9.67A1.05,1.05,0,0,1,1417.79,540.94Z"/>
  <path class="cls-1" d="M1577.88,473.28l-9.38,12.61a.57.57,0,0,0-.08.13l-9.59,20.2a.74.74,0,0,0,.79,1l1.57-.27a.73.73,0,0,1,.84.88l-2,8.94a.74.74,0,0,0,1.18.74l.62-.49a.73.73,0,0,1,1.11.91l-14.16,27.31a.74.74,0,0,0,.41,1l5.68,2.05a.73.73,0,0,1,.42,1l-3.08,7.19a.86.86,0,0,1-.1.16c-.69.89-7.4,9.43-6.64,9.45.5,0,2.58-.25,4.08-.45a.74.74,0,0,1,.71,1.14l-9.42,14.39a.74.74,0,0,0,.5,1.13l14.59,2.46a.73.73,0,0,1,.47,1.16l-5.12,6.95,0,0-7.83,9.48a.74.74,0,0,0,.71,1.19l3.83-.75a.73.73,0,0,1,.8,1l-3.58,7.39a.75.75,0,0,1-.07.12l-9.41,12.65a.73.73,0,0,0,.32,1.12l7.32,2.87a.73.73,0,0,1,.45.84L1541.18,641a.78.78,0,0,1-.09.24L1531.77,656a.74.74,0,0,0,.6,1.13l13.51.34a.74.74,0,0,1,.6,1.14l-11.81,17.88a.89.89,0,0,0-.08.17l-4,11.65a.74.74,0,0,0,.76,1l11.87-1.1a.73.73,0,0,1,.8.7l.47,9.06a.74.74,0,0,0,.72.7l61.54,1.54a.74.74,0,0,0,.76-.72l.16-6.47a.73.73,0,0,1,.87-.7l17.06,3.28a.74.74,0,0,0,.81-1l-5.18-11.78a.73.73,0,0,1,.51-1l1.4-.32a.73.73,0,0,0,.48-1.08l-11-19.44a.72.72,0,0,1-.1-.38l.28-11a.74.74,0,0,1,.94-.69l12.62,3.66a.73.73,0,0,0,.85-1.06l-7.63-14,0-.06-5.72-13a.73.73,0,0,1,.54-1l2.14-.38a.72.72,0,0,0,.52-1.06l-6.66-12.73a.74.74,0,0,1,.67-1.08l3.09.08a.74.74,0,0,0,.66-1.11l-6.36-11a.73.73,0,0,1,1-1h0a.74.74,0,0,0,1.11-.77l-2.5-12.73a.67.67,0,0,0-.16-.34l-7-8.13a.73.73,0,0,1,.3-1.17l6.52-2.43a.73.73,0,0,0,.45-.89l-3.49-12.24a.65.65,0,0,0-.11-.22l-5.92-8.32a.74.74,0,0,1,.72-1.15l2.71.46a.74.74,0,0,0,.82-1l-2.23-7.29a.74.74,0,0,1,.93-.92l2.51.79a.74.74,0,0,0,.87-1.06l-9.12-16.35-.06-.12-4.24-12.25a.74.74,0,0,1,.48-.95l1-.3a.72.72,0,0,0,.48-.94l-4.68-13.76a.73.73,0,0,1,.71-1l1.51,0a.74.74,0,0,0,.62-1.16l-12.6-17.71A.73.73,0,0,0,1577.88,473.28Z"/>
  <path class="cls-1" d="M1018.19,561.52l-3,4.56a.81.81,0,0,0-.1.21l-2.78,9.69a.75.75,0,0,1-.08.18c-.68,1.17-8.29,14.13-7.51,14.1l3.26-.14a.8.8,0,0,1,.69,1.26l-6.18,8.77a.8.8,0,0,0,.36,1.2l5.78,2.28a.79.79,0,0,1,.44,1l-2.61,6.61a1.28,1.28,0,0,1-.11.2l-8.91,11.2a.79.79,0,0,0,.65,1.29l5.46-.23a.8.8,0,0,1,.65,1.3L995.44,636a.8.8,0,0,0,.58,1.3l5.71.33a.79.79,0,0,1,.73.95L1000,650.61a.91.91,0,0,1-.17.34l-11.93,14.52a.79.79,0,0,0,.65,1.3l2.84-.12a.8.8,0,0,1,.81,1l-4.31,16.61a.8.8,0,0,0,1,1l8.71-2.25a.8.8,0,0,1,1,.95l-3.14,13.43a.68.68,0,0,1-.07.2l-9,16.46a.75.75,0,0,0-.09.29l-1,9.16a.8.8,0,0,0,1.1.82l5.94-2.44a.79.79,0,0,1,1.06,1L989.21,735A.8.8,0,0,0,990,736l67-2.81a.8.8,0,0,0,.74-1l-2.45-10a.8.8,0,0,1,.87-1l7.46.93a.8.8,0,0,0,.86-1l-3.33-10.67a.8.8,0,0,0-.24-.38l-6.82-5.74a.8.8,0,0,1,.76-1.37h0a.79.79,0,0,0,.85-1.27l-7.44-8.71a.78.78,0,0,1-.18-.35l-1.73-8.24a.8.8,0,0,1,1-.93l7.81,2a.8.8,0,0,0,.93-1.11l-6.38-13.53a1.07,1.07,0,0,0-.15-.22l-6-6.2a.81.81,0,0,1,.19-1.26l1.54-.85a.8.8,0,0,0,.29-1.12l-5.52-8.78a.8.8,0,0,1,.85-1.2l5.59,1.27a.79.79,0,0,0,.9-1.11l-3.73-8a1.07,1.07,0,0,0-.15-.22l-6.08-6.2a.8.8,0,0,1,.64-1.36l2.82.24a.8.8,0,0,0,.74-1.22l-5.41-8.61a.8.8,0,0,1,.64-1.22l6.39-.27a.79.79,0,0,0,.69-1.13l-3.91-8.37a.64.64,0,0,0-.18-.25l-6.7-6.17a.8.8,0,0,1,.15-1.28l4.59-2.54a.79.79,0,0,0,.24-1.19l-7.46-9.58a.79.79,0,0,1,.24-1.19l1.62-.9a.79.79,0,0,0,.29-1.13l-4.73-7.38a.8.8,0,0,1,.77-1.22l1.3.16a.8.8,0,0,0,.72-1.29l-5.62-7.08a.86.86,0,0,1-.1-.16l-5.63-12.2A.79.79,0,0,0,1018.19,561.52Z"/>
  <path class="cls-1" d="M1080,545.37l-1.74,2.18a.8.8,0,0,0-.17.65l1.26,6.94a.81.81,0,0,1-.35.82l-5.76,3.84a.79.79,0,0,0-.29.34l-3.31,7.18a.82.82,0,0,0,1,1.1l7.9-3.17a.81.81,0,0,1,1.09.56l1.12,4.46a.84.84,0,0,1-.09.62l-4,6.72a.74.74,0,0,0-.1.22l-2,8.21a.84.84,0,0,1-.19.36l-6.35,6.87a.82.82,0,0,0,.84,1.33l5.54-1.7a.8.8,0,0,1,1,.58l.22.86a.81.81,0,0,0,1.25.47l4.86-3.4a.81.81,0,0,1,1.28.66V601a.76.76,0,0,1-.1.39l-3.38,6.1a.91.91,0,0,1-.18.21l-10.15,8.88a.82.82,0,0,0,.32,1.4l2.67.76a.8.8,0,0,1,.53,1.08l-1.71,4.29a.81.81,0,0,0,1.12,1l9.71-4.85a.81.81,0,0,1,1.17.73v11.72a.83.83,0,0,1-.4.71l-7.94,4.63a.79.79,0,0,0-.3.3l-7.73,13.53a.81.81,0,0,0,.71,1.21h2.16a.82.82,0,0,1,.7,1.23l-2.8,4.8a.81.81,0,0,0,1.09,1.12l13.18-7.13a.81.81,0,0,1,1.2.79l-1.26,13.87a.87.87,0,0,1-.2.46l-13.2,15.28a.89.89,0,0,0-.18.38l-1.81,9.67a.81.81,0,0,0,1.12.89l1.53-.66a.82.82,0,0,1,1,1.12l-.62,1.24a.82.82,0,0,0,1.14,1.07l8.44-5a.82.82,0,0,1,1.23.73l-.65,18.11a.82.82,0,0,1-.24.55L1066,724.83a.8.8,0,0,0-.15.21l-2.28,4.56a.81.81,0,0,0,.61,1.17l8.78,1.26h21.29a.81.81,0,0,0,.81-.81v-12.3a.81.81,0,0,1,1.06-.77l12.75,4.05a.81.81,0,0,0,1-1.13l-.43-.86a.82.82,0,0,1,1-1.15l3.45,1a.82.82,0,0,0,1-1.16l-6.12-11.62a.73.73,0,0,0-.26-.29l-13-8.91a.78.78,0,0,1-.35-.61l-.56-7.75a.81.81,0,0,1,1.31-.7l11.32,8.8.09.07,6.86,4a.82.82,0,0,0,1.21-.89l-1.42-6.11a.82.82,0,0,1,1-1l1.17.29a.81.81,0,0,0,.73-1.4l-9.55-8.42-.08-.06-11-7.59a.81.81,0,0,1-.34-.56l-1.91-14a.81.81,0,0,1,1.06-.88l11.53,3.84.07,0,7.17,1.66a.82.82,0,0,0,.85-1.26l-6.56-9.55a1,1,0,0,0-.17-.18l-4-3.08a.81.81,0,0,1,.6-1.45h0a.81.81,0,0,0,.62-1.43l-6.37-5.32-.06-.05-4-4a.76.76,0,0,1-.24-.48l-1.17-10.57a.81.81,0,0,1,1.31-.72l5.49,4.39a.82.82,0,0,0,.2.12l9.61,3.95a.81.81,0,0,0,1-1.19l-3.53-5.55a.88.88,0,0,1-.1-.22l-2-7.43a.78.78,0,0,0-.31-.44l-8.72-6.23a.82.82,0,0,1,.06-1.36l1.53-.92a.81.81,0,0,0,.12-1.31l-4.63-4a.8.8,0,0,1-.27-.48L1091,597a.81.81,0,0,1,1.13-.88l4.81,2.14a.83.83,0,0,0,.44.06l8.63-1.15a.81.81,0,0,0,.42-1.42l-7.25-6.22a.82.82,0,0,1,.4-1.42l.52-.09a.81.81,0,0,0,.31-1.48l-8.7-5.8a.81.81,0,0,1-.33-.46l-2.45-9.18a.81.81,0,0,1,.9-1l6.84,1a.81.81,0,0,0,.78-1.28l-8.06-11.17-.14-.15-4-3.36a.7.7,0,0,1-.24-.32l-3.67-9.18A.82.82,0,0,0,1080,545.37Z"/>
  <path class="cls-1" d="M1139.39,533.85l3,5.91a.74.74,0,0,1,.08.3l0,4.58a.68.68,0,0,0,.19.45l9.1,9.47a.66.66,0,0,1-.63,1.11L1139.94,553a.67.67,0,0,0-.82.66l.05,3.9a.67.67,0,0,0,.16.43l7.58,8.62a.67.67,0,0,1-.5,1.11h0a.66.66,0,0,0-.5,1.09l10.54,12.69a.67.67,0,0,1-.51,1.1l-7.64.1a.68.68,0,0,1-.43-.15l-7.36-6a.67.67,0,0,0-1.1.52l.14,10.59a.7.7,0,0,0,0,.25l2.83,6.81a.55.55,0,0,0,.23.29l16.44,11.7a.67.67,0,0,1-.46,1.21l-18.1-2.18a.67.67,0,0,0-.75.68l.15,11.73a.65.65,0,0,0,.3.56l8.65,5.61a.67.67,0,0,1-.35,1.23h-.37a.67.67,0,0,0-.44,1.17l7.94,7.19a.67.67,0,0,1-.28,1.14l-10.12,2.67-.16,0-4.25,0a.67.67,0,0,0-.66.68l.08,6.86a.69.69,0,0,0,.27.53l7.54,5.65a.67.67,0,0,1-.39,1.2l-1.21,0a.66.66,0,0,0-.57,1l4.43,8.06a.67.67,0,0,1-.83,1l-8.14-3.14a.67.67,0,0,0-.91.63l.13,10.19a.65.65,0,0,0,.18.44l10.61,11.73a.57.57,0,0,1,.13.21l1.71,4.39a.67.67,0,0,1-.78.89l-3.12-.74a.67.67,0,0,0-.75.95l4.52,9.29a.67.67,0,0,1-.84.92l-10.44-3.91a.67.67,0,0,0-.9.64l.26,20.5a.68.68,0,0,1-.66.68l-14.29.18a.68.68,0,0,1-.68-.74l2.38-21.18a.67.67,0,0,0-.84-.72l-9.87,2.6a.66.66,0,0,1-.79-.4l-1.84-4.71a.65.65,0,0,1,.18-.73l5-4.55a.66.66,0,0,0-.35-1.15l-1.53-.24a.67.67,0,0,1-.36-1.15l10.77-9.88a.67.67,0,0,0-.56-1.16l-7.28,1.14a.68.68,0,0,1-.72-.41l-1.1-2.66a.66.66,0,0,1,.14-.72l10.78-11.06a.71.71,0,0,0,.19-.48l-.15-11.64a.67.67,0,0,0-.9-.62l-9.65,3.55a.67.67,0,0,1-.83-.92l1.45-3a.68.68,0,0,0-.77-.95l-5.85,1.43a.67.67,0,0,1-.67-1.08l9-10.46a.67.67,0,0,0,.15-.56l-.64-3.58a.64.64,0,0,1,.23-.63l6.54-5.37a.66.66,0,0,0,.24-.48l.51-10.13a.67.67,0,0,0-.9-.66l-16.83,6.25a.67.67,0,0,1-.77-1l5.23-7a.68.68,0,0,0-.17-1l-.86-.55a.67.67,0,0,1-.1-1l12.65-12.3a.66.66,0,0,0,.19-.37l1.82-11.86a.67.67,0,0,0-.69-.77l-14.75.78a.67.67,0,0,1-.43-1.21l10.59-7.61a.67.67,0,0,0-.4-1.21h-.6a.66.66,0,0,1-.38-1.22l7.75-5.13a.66.66,0,0,0,.3-.5l1.08-12.46a.67.67,0,0,0-1.07-.59l-4.35,3.35a.66.66,0,0,1-.24.11l-3.51.93a.67.67,0,0,1-.69-1.08l7.14-8.45a.67.67,0,0,0-.31-1.07l-.16-.05a.67.67,0,0,1-.28-1.11l6.25-6.4.09-.12,4.24-6.85A.66.66,0,0,1,1139.39,533.85Z"/>
  <path class="cls-1" d="M1233.17,538.17l4.62,4.62a1.1,1.1,0,0,1,.28.49c.35,1.43,1.93,7.83,1.93,8.72s5.42,8.51,8.28,12.57a1.05,1.05,0,0,1-1.16,1.61l-1.31-.38a1.05,1.05,0,0,0-1.15,1.61l8.66,12.59a1.06,1.06,0,0,1-.4,1.54l-5.86,2.93a1,1,0,0,0-.4,1.52l3.23,4.85a.87.87,0,0,0,.27.27l6.5,4.65a1,1,0,0,1,.42.65l1.87,9.34a1,1,0,0,0,.21.45l2.47,3.09a1.05,1.05,0,0,1-.82,1.71h-5.42a1.05,1.05,0,0,0-1,1.34l1.57,5.47a1,1,0,0,0,.17.35l7.62,10.16a1.05,1.05,0,0,1-.84,1.68h-1.84a1.05,1.05,0,0,0-.85,1.67l5.81,8a1.05,1.05,0,0,1-.67,1.65l-7.48,1.36a1,1,0,0,0-.58,1.74l9.57,10.45a1.08,1.08,0,0,1,.21.34l5.16,13.75a1,1,0,0,1-1.32,1.36l-2.13-.71a1.06,1.06,0,0,0-1.36,1.24l2.54,11a1.09,1.09,0,0,0,.15.35l6.33,9.5a1.05,1.05,0,0,1-1.15,1.6l-6.4-1.74a1,1,0,0,0-1.27,1.34l4,11.88a1.06,1.06,0,0,1-.9,1.38L1194.22,713a1.06,1.06,0,0,1-.43-.05l-28-9.65a1,1,0,0,1-.7-1.13l1.73-13.85a1.05,1.05,0,0,0-1.14-1.18l-8,.72a1,1,0,0,1-1.06-1.45L1164,669.1a1.14,1.14,0,0,1,.1-.19l8.11-11.7a1.06,1.06,0,0,0-.58-1.61l-4.83-1.38a1.05,1.05,0,0,1-.76-1v-6.7a1.1,1.1,0,0,1,.39-.83l7.27-5.81A1,1,0,0,0,1173,638h-1.12a1,1,0,0,1-.89-1.6l5.66-9.2a1.05,1.05,0,0,0-1.15-1.57l-4,1a1.05,1.05,0,0,1-1.29-1.18l1.72-11.21a1,1,0,0,1,.17-.42l6.78-10.18A1,1,0,0,0,1178,602h-2.58a1,1,0,0,1-1-1.38l4.5-13.51a2,2,0,0,1,.1-.21l4.34-7.23a1.05,1.05,0,0,0-1.3-1.51h0a1,1,0,0,1-1.38-1.31l3-9.09a1.05,1.05,0,0,0-.42-1.21l-1.54-1a1.06,1.06,0,0,1-.35-1.37l7.73-14.6a1.05,1.05,0,0,1,1.81-.09l9,13.53,6.7,10a1.06,1.06,0,0,1-1,1.63l-2.62-.38a1.06,1.06,0,0,0-1.08,1.54l7,13a1,1,0,0,1,.1.27l1.47,6.63a1.05,1.05,0,0,0,1.87.4L1217,590l3.14-3.92a1.05,1.05,0,0,0-.41-1.62l-4.66-2a1,1,0,0,1-.5-1.48l4.3-7.74a.94.94,0,0,1,.36-.38l6.07-3.79a1.05,1.05,0,0,0-.15-1.86l-4-1.7a1,1,0,0,1-.44-1.57l3-4.28A1,1,0,0,0,1223,558h-.77a1.05,1.05,0,0,1-.82-1.71l6.52-8.16a.92.92,0,0,0,.17-.29l3.38-9.29A1,1,0,0,1,1233.17,538.17Z"/>
  <path class="cls-1" d="M224.85,528.75l32.47-9.55a3.25,3.25,0,0,0,1.22-.67l20.24-17.6a3.25,3.25,0,0,1,4.36.08l29.17,27.34a3.23,3.23,0,0,0,1.62.83l56.74,10.76a2.94,2.94,0,0,0,.66,0l56.93-1a3.26,3.26,0,0,1,2.73,1.4L457.58,579a3.26,3.26,0,0,0,3.77,1.22l61.15-21.64a3.28,3.28,0,0,1,2.84.33l34.37,21.95a2.77,2.77,0,0,0,.62.31l69.24,25.72a3,3,0,0,0,.89.19L683,610.92a3.26,3.26,0,0,1,1.83.74l31.76,26.15a3.24,3.24,0,0,0,3.19.54l43.8-16.18a3.44,3.44,0,0,0,.84-.46l21.68-16.49a3.26,3.26,0,0,1,4.78,1l2.52,4.32a3.26,3.26,0,0,0,5.52.16l10.52-15.78a3.26,3.26,0,0,1,5.34-.11l22.32,30.59a3.25,3.25,0,0,0,4.56.69l19.77-14.61a3.21,3.21,0,0,0,1-1.09l5.77-10.92a3.26,3.26,0,0,1,5.76,0l14.43,27.26a3.29,3.29,0,0,0,2.13,1.65l44.69,10.46a3.24,3.24,0,0,0,1.72-.07L973,627.33a3.24,3.24,0,0,0,1.67-1.22L988.19,607a3.25,3.25,0,0,1,5.4.15l13.93,22.12a3.28,3.28,0,0,0,1.28,1.17l38.93,19.92a3.26,3.26,0,0,0,4.54-1.77l3.94-10.7a3.25,3.25,0,0,1,5.39-1.14l14.24,14.72a3.11,3.11,0,0,0,1.27.81l4.31,1.51a3.26,3.26,0,0,0,4.27-2.49l3.9-21.07a3.26,3.26,0,0,1,2.61-2.61l40.27-7.49a3.15,3.15,0,0,1,1.06,0l11.58,1.65a3.25,3.25,0,0,0,3.05-1.25l13.18-17.3a3.25,3.25,0,0,1,4.09-.92l23.87,12.37a3.22,3.22,0,0,0,1.49.37h31a2.81,2.81,0,0,0,.5,0l25.15-3.87a3.23,3.23,0,0,0,1.13-.39l24.2-14a3.3,3.3,0,0,1,2.66-.27l42.88,14.3a3.3,3.3,0,0,0,1.5.13l40.1-5.87.26,0,62.69-4,.35,0L1497,588.18a3.26,3.26,0,0,0,1.75-.91l11.94-11.94a3.25,3.25,0,0,1,3.14-.84l94.24,25.25a3.29,3.29,0,0,1,1.6,1l60.19,68.53a3.25,3.25,0,0,1-2.1,5.38c-63.1,6.54-582,60.35-586.74,60.35-4.92,0-744.36-42.64-767.45-44a3.26,3.26,0,0,1-1.06-.24C300.37,685.75,75.11,592,79,591c3.58-.89,29.56-71.4,35-86.27a3.25,3.25,0,0,1,3.84-2l105.3,26.09A3.31,3.31,0,0,0,224.85,528.75Z"/>
  <path class="cls-1" d="M1701.06,438.43l14.85,16.74a.86.86,0,0,1-.12,1.24l-2.3,1.53a.85.85,0,0,0-.12,1.24l9,10a.89.89,0,0,1,.15.27l12.24,33.28a.74.74,0,0,1,0,.33l-.92,29.54a.88.88,0,0,1-.11.39l-18.33,32.72a.62.62,0,0,1-.83.29L1662,540.47a.84.84,0,0,1-.33-1.14l23.5-43.22a.75.75,0,0,0,.1-.33l1.62-17.38a.76.76,0,0,0-.73-.88l-7.51.52a.8.8,0,0,1-.57-1.3l11.87-15.67a.82.82,0,0,0-.44-1.29l-2.3-.36a.83.83,0,0,1-.38-1.37L1697.74,447a.91.91,0,0,0,.2-.36l2-7.89A.65.65,0,0,1,1701.06,438.43Z"/>
  <path class="cls-1" d="M722,651.68l-16.52-6.31-.15,0-13.57-4.1a4,4,0,0,1-2.42-5.64L697.13,620a2,2,0,0,1,.6-.72L718,603.84a2.07,2.07,0,0,1,2.55,0l14.06,11a2,2,0,0,1,.8,1.6l.47,24.31a2.1,2.1,0,0,1-.78,1.66L724,651.36A2.08,2.08,0,0,1,722,651.68Z"/>
  <path class="cls-1" d="M1034.69,665.49l7.09-5.32a1.72,1.72,0,0,1,.48-.26l8.09-2.69a1.69,1.69,0,0,0,1-.83L1059,642a1.71,1.71,0,0,1,2.68-.46l10.72,9.9a1.71,1.71,0,0,0,1.5.42l12.49-2.5a1.71,1.71,0,0,1,2,1.31l5.24,23.58a1.71,1.71,0,0,1-1.4,2.07l-23,3.68a1.73,1.73,0,0,1-.32,0l-33.17-1a1.72,1.72,0,0,1-1.67-1.72V666.86A1.69,1.69,0,0,1,1034.69,665.49Z"/>
  <path class="cls-1" d="M1.75,410.83l18.6,19.45a1,1,0,0,1-.73,1.72H16.49a1,1,0,0,0-.95,1.39l5.8,14.92a1,1,0,0,0,1.76.25l14-18.34a1,1,0,0,1,1.69.1l14,24.27a1,1,0,0,0,.71.49l43.79,7.79a1,1,0,0,0,1.08-.54L113,433.87a1,1,0,0,1,1.84.05l8.08,18a.76.76,0,0,0,.12.19l7.49,10a1,1,0,0,1-.94,1.62l-2.82-.35a1,1,0,0,0-.86,1.71l12.45,13.23a1,1,0,0,1-.74,1.71h-6.08a1,1,0,0,0-.7,1.76l14,13.17a1,1,0,0,0,1.66-.41L159,459.1a1.14,1.14,0,0,1,.1-.19l6.9-11.23a1,1,0,0,1,1.81.14l14.06,33.41a1,1,0,0,1-1.44,1.28l-2-1.16a1,1,0,0,0-1.47,1.22l5.44,15.55a1,1,0,0,1-1.25,1.31l-6.66-2a1,1,0,0,0-1.31,1.06l2.82,33.82a1,1,0,0,0,.73.89l120,35.7a1,1,0,0,0,.63,0l60.38-21.78a1,1,0,0,1,.63,0L748.88,661a.69.69,0,0,0,.25,0l467.75,14,.24,0,249.78-54,.2,0,132.55-2a1,1,0,0,0,.62-.23L1635,590.61a1,1,0,0,0-.57-1.81l-8.82-.67a1,1,0,0,1-.8-1.54l12.09-20.46a1.39,1.39,0,0,0,.12-.28l4.91-20.64a.89.89,0,0,1,.18-.38l8.75-11.67a.92.92,0,0,0,.17-.36l5.36-21.43a1,1,0,0,1,1.86-.28l18.19,30a1,1,0,0,0,1.42.33l12.88-8.28a1,1,0,0,0,.36-.42l27.17-57.24a1,1,0,0,1,1.72-.19l24.73,32.05a1,1,0,0,1-.81,1.64h-7a1,1,0,0,0-.75,1.71l16.65,18.06a1,1,0,0,1-.48,1.67l-7.78,2.12a1,1,0,0,0-.49,1.67l19.13,20.95a1,1,0,0,0,1.5,0l20.19-22.12a.69.69,0,0,0,.11-.13l19-29.54a1,1,0,0,1,1.74,0l12.27,21a1,1,0,0,1-.88,1.53h-1.75a1,1,0,0,0-1,1.38l4,10.45a1,1,0,0,0,1.5.49l18.62-12.11a1,1,0,0,0,.43-.59l6.55-24.34a1,1,0,0,0-1-1.28h-3.79a1,1,0,0,1-.85-1.57L1855,475.57a1,1,0,0,0-.85-1.57h-5.33a1,1,0,0,1-.88-1.54l17.22-29a1,1,0,0,1,1.75,0l22.2,37a1,1,0,0,1-.88,1.54h-4.7a1,1,0,0,0-.94,1.4l6.88,17.2a1,1,0,0,1-.94,1.4h-3.11a1,1,0,0,0-1,1.32l5.31,16.82a1,1,0,0,1-.55,1.23l-8.83,4a1,1,0,0,0-.29,1.66l39.63,38.66a1,1,0,0,1,.31.73V792a1,1,0,0,1-1,1H1a1,1,0,0,1-1-1V411.54A1,1,0,0,1,1.75,410.83Z"/>
  <path class="cls-1" d="M79.84,387.08l10.25,13.09a.35.35,0,0,1,.08.13L100.27,421c.27.55-.3,1.13-1,1l-1.81-.36a.8.8,0,0,0-1,.84l1.88,9c.14.69-.8,1.14-1.41.68l-.69-.52c-.7-.53-1.73.13-1.35.85l15,28a.71.71,0,0,1-.52,1l-6.73,1.75a.72.72,0,0,0-.55,1l3.22,7.34a.54.54,0,0,0,.1.16c.76.92,8.12,9.82,7.23,9.79-.58,0-3-.38-4.72-.66-.72-.11-1.26.55-.89,1.09l10.2,14.88a.72.72,0,0,1-.63,1.1l-17.14,1.68a.73.73,0,0,0-.61,1.14l5.61,7.21,0,0,8.62,9.87c.48.56-.11,1.32-.89,1.16l-4.43-1c-.69-.15-1.27.44-1,1l3.78,7.57a.83.83,0,0,0,.08.12L121,539.9a.7.7,0,0,1-.43,1.11l-8.68,2.48a.72.72,0,0,0-.57.81l2.36,12.24a.74.74,0,0,0,.11.24L123.84,572c.34.5-.09,1.11-.76,1.1l-15.76-.38c-.67,0-1.1.61-.76,1.11l12.81,18.48a.53.53,0,0,1,.08.17l4,11.85c.17.51-.32,1-.94.93l-13.77-1.73a.84.84,0,0,0-1,.65l-1,9a.81.81,0,0,1-.87.66L34.1,612.1a.81.81,0,0,1-.84-.76l.16-6.47a.83.83,0,0,0-1-.75l-20,2.38c-.68.08-1.2-.54-.89-1.06L18.17,594a.71.71,0,0,0-.55-1L16,592.52a.72.72,0,0,1-.5-1.11l13.86-18.83a.65.65,0,0,0,.14-.37l.26-11a.84.84,0,0,0-1.06-.74l-14.89,3c-.75.15-1.34-.55-.94-1.11l9.63-13.55a.21.21,0,0,0,0-.06l7.36-12.67a.73.73,0,0,0-.59-1l-2.47-.48a.73.73,0,0,1-.55-1.1l8.43-12.36c.33-.48-.06-1.09-.72-1.11l-3.6-.08c-.67,0-1.07-.66-.71-1.14l8-10.67c.48-.64-.37-1.42-1.15-1h0c-.65.32-1.44-.2-1.26-.82l3.59-12.59a.69.69,0,0,1,.21-.33l8.62-7.75a.69.69,0,0,0-.29-1.18L40,481.65a.7.7,0,0,1-.48-.91l4.72-12a.71.71,0,0,1,.13-.22l7.34-8c.47-.51,0-1.26-.78-1.19l-3.17.31c-.64.06-1.13-.47-.92-1l3-7.17c.23-.55-.36-1.11-1-1l-3,.65c-.75.17-1.36-.54-1-1.1L56.32,434.2l.07-.11,5.6-12a.72.72,0,0,0-.51-1l-1.13-.35a.71.71,0,0,1-.51-1L66,406.29c.22-.47-.18-1-.78-1l-1.76,0c-.7,0-1.09-.72-.65-1.19l15.62-17A1,1,0,0,1,79.84,387.08Z"/>
  <path class="cls-1" d="M1796.53,426.5l12,11.94a.31.31,0,0,1,.09.11l12.66,19.51c.33.52-.2,1.16-.92,1.1l-1.92-.17c-.64-.05-1.16.45-1,.95l2.89,8.79c.22.66-.72,1.21-1.4.82l-.78-.45c-.78-.45-1.79.31-1.31,1l18.56,26.29a.69.69,0,0,1-.45,1.05l-6.82,2.45a.72.72,0,0,0-.48,1l4.11,7a.79.79,0,0,0,.12.15c.89.84,9.48,8.9,8.55,9-.62,0-3.16-.07-5-.16-.77,0-1.26.67-.82,1.18l12.17,13.72c.37.42.08,1-.55,1.16l-17.68,3.48c-.66.13-.94.78-.52,1.2l6.58,6.58,0,0,10,8.91c.56.51,0,1.33-.81,1.24l-4.71-.48c-.73-.07-1.28.57-.93,1.1l4.72,7.13a.31.31,0,0,0,.09.11l12.08,12a.69.69,0,0,1-.34,1.15L1846,578.7a.73.73,0,0,0-.51.87l3.73,11.92a.59.59,0,0,0,.13.23l12.06,14c.4.47,0,1.12-.68,1.18l-16.46,1.28c-.71.06-1.09.72-.67,1.18l15.24,17a.57.57,0,0,1,.11.16l5.38,11.36c.24.49-.23,1-.88,1L1849,638.7a.87.87,0,0,0-1,.75l-.14,9.09a.85.85,0,0,1-.84.75l-75,5.86a.83.83,0,0,1-1-.66l-.5-6.45a.86.86,0,0,0-1.1-.64l-20.65,4.47c-.7.16-1.3-.4-1-1l5.76-12.13c.21-.44-.12-.91-.67-1l-1.73-.21c-.59-.08-.91-.6-.64-1.05l12.51-20.19a.68.68,0,0,0,.09-.39L1762.3,605a.87.87,0,0,0-1.18-.62L1745.91,609c-.76.23-1.44-.4-1.09-1l8.64-14.5,0-.05,6.36-13.39c.22-.45-.13-.93-.71-1l-2.62-.22c-.61-.05-1-.57-.7-1l7.52-13.18c.29-.52-.19-1.09-.87-1l-3.76.29c-.7.06-1.18-.54-.85-1l7.23-11.46c.44-.69-.53-1.37-1.3-.92h0c-.65.39-1.52,0-1.4-.68l2.44-12.9a.64.64,0,0,1,.19-.35l8.18-8.62a.68.68,0,0,0-.42-1.15l-8.07-2a.71.71,0,0,1-.59-.86l3.67-12.47a.76.76,0,0,1,.13-.23l6.82-8.72c.43-.57-.15-1.26-.94-1.11l-3.27.65c-.66.13-1.22-.35-1-.88l2.37-7.45c.18-.57-.49-1.06-1.17-.85l-3,1c-.77.24-1.47-.4-1.1-1l10.34-17,.06-.12,4.59-12.54a.71.71,0,0,0-.63-.91l-1.21-.23a.71.71,0,0,1-.63-.91l5-14.07c.18-.5-.29-1-.92-.92l-1.84.14c-.73.06-1.21-.6-.8-1.12l14.52-18.58A1,1,0,0,1,1796.53,426.5Z"/>
  <path class="cls-1" d="M1625.91,448.74l3,5.91a.59.59,0,0,1,.07.29l.06,4.58a.66.66,0,0,0,.19.46l9.1,9.46a.67.67,0,0,1-.64,1.12l-11.28-2.67a.67.67,0,0,0-.83.66l0,3.89a.66.66,0,0,0,.17.44l7.58,8.61a.67.67,0,0,1-.5,1.11h0a.67.67,0,0,0-.5,1.1L1643,496.39a.67.67,0,0,1-.51,1.1l-7.64.1a.72.72,0,0,1-.43-.15l-7.37-6a.67.67,0,0,0-1.09.53l.14,10.59a.56.56,0,0,0,0,.25l2.82,6.81a.73.73,0,0,0,.23.29l16.45,11.7a.67.67,0,0,1-.47,1.21l-18.1-2.18a.67.67,0,0,0-.75.67l.15,11.74a.68.68,0,0,0,.31.55l8.65,5.61a.67.67,0,0,1-.35,1.24h-.38a.67.67,0,0,0-.44,1.17l7.94,7.18a.67.67,0,0,1-.27,1.15l-10.12,2.66a.51.51,0,0,1-.17,0l-4.25.05a.67.67,0,0,0-.66.68l.09,6.86a.66.66,0,0,0,.27.53l7.54,5.64a.67.67,0,0,1-.39,1.21H1633a.68.68,0,0,0-.58,1l4.44,8.06a.67.67,0,0,1-.83.94l-8.14-3.13a.67.67,0,0,0-.91.63l.13,10.19a.66.66,0,0,0,.17.44l10.62,11.73a.57.57,0,0,1,.13.21l1.71,4.38a.68.68,0,0,1-.78.9l-3.12-.74a.67.67,0,0,0-.76.94l4.52,9.3a.67.67,0,0,1-.83.92l-10.44-3.91a.67.67,0,0,0-.9.64l.26,20.5a.67.67,0,0,1-.66.67l-14.29.19a.68.68,0,0,1-.68-.75l2.38-21.17a.67.67,0,0,0-.84-.72l-9.87,2.6a.68.68,0,0,1-.8-.41l-1.83-4.7a.68.68,0,0,1,.17-.74l5-4.54a.68.68,0,0,0-.35-1.16l-1.54-.23a.68.68,0,0,1-.35-1.16l10.77-9.88a.67.67,0,0,0-.56-1.15l-7.28,1.13a.67.67,0,0,1-.72-.4l-1.1-2.66a.68.68,0,0,1,.13-.73l10.79-11.06a.68.68,0,0,0,.19-.47l-.15-11.64a.67.67,0,0,0-.9-.62l-9.65,3.54a.67.67,0,0,1-.83-.92l1.44-3a.67.67,0,0,0-.76-.94l-5.85,1.43a.67.67,0,0,1-.67-1.09l9-10.46a.68.68,0,0,0,.15-.55l-.65-3.58a.66.66,0,0,1,.24-.63l6.54-5.37a.7.7,0,0,0,.24-.49l.5-10.13a.67.67,0,0,0-.9-.66l-16.82,6.26a.67.67,0,0,1-.77-1l5.23-7a.67.67,0,0,0-.17-1l-.86-.56a.67.67,0,0,1-.1-1l12.65-12.29a.66.66,0,0,0,.19-.38l1.82-11.85a.66.66,0,0,0-.69-.77l-14.76.78a.67.67,0,0,1-.42-1.21l10.58-7.61a.67.67,0,0,0-.4-1.22h-.6a.67.67,0,0,1-.37-1.23l7.75-5.12a.64.64,0,0,0,.29-.5l1.09-12.47a.66.66,0,0,0-1.07-.58l-4.35,3.34a.55.55,0,0,1-.24.12l-3.52.93a.67.67,0,0,1-.68-1.08l7.14-8.45a.67.67,0,0,0-.31-1.07l-.17-.06a.66.66,0,0,1-.27-1.1l6.25-6.41.09-.11,4.24-6.86A.67.67,0,0,1,1625.91,448.74Z"/>
  <path class="cls-1" d="M370.93,511.1l-7.81,11.28a.74.74,0,0,0,.79,1.14l.78-.19a.74.74,0,0,1,.88.95L363,531.89a1.06,1.06,0,0,1-.11.21L360,536a.35.35,0,0,0,0,.08l-2.92,5.11a.74.74,0,0,0,.92,1.06l1.53-.62a.75.75,0,0,1,1,.93L359.34,546a.74.74,0,0,0,.75,1L377.9,546l.2,0,11-3.67a.74.74,0,0,0,.39-1.1L384,532.57a.74.74,0,0,1,.8-1.12l.89.22a.74.74,0,0,0,.88-.95L384,523.13a.63.63,0,0,0-.13-.24l-3.9-4.67a.74.74,0,0,1,.57-1.22h0a.74.74,0,0,0,.61-1.16l-7.3-10.55a.74.74,0,0,0-1.32.22L371,510.88A.62.62,0,0,1,370.93,511.1Z"/>
  <path class="cls-1" d="M1289.35,572.69l-9.65,9.76a.74.74,0,0,0,.58,1.26l.8-.06a.74.74,0,0,1,.7,1.09l-3.81,7a.7.7,0,0,1-.15.19l-3.52,3.31-.07.06-3.76,4.53a.74.74,0,0,0,.72,1.2l1.63-.34a.74.74,0,0,1,.8,1.08l-1.73,3.2a.74.74,0,0,0,.56,1.09l17.71,2.17h.2l11.47-1.7a.75.75,0,0,0,.58-1l-3.92-9.45a.74.74,0,0,1,1-1l.83.37a.74.74,0,0,0,1-.79l-1.17-7.91a1.34,1.34,0,0,0-.09-.26l-3-5.28a.74.74,0,0,1,.77-1.1h0a.74.74,0,0,0,.8-1l-5.36-11.65a.74.74,0,0,0-1.34,0l-2.44,5A1,1,0,0,1,1289.35,572.69Z"/>
  <path class="cls-1" d="M1469.14,563.93l9,10.35a.75.75,0,0,1-.66,1.23l-.79-.11a.74.74,0,0,0-.77,1l3.35,7.28a.69.69,0,0,0,.13.2l3.31,3.52.06.08,3.47,4.76a.74.74,0,0,1-.8,1.15l-1.6-.45a.74.74,0,0,0-.87,1l1.52,3.3a.74.74,0,0,1-.63,1.05l-17.81,1a.71.71,0,0,1-.2,0l-11.34-2.43a.74.74,0,0,1-.51-1.05l4.51-9.18a.74.74,0,0,0-.92-1l-.86.32a.74.74,0,0,1-1-.85l1.68-7.82a.8.8,0,0,1,.11-.25l3.36-5.08a.74.74,0,0,0-.7-1.14h0a.75.75,0,0,1-.74-1.09l6.1-11.29a.74.74,0,0,1,1.34.07l2.12,5.18A.82.82,0,0,0,1469.14,563.93Z"/>
  <path class="cls-1" d="M1338.08,512l3,4.56a1.47,1.47,0,0,1,.1.22l2.78,9.69a.71.71,0,0,0,.08.18c.68,1.16,8.29,14.13,7.51,14.09l-3.27-.13a.79.79,0,0,0-.68,1.25l6.18,8.77a.79.79,0,0,1-.36,1.2l-5.78,2.29a.79.79,0,0,0-.45,1l2.61,6.61a.88.88,0,0,0,.12.21l8.91,11.19a.79.79,0,0,1-.66,1.29l-5.45-.23a.8.8,0,0,0-.65,1.3l8.77,10.93a.79.79,0,0,1-.57,1.29l-5.71.33a.8.8,0,0,0-.73,1l2.48,12.06a.76.76,0,0,0,.17.35L1368.39,616a.8.8,0,0,1-.65,1.3l-2.84-.11a.79.79,0,0,0-.81,1l4.3,16.61a.79.79,0,0,1-1,1l-8.7-2.25a.8.8,0,0,0-1,.95l3.13,13.44a.84.84,0,0,0,.08.2l9,16.45a.75.75,0,0,1,.09.3l1,9.15a.81.81,0,0,1-1.1.83l-5.94-2.45a.8.8,0,0,0-1.06,1l4.14,12.13a.8.8,0,0,1-.79,1l-67-2.81a.8.8,0,0,1-.74-1l2.45-10a.81.81,0,0,0-.88-1l-7.46.93a.8.8,0,0,1-.86-1l3.33-10.67a.84.84,0,0,1,.25-.37l6.82-5.75a.79.79,0,0,0-.76-1.36h0a.8.8,0,0,1-.86-1.28l7.45-8.7a.71.71,0,0,0,.17-.36l1.73-8.23a.8.8,0,0,0-1-.94l-7.82,2.05a.8.8,0,0,1-.92-1.11l6.38-13.53a.6.6,0,0,1,.14-.21l6-6.21a.8.8,0,0,0-.19-1.25l-1.54-.85a.81.81,0,0,1-.29-1.13l5.52-8.78a.8.8,0,0,0-.86-1.2l-5.58,1.28a.8.8,0,0,1-.9-1.12l3.73-8a.86.86,0,0,1,.15-.22l6.08-6.21a.8.8,0,0,0-.64-1.35l-2.82.23a.79.79,0,0,1-.74-1.22l5.4-8.61a.8.8,0,0,0-.64-1.22L1313,575a.79.79,0,0,1-.69-1.13l3.9-8.37a.92.92,0,0,1,.19-.25l6.7-6.16a.81.81,0,0,0-.15-1.29l-4.59-2.54a.8.8,0,0,1-.25-1.19l7.47-9.58a.8.8,0,0,0-.24-1.19l-1.63-.9a.79.79,0,0,1-.28-1.12l4.73-7.39a.8.8,0,0,0-.77-1.22l-1.3.16a.79.79,0,0,1-.72-1.28l5.62-7.08a1.29,1.29,0,0,0,.09-.16l5.64-12.21A.8.8,0,0,1,1338.08,512Z"/>
  <path class="cls-1" d="M1917.37,458.33,1903.3,476.1a1.47,1.47,0,0,0,1.36,2.38l.13,0a1.48,1.48,0,0,1,1.45,2.26l-7.77,12a1.48,1.48,0,0,0,1.24,2.28h.53a1.47,1.47,0,0,1,1.23,2.29l-8.33,12.5a1.46,1.46,0,0,0-.2.46l-3.26,13a1.47,1.47,0,0,0,2,1.74l2.09-.78a1.48,1.48,0,0,1,1.87,2L1886.45,547a1.5,1.5,0,0,0,.42,1.74l30.72,25a1.53,1.53,0,0,0,.93.33h0a1.48,1.48,0,0,0,1.48-1.48V459.24A1.47,1.47,0,0,0,1917.37,458.33Z"/>
</svg>
